<?xml version="1.0" encoding="utf-8"?>
<!-- Generator: Adobe Illustrator 23.0.5, SVG Export Plug-In . SVG Version: 6.00 Build 0)  -->
<svg version="1.1" id="Layer_1" xmlns="http://www.w3.org/2000/svg" xmlns:xlink="http://www.w3.org/1999/xlink" x="0px" y="0px"
	 viewBox="0 0 425.2 476.22" style="enable-background:new 0 0 425.2 476.22;" xml:space="preserve">
<style type="text/css">
	.st0{fill:url(#XMLID_2_);}
	.st1{fill:#005B80;}
	.st2{opacity:0.8;fill:url(#XMLID_3_);}
	.st3{fill:#175776;}
	.st4{fill:#3AA99F;}
	.st5{fill:#C2BFBD;}
	.st6{fill:#FFFFFF;}
	.st7{fill-rule:evenodd;clip-rule:evenodd;fill:#175776;}
	.st8{fill-rule:evenodd;clip-rule:evenodd;fill:#C4261F;}
	.st9{fill-rule:evenodd;clip-rule:evenodd;fill:#E4DB36;}
	.st10{fill-rule:evenodd;clip-rule:evenodd;fill:#006736;}
</style>
<radialGradient id="XMLID_2_" cx="89.0145" cy="123.4587" r="368.5674" gradientTransform="matrix(0.779 0 0 0.9908 143.3851 27.7735)" gradientUnits="userSpaceOnUse">
	<stop  offset="4.469800e-04" style="stop-color:#60C4BC"/>
	<stop  offset="0.1684" style="stop-color:#57C1B8"/>
	<stop  offset="0.4455" style="stop-color:#3EB7AD"/>
	<stop  offset="0.4964" style="stop-color:#39B5AB"/>
	<stop  offset="1" style="stop-color:#309D95"/>
</radialGradient>
<rect id="XMLID_470_" x="0.22" y="0.11" class="st0" width="425.89" height="477.96"/>
<path id="XMLID_467_" class="st1" d="M400.28,29.03l-0.03,417.75H27.09V29.03h248.96 M426.51-1.96H-1.2l-1,479.74h429.31V-1.96
	H426.51z"/>
<g id="XMLID_5407_">
	
		<radialGradient id="XMLID_3_" cx="561.6236" cy="276.9052" r="24.635" gradientTransform="matrix(4.149 -0.0261 3.535128e-03 0.5038 -2208.3032 128.085)" gradientUnits="userSpaceOnUse">
		<stop  offset="0" style="stop-color:#3A3B3B;stop-opacity:0.8945"/>
		<stop  offset="0.1071" style="stop-color:#404141;stop-opacity:0.7987"/>
		<stop  offset="0.2565" style="stop-color:#535353;stop-opacity:0.665"/>
		<stop  offset="0.4309" style="stop-color:#707171;stop-opacity:0.5091"/>
		<stop  offset="0.624" style="stop-color:#9A9A9A;stop-opacity:0.3363"/>
		<stop  offset="0.8301" style="stop-color:#CECECE;stop-opacity:0.1519"/>
		<stop  offset="1" style="stop-color:#FFFFFF;stop-opacity:0"/>
	</radialGradient>
	<path id="XMLID_5559_" class="st2" d="M229.83,252.89c0,6.98-47.9,12.67-106.95,12.67c-59.13,0-106.99-5.69-106.99-12.67
		c0-7,47.86-12.64,106.99-12.64C181.93,240.25,229.83,245.89,229.83,252.89z"/>
	<g id="XMLID_5408_">
		<g id="XMLID_5535_">
			<path id="XMLID_5556_" class="st3" d="M238.85,241.87c0-0.86,0.18-1.62,0.55-2.28c0.37-0.65,0.85-1.19,1.44-1.63
				c0.59-0.43,1.28-0.76,2.05-0.97c0.77-0.21,1.55-0.32,2.34-0.32c0.79,0,1.57,0.11,2.34,0.33c0.77,0.22,1.45,0.55,2.05,0.98
				c0.59,0.43,1.07,0.97,1.44,1.62c0.37,0.65,0.55,1.4,0.55,2.26v5.65c0,0.87-0.18,1.62-0.55,2.27c-0.37,0.65-0.85,1.18-1.44,1.62
				c-0.59,0.43-1.28,0.76-2.05,0.98c-0.77,0.22-1.55,0.33-2.34,0.33c-0.79,0-1.57-0.11-2.34-0.32c-0.77-0.21-1.45-0.53-2.05-0.97
				c-0.59-0.43-1.07-0.98-1.44-1.63c-0.37-0.65-0.55-1.41-0.55-2.28V241.87z M242.06,247.52c0,0.34,0.09,0.63,0.27,0.87
				c0.18,0.24,0.42,0.44,0.71,0.61c0.29,0.16,0.63,0.28,1.01,0.36c0.38,0.08,0.77,0.12,1.16,0.12c0.4,0,0.78-0.04,1.15-0.13
				c0.37-0.09,0.71-0.21,1.01-0.37c0.3-0.16,0.54-0.36,0.71-0.6c0.18-0.24,0.26-0.52,0.26-0.85v-5.65c0-0.34-0.09-0.63-0.28-0.88
				c-0.18-0.25-0.42-0.45-0.71-0.62c-0.29-0.16-0.63-0.28-1.01-0.36c-0.38-0.08-0.77-0.12-1.17-0.12c-0.4,0-0.78,0.04-1.16,0.13
				c-0.37,0.09-0.71,0.21-1,0.37c-0.29,0.16-0.53,0.37-0.71,0.62c-0.18,0.25-0.27,0.53-0.27,0.86V247.52z"/>
			<path id="XMLID_5554_" class="st3" d="M257.82,240.86c0.65,0,1.27,0.08,1.86,0.23c0.59,0.15,1.12,0.4,1.58,0.73
				c0.46,0.33,0.83,0.76,1.11,1.29c0.28,0.53,0.42,1.16,0.42,1.91v7.46h-3.04v-7.35c0-0.53-0.18-0.91-0.54-1.15
				c-0.36-0.24-0.76-0.36-1.2-0.36c-0.47,0-0.89,0.1-1.25,0.31v8.55h-3.06v-10.62c0.63-0.31,1.3-0.55,2-0.73
				C256.42,240.94,257.12,240.86,257.82,240.86z"/>
			<path id="XMLID_5552_" class="st3" d="M269.19,252.69c-0.73,0-1.37-0.11-1.9-0.33c-0.53-0.22-0.98-0.52-1.32-0.9
				c-0.34-0.38-0.6-0.83-0.77-1.34c-0.17-0.51-0.25-1.06-0.25-1.65V236.9h3.06v11.57c0,0.43,0.15,0.79,0.44,1.1
				c0.29,0.31,0.75,0.46,1.39,0.46v2.62c-0.12,0.01-0.23,0.03-0.33,0.03C269.4,252.68,269.3,252.69,269.19,252.69z"/>
			<path id="XMLID_5543_" class="st3" d="M272.65,236.48c0.53,0,0.97,0.18,1.34,0.55c0.37,0.37,0.55,0.81,0.55,1.34
				c0,0.54-0.18,1-0.55,1.36c-0.37,0.37-0.81,0.55-1.34,0.55c-0.53,0-0.97-0.18-1.33-0.55c-0.36-0.37-0.54-0.82-0.54-1.36
				c0-0.53,0.18-0.97,0.54-1.34C271.67,236.66,272.12,236.48,272.65,236.48z M274.23,252.47h-3.12V241.1h3.12V252.47z"/>
			<path id="XMLID_5541_" class="st3" d="M280.69,240.86c0.65,0,1.27,0.08,1.86,0.23c0.59,0.15,1.12,0.4,1.58,0.73
				c0.46,0.33,0.83,0.76,1.11,1.29c0.28,0.53,0.42,1.16,0.42,1.91v7.46h-3.04v-7.35c0-0.53-0.18-0.91-0.54-1.15
				c-0.36-0.24-0.76-0.36-1.2-0.36c-0.47,0-0.89,0.1-1.25,0.31v8.55h-3.06v-10.62c0.63-0.31,1.3-0.55,2-0.73
				C279.29,240.94,279.99,240.86,280.69,240.86z"/>
			<path id="XMLID_5536_" class="st3" d="M292.22,252.69c-0.57,0-1.13-0.08-1.68-0.25c-0.55-0.17-1.04-0.42-1.47-0.76
				c-0.43-0.34-0.78-0.76-1.04-1.26c-0.26-0.51-0.4-1.1-0.4-1.77v-3.76c0-0.69,0.14-1.29,0.41-1.79c0.27-0.51,0.62-0.92,1.06-1.25
				c0.43-0.33,0.93-0.57,1.49-0.74c0.56-0.16,1.12-0.24,1.69-0.24c0.56,0,1.1,0.07,1.63,0.22c0.53,0.15,1,0.38,1.41,0.69
				c0.41,0.32,0.74,0.72,0.99,1.21c0.25,0.49,0.37,1.08,0.37,1.77v3.34h-5.96v0.51c0,0.44,0.18,0.77,0.53,1
				c0.35,0.23,0.75,0.34,1.19,0.34c0.35,0,0.69-0.07,1.02-0.21c0.33-0.14,0.58-0.36,0.76-0.65l2,1.45c-0.22,0.41-0.49,0.75-0.8,1.02
				c-0.32,0.27-0.65,0.49-1.01,0.66c-0.36,0.17-0.73,0.29-1.1,0.36C292.91,252.65,292.56,252.69,292.22,252.69z M293.78,244.79
				c0-0.4-0.15-0.69-0.46-0.89c-0.31-0.2-0.65-0.3-1.03-0.3c-0.4,0-0.76,0.1-1.09,0.3c-0.33,0.2-0.49,0.5-0.49,0.91v1.01h3.08
				V244.79z"/>
		</g>
		<path id="XMLID_5534_" class="st3" d="M177.98,64.63H67.73c-9.75,0-17.66,7.9-17.66,17.66v152.8c0,9.75,7.92,17.65,17.66,17.65
			h94.4l16.47-0.06c9.47-0.34,17.04-8.06,17.04-17.6V82.29C195.64,72.53,187.74,64.63,177.98,64.63"/>
		<rect id="XMLID_5533_" x="58.28" y="81.96" class="st4" width="129.14" height="145.78"/>
		<path id="XMLID_5532_" class="st5" d="M130.32,240.25c0,4.12-3.33,7.46-7.47,7.46c-4.12,0-7.46-3.34-7.46-7.46
			c0-4.13,3.34-7.46,7.46-7.46C126.99,232.79,130.32,236.11,130.32,240.25"/>
		<g id="XMLID_5522_">
			<path id="XMLID_5530_" class="st3" d="M314.11,48.24c-0.42-0.51-1.04-0.77-1.86-0.77c-1.67,0-2.5,1.01-2.5,3.03v3.29h-4.57v-2.98
				c0-2.49,0.62-4.4,1.85-5.73c1.23-1.33,3.01-2,5.35-2c2.34,0,4.13,0.67,5.35,2c1.23,1.33,1.85,3.24,1.85,5.73
				c0,1.72-0.3,3.31-0.86,4.76c-0.57,1.45-1.25,2.7-2.04,3.75c-0.79,1.05-1.82,2.27-3.08,3.64c-1.26,1.4-2.18,2.54-2.77,3.42
				c-0.58,0.88-0.87,1.79-0.87,2.72c0,0.3,0.01,0.51,0.04,0.66h9.13v4.39h-13.95v-3.77c0-1.43,0.22-2.71,0.66-3.84
				c0.44-1.12,0.98-2.11,1.62-2.96c0.65-0.85,1.5-1.85,2.55-2.98c1.09-1.2,1.93-2.2,2.54-3.01c0.62-0.8,1.14-1.76,1.56-2.87
				c0.43-1.11,0.64-2.36,0.64-3.73C314.75,49.67,314.54,48.76,314.11,48.24z"/>
			<path id="XMLID_5527_" class="st3" d="M324.05,45.1c1.26-1.34,3.07-2.02,5.44-2.02s4.18,0.68,5.44,2.02
				c1.26,1.35,1.89,3.25,1.89,5.71v15.97c0,2.46-0.63,4.36-1.89,5.71c-1.25,1.34-3.07,2.02-5.44,2.02s-4.18-0.68-5.44-2.02
				c-1.26-1.35-1.89-3.25-1.89-5.71V50.81C322.16,48.35,322.79,46.45,324.05,45.1z M329.49,70.12c1.67,0,2.5-1.01,2.5-3.03V50.5
				c0-2.02-0.83-3.03-2.5-3.03c-1.67,0-2.5,1.01-2.5,3.03v16.59C326.99,69.11,327.82,70.12,329.49,70.12z"/>
			<path id="XMLID_5525_" class="st3" d="M348.87,48.24c-0.43-0.51-1.05-0.77-1.87-0.77c-1.67,0-2.5,1.01-2.5,3.03v3.29h-4.56v-2.98
				c0-2.49,0.61-4.4,1.84-5.73c1.22-1.33,3.01-2,5.35-2s4.13,0.67,5.35,2c1.23,1.33,1.84,3.24,1.84,5.73c0,1.72-0.29,3.31-0.85,4.76
				c-0.57,1.45-1.26,2.7-2.04,3.75c-0.79,1.05-1.82,2.27-3.07,3.64c-1.26,1.4-2.18,2.54-2.77,3.42c-0.59,0.88-0.88,1.79-0.88,2.72
				c0,0.3,0.02,0.51,0.05,0.66h9.12v4.39h-13.95v-3.77c0-1.43,0.22-2.71,0.66-3.84c0.44-1.12,0.98-2.11,1.63-2.96
				c0.64-0.85,1.49-1.85,2.55-2.98c1.08-1.2,1.93-2.2,2.54-3.01c0.61-0.8,1.13-1.76,1.56-2.87c0.42-1.11,0.63-2.36,0.63-3.73
				C349.5,49.67,349.29,48.76,348.87,48.24z"/>
			<path id="XMLID_5523_" class="st3" d="M360.44,46.8c0.69-0.34,1.2-0.77,1.54-1.3c0.33-0.53,0.66-1.21,0.98-2.06h3.24v30.71h-4.82
				V50.72h-3.73v-3.42C358.83,47.31,359.76,47.14,360.44,46.8z"/>
		</g>
		<path id="XMLID_5521_" class="st6" d="M167.61,146.92v58.79c0,2.08-1.69,3.77-3.77,3.77H84.47c-2.08,0-3.78-1.69-3.78-3.77v-79.37
			c0-2.08,1.7-3.78,3.78-3.78h67.22l4.46-5.75H84.47c-5.25,0-9.52,4.27-9.52,9.52v79.37c0,5.25,4.27,9.52,9.52,9.52h79.37
			c5.25,0,9.52-4.27,9.52-9.52v-66.23L167.61,146.92z"/>
		<path id="XMLID_5520_" class="st3" d="M181.06,123.76c1.57-1.73,2.53-4.01,2.53-6.52c0-5.37-4.35-9.72-9.71-9.72
			c-2.98,0-5.64,1.33-7.41,3.44l0-0.01l-35.4,45.67l-17.28-19.53l-0.01,0.01c-1.78-2.01-4.37-3.28-7.27-3.28
			c-5.36,0-9.72,4.35-9.72,9.72c0,2.44,0.9,4.65,2.38,6.36l0,0l21.31,24.01c2.37,3.52,6.4,5.85,10.98,5.85c4.81,0,9-2.57,11.31-6.41
			h0L181.06,123.76z"/>
		<g id="XMLID_5409_">
			<polygon id="XMLID_5519_" class="st3" points="237.63,64.86 222.03,64.86 222.03,69.1 222.03,100.09 226.31,100.09 226.31,69.1 
				237.63,69.1 			"/>
			<polygon id="XMLID_5518_" class="st3" points="366.67,243.09 377.96,243.09 382.23,243.09 382.23,238.86 382.23,211.52 
				377.96,211.52 377.96,238.86 366.67,238.86 			"/>
			<g id="XMLID_5500_">
				<path id="XMLID_5516_" class="st6" d="M248.99,95.32v4.35h-6.57v8.93h8.27v4.36h-13.06V82.48h13.06v4.35h-8.27v8.49H248.99z"/>
				<path id="XMLID_5514_" class="st6" d="M257.91,112.96h-4.31V82.48h6.01l4.92,18.25V82.48h4.27v30.48h-4.92l-5.97-22.08V112.96z"
					/>
				<path id="XMLID_5512_" class="st6" d="M286.14,105.64c0,2.47-0.62,4.36-1.83,5.68c-1.22,1.32-2.99,1.98-5.32,1.98
					c-2.32,0-4.09-0.66-5.31-1.98c-1.23-1.32-1.83-3.21-1.83-5.68V89.79c0-2.47,0.61-4.36,1.83-5.69c1.21-1.32,2.98-1.98,5.31-1.98
					c2.32,0,4.09,0.66,5.32,1.98c1.21,1.33,1.83,3.22,1.83,5.69v2.96h-4.54v-3.26c0-2.01-0.82-3-2.48-3c-1.66,0-2.49,1-2.49,3v16.46
					c0,1.97,0.83,2.96,2.49,2.96c1.65,0,2.48-0.98,2.48-2.96v-4.36h4.54V105.64z"/>
				<path id="XMLID_5510_" class="st6" d="M293.62,105.99c0,1.97,0.83,2.96,2.48,2.96c1.65,0,2.48-0.99,2.48-2.96V82.48h4.53v23.21
					c0,2.47-0.61,4.36-1.83,5.68c-1.21,1.32-2.99,1.98-5.31,1.98c-2.33,0-4.09-0.66-5.31-1.98c-1.22-1.32-1.83-3.21-1.83-5.68V82.48
					h4.79V105.99z"/>
				<path id="XMLID_5508_" class="st6" d="M317.75,95.32v4.35h-6.58v8.93h8.27v4.36h-13.06V82.48h13.06v4.35h-8.27v8.49H317.75z"/>
				<path id="XMLID_5506_" class="st6" d="M323.58,84.1c1.19-1.32,2.95-1.98,5.27-1.98c2.33,0,4.08,0.66,5.27,1.98
					c1.19,1.33,1.78,3.22,1.78,5.69v0.96h-4.53v-1.26c0-1.05-0.2-1.81-0.61-2.29c-0.41-0.48-1-0.71-1.79-0.71
					c-0.78,0-1.37,0.24-1.78,0.71c-0.41,0.48-0.61,1.24-0.61,2.29c0,1.27,0.34,2.39,1.02,3.35c0.68,0.96,1.71,2.05,3.07,3.27
					c1.13,1.04,2.05,1.97,2.74,2.77c0.7,0.8,1.29,1.76,1.79,2.9c0.49,1.13,0.74,2.42,0.74,3.87c0,2.47-0.61,4.36-1.83,5.68
					c-1.22,1.32-2.99,1.98-5.31,1.98c-2.33,0-4.1-0.66-5.31-1.98c-1.22-1.32-1.83-3.21-1.83-5.68v-1.87h4.52v2.18
					c0,1.97,0.83,2.96,2.49,2.96c1.65,0,2.48-0.98,2.48-2.96c0-1.28-0.34-2.4-1.02-3.36c-0.68-0.95-1.71-2.05-3.08-3.27
					c-1.13-1.04-2.05-1.96-2.74-2.76c-0.7-0.8-1.29-1.76-1.78-2.9c-0.5-1.13-0.74-2.41-0.74-3.87
					C321.8,87.32,322.39,85.43,323.58,84.1z"/>
				<path id="XMLID_5504_" class="st6" d="M352.11,82.48v4.35h-5.01v26.13h-4.79V86.83h-5.01v-4.35H352.11z"/>
				<path id="XMLID_5501_" class="st6" d="M363.21,112.96l-0.83-5.53h-5.87l-0.84,5.53h-4.4l4.88-30.48h7.01l4.87,30.48H363.21z
					 M361.74,103.29l-2.31-15.42l-2.31,15.42H361.74z"/>
			</g>
			<g id="XMLID_5480_">
				<path id="XMLID_5498_" class="st6" d="M242.03,151.93h-4.4v-31.15h6.13l5.03,18.64v-18.64h4.36v31.15h-5.03l-6.09-22.56V151.93z
					"/>
				<path id="XMLID_5495_" class="st6" d="M267.57,151.93l-0.84-5.65h-6.01l-0.84,5.65h-4.5l4.99-31.15h7.16l4.98,31.15H267.57z
					 M266.06,142.05l-2.36-15.75l-2.36,15.75H266.06z"/>
				<path id="XMLID_5493_" class="st6" d="M288.93,144.45c0,2.52-0.63,4.46-1.87,5.81c-1.25,1.35-3.05,2.03-5.43,2.03
					c-2.37,0-4.18-0.68-5.42-2.03c-1.24-1.35-1.87-3.29-1.87-5.81v-16.19c0-2.52,0.63-4.46,1.87-5.81c1.24-1.35,3.06-2.02,5.42-2.02
					c2.38,0,4.19,0.67,5.43,2.02c1.24,1.35,1.87,3.29,1.87,5.81v3.02h-4.63v-3.34c0-2.05-0.84-3.08-2.53-3.08
					c-1.69,0-2.54,1.03-2.54,3.08v16.82c0,2.02,0.85,3.03,2.54,3.03c1.69,0,2.53-1.01,2.53-3.03v-4.44h4.63V144.45z"/>
				<path id="XMLID_5491_" class="st6" d="M296.81,120.78v31.15h-4.9v-31.15H296.81z"/>
				<path id="XMLID_5488_" class="st6" d="M301.88,122.47c1.28-1.36,3.11-2.04,5.52-2.04c2.4,0,4.25,0.68,5.52,2.04
					c1.27,1.36,1.91,3.3,1.91,5.79v16.19c0,2.5-0.64,4.43-1.91,5.79c-1.27,1.37-3.12,2.05-5.52,2.05c-2.4,0-4.24-0.68-5.52-2.05
					c-1.27-1.36-1.91-3.29-1.91-5.79v-16.19C299.97,125.76,300.6,123.83,301.88,122.47z M307.4,147.84c1.69,0,2.54-1.03,2.54-3.08
					v-16.82c0-2.05-0.85-3.08-2.54-3.08c-1.69,0-2.54,1.03-2.54,3.08v16.82C304.86,146.8,305.7,147.84,307.4,147.84z"/>
				<path id="XMLID_5486_" class="st6" d="M322.35,151.93h-4.41v-31.15h6.14l5.03,18.64v-18.64h4.36v31.15h-5.03l-6.1-22.56V151.93z
					"/>
				<path id="XMLID_5483_" class="st6" d="M347.89,151.93l-0.84-5.65h-6.01l-0.85,5.65h-4.49l4.98-31.15h7.16l4.98,31.15H347.89z
					 M346.38,142.05l-2.36-15.75l-2.36,15.75H346.38z"/>
				<path id="XMLID_5481_" class="st6" d="M359.99,120.78v26.7h8.05v4.45H355.1v-31.15H359.99z"/>
			</g>
			<g id="XMLID_5454_">
				<path id="XMLID_5478_" class="st6" d="M246.17,202.19v3.4h-4.81v9.79h-3.73v-23.73h9.86v3.39h-6.14v7.14H246.17z"/>
				<path id="XMLID_5476_" class="st6" d="M253.02,191.65v23.73h-3.72v-23.73H253.02z"/>
				<path id="XMLID_5474_" class="st6" d="M259.05,215.38h-3.36v-23.73h4.67l3.83,14.21v-14.21h3.32v23.73h-3.83l-4.64-17.19V215.38
					z"/>
				<path id="XMLID_5471_" class="st6" d="M278.5,215.38l-0.65-4.3h-4.57l-0.65,4.3h-3.42l3.8-23.73h5.46l3.8,23.73H278.5z
					 M277.34,207.85l-1.8-11.99l-1.8,11.99H277.34z"/>
				<path id="XMLID_5469_" class="st6" d="M287.31,215.38h-3.36v-23.73h4.68l3.83,14.21v-14.21h3.32v23.73h-3.84l-4.64-17.19V215.38
					z"/>
				<path id="XMLID_5467_" class="st6" d="M309.28,209.69c0,1.91-0.48,3.38-1.43,4.41c-0.94,1.02-2.33,1.55-4.14,1.55
					c-1.8,0-3.19-0.53-4.14-1.55c-0.94-1.03-1.42-2.5-1.42-4.41v-12.35c0-1.91,0.48-3.39,1.42-4.42c0.95-1.02,2.34-1.54,4.14-1.54
					c1.81,0,3.19,0.52,4.14,1.54c0.95,1.03,1.43,2.5,1.43,4.42v2.31h-3.53v-2.54c0-1.56-0.65-2.34-1.93-2.34
					c-1.28,0-1.93,0.77-1.93,2.34v12.8c0,1.54,0.65,2.31,1.93,2.31c1.29,0,1.93-0.77,1.93-2.31v-3.38h3.53V209.69z"/>
				<path id="XMLID_5465_" class="st6" d="M315.27,191.65v23.73h-3.73v-23.73H315.27z"/>
				<path id="XMLID_5463_" class="st6" d="M326.83,201.65v3.38h-5.11v6.95h6.43v3.4h-10.17v-23.73h10.17v3.39h-6.43v6.61H326.83z"/>
				<path id="XMLID_5460_" class="st6" d="M337.98,214.29c-0.04-0.33-0.07-0.95-0.07-1.83v-3.73c0-1.08-0.19-1.86-0.57-2.33
					c-0.38-0.46-1.01-0.69-1.86-0.69h-1.29v9.66h-3.73v-23.73h5.63c1.91,0,3.32,0.45,4.2,1.34c0.88,0.89,1.32,2.28,1.32,4.12v1.86
					c0,2.45-0.82,4.04-2.45,4.82c0.89,0.36,1.52,0.96,1.9,1.81c0.39,0.85,0.57,1.93,0.57,3.23v3.66c0,0.68,0.03,1.23,0.08,1.65
					c0.04,0.42,0.15,0.83,0.32,1.24h-3.78C338.12,215,338.03,214.63,337.98,214.29z M334.18,202.32h1.47c0.74,0,1.3-0.18,1.67-0.57
					c0.37-0.38,0.56-1.02,0.56-1.93v-2.34c0-0.86-0.16-1.48-0.46-1.85c-0.3-0.4-0.78-0.58-1.44-0.58h-1.8V202.32z"/>
				<path id="XMLID_5457_" class="st6" d="M345.23,192.93c0.97-1.03,2.37-1.56,4.21-1.56c1.83,0,3.23,0.53,4.2,1.56
					c0.98,1.04,1.47,2.52,1.47,4.41v12.35c0,1.88-0.49,3.36-1.47,4.39c-0.96,1.04-2.37,1.56-4.2,1.56c-1.83,0-3.24-0.53-4.21-1.56
					c-0.97-1.03-1.46-2.51-1.46-4.39v-12.35C343.78,195.45,344.26,193.98,345.23,192.93z M349.44,212.25c1.28,0,1.93-0.77,1.93-2.33
					v-12.8c0-1.56-0.65-2.34-1.93-2.34c-1.29,0-1.93,0.77-1.93,2.34v12.8C347.51,211.48,348.15,212.25,349.44,212.25z"/>
				<path id="XMLID_5455_" class="st6" d="M358.41,192.92c0.93-1.02,2.3-1.54,4.1-1.54c1.81,0,3.18,0.52,4.1,1.54
					c0.93,1.03,1.39,2.5,1.39,4.42v0.75h-3.52v-0.98c0-0.82-0.16-1.41-0.48-1.79c-0.32-0.37-0.78-0.55-1.39-0.55
					c-0.61,0-1.08,0.18-1.4,0.55c-0.31,0.38-0.47,0.97-0.47,1.79c0,0.99,0.27,1.86,0.8,2.6c0.53,0.75,1.33,1.6,2.39,2.55
					c0.88,0.81,1.59,1.53,2.13,2.15c0.54,0.62,1.01,1.37,1.39,2.26c0.39,0.87,0.58,1.89,0.58,3.03c0,1.91-0.48,3.38-1.43,4.41
					c-0.95,1.02-2.33,1.55-4.13,1.55c-1.81,0-3.18-0.53-4.13-1.55c-0.96-1.03-1.43-2.5-1.43-4.41v-1.47h3.52v1.7
					c0,1.54,0.65,2.31,1.94,2.31c1.29,0,1.93-0.77,1.93-2.31c0-0.99-0.27-1.86-0.8-2.61c-0.53-0.75-1.33-1.59-2.39-2.54
					c-0.88-0.82-1.59-1.54-2.14-2.15c-0.54-0.62-1-1.37-1.39-2.26c-0.38-0.87-0.57-1.88-0.57-3.02
					C357.03,195.43,357.49,193.96,358.41,192.92z"/>
			</g>
			<g id="XMLID_5428_">
				<path id="XMLID_5451_" class="st6" d="M243.37,159.42c1.81,0,3.16,0.49,4.06,1.46c0.91,0.96,1.36,2.39,1.36,4.26v11.69
					c0,1.87-0.45,3.29-1.36,4.26c-0.9,0.97-2.26,1.46-4.06,1.46h-5.75v-23.13H243.37z M241.26,179.25h2.05
					c0.59,0,1.06-0.18,1.37-0.52c0.32-0.36,0.48-0.92,0.48-1.72v-12.02c0-0.8-0.16-1.37-0.48-1.72c-0.32-0.36-0.78-0.53-1.37-0.53
					h-2.05V179.25z"/>
				<path id="XMLID_5449_" class="st6" d="M259.73,169.17v3.3h-4.99v6.78h6.28v3.31h-9.91v-23.13h9.91v3.31h-6.28v6.44H259.73z"/>
				<path id="XMLID_5447_" class="st6" d="M269.27,160.66c0.91-1,2.24-1.51,4-1.51c1.76,0,3.09,0.5,3.99,1.51
					c0.9,1,1.36,2.44,1.36,4.32v0.73h-3.43v-0.96c0-0.79-0.15-1.37-0.46-1.73c-0.31-0.36-0.77-0.55-1.36-0.55
					c-0.6,0-1.04,0.18-1.35,0.55c-0.31,0.36-0.47,0.94-0.47,1.73c0,0.97,0.26,1.82,0.78,2.54c0.51,0.73,1.29,1.56,2.33,2.49
					c0.86,0.79,1.56,1.49,2.08,2.1c0.52,0.6,0.98,1.34,1.35,2.2c0.37,0.86,0.56,1.84,0.56,2.94c0,1.88-0.46,3.31-1.39,4.31
					c-0.92,1-2.26,1.51-4.03,1.51c-1.76,0-3.11-0.5-4.03-1.51c-0.93-1-1.39-2.44-1.39-4.31v-1.41h3.44v1.65
					c0,1.5,0.63,2.24,1.88,2.24c1.26,0,1.89-0.74,1.89-2.24c0-0.96-0.26-1.82-0.78-2.54c-0.52-0.73-1.29-1.56-2.33-2.48
					c-0.86-0.8-1.54-1.49-2.08-2.1c-0.53-0.6-0.98-1.34-1.35-2.2c-0.38-0.86-0.57-1.83-0.57-2.94
					C267.91,163.1,268.37,161.66,269.27,160.66z"/>
				<path id="XMLID_5445_" class="st6" d="M289.36,169.17v3.3h-4.99v6.78h6.28v3.31h-9.91v-23.13h9.91v3.31h-6.28v6.44H289.36z"/>
				<path id="XMLID_5442_" class="st6" d="M300.23,181.49c-0.05-0.33-0.06-0.92-0.06-1.78v-3.63c0-1.06-0.19-1.81-0.57-2.27
					c-0.37-0.45-0.97-0.68-1.82-0.68h-1.25v9.42h-3.63v-23.13h5.48c1.88,0,3.24,0.44,4.1,1.31c0.86,0.87,1.29,2.21,1.29,4.01v1.82
					c0,2.38-0.79,3.94-2.38,4.69c0.86,0.35,1.48,0.94,1.85,1.77c0.38,0.82,0.57,1.88,0.57,3.16v3.56c0,0.66,0.02,1.2,0.07,1.6
					c0.04,0.41,0.15,0.81,0.33,1.21h-3.7C300.36,182.17,300.27,181.83,300.23,181.49z M296.53,169.83h1.42
					c0.73,0,1.27-0.19,1.63-0.57c0.36-0.37,0.54-1,0.54-1.88v-2.28c0-0.84-0.14-1.45-0.44-1.82c-0.29-0.37-0.76-0.56-1.4-0.56h-1.75
					V169.83z"/>
				<path id="XMLID_5440_" class="st6" d="M314.36,159.42h3.34l-3.57,23.13h-5.41l-3.57-23.13h3.66l2.77,18.86L314.36,159.42z"/>
				<path id="XMLID_5438_" class="st6" d="M323.02,159.42v23.13h-3.64v-23.13H323.02z"/>
				<path id="XMLID_5436_" class="st6" d="M336.2,177c0,1.88-0.46,3.31-1.38,4.31c-0.92,1-2.27,1.51-4.03,1.51
					c-1.76,0-3.11-0.5-4.03-1.51c-0.92-1-1.38-2.44-1.38-4.31v-12.02c0-1.87,0.46-3.31,1.38-4.32c0.92-1,2.27-1.51,4.03-1.51
					c1.77,0,3.11,0.5,4.03,1.51c0.92,1,1.38,2.44,1.38,4.32v2.25h-3.43v-2.48c0-1.51-0.63-2.28-1.89-2.28
					c-1.25,0-1.88,0.76-1.88,2.28v12.49c0,1.5,0.63,2.24,1.88,2.24c1.26,0,1.89-0.74,1.89-2.24v-3.3h3.43V177z"/>
				<path id="XMLID_5434_" class="st6" d="M342.05,159.42v23.13h-3.63v-23.13H342.05z"/>
				<path id="XMLID_5431_" class="st6" d="M345.81,160.67c0.95-1,2.31-1.52,4.1-1.52c1.79,0,3.16,0.51,4.1,1.52
					c0.94,1.02,1.42,2.45,1.42,4.31V177c0,1.85-0.48,3.28-1.42,4.3c-0.95,1.01-2.31,1.52-4.1,1.52c-1.78,0-3.15-0.51-4.1-1.52
					c-0.95-1.02-1.42-2.45-1.42-4.3v-12.02C344.39,163.13,344.87,161.7,345.81,160.67z M349.91,179.51c1.26,0,1.89-0.76,1.89-2.28
					v-12.49c0-1.51-0.63-2.28-1.89-2.28c-1.25,0-1.88,0.76-1.88,2.28v12.49C348.02,178.75,348.65,179.51,349.91,179.51z"/>
				<path id="XMLID_5429_" class="st6" d="M358.67,160.66c0.9-1,2.24-1.51,4-1.51c1.76,0,3.09,0.5,4,1.51c0.9,1,1.35,2.44,1.35,4.32
					v0.73h-3.43v-0.96c0-0.79-0.15-1.37-0.46-1.73c-0.31-0.36-0.76-0.55-1.36-0.55c-0.59,0-1.04,0.18-1.35,0.55
					c-0.31,0.36-0.46,0.94-0.46,1.73c0,0.97,0.26,1.82,0.77,2.54c0.52,0.73,1.3,1.56,2.33,2.49c0.86,0.79,1.55,1.49,2.08,2.1
					c0.53,0.6,0.98,1.34,1.36,2.2c0.37,0.86,0.56,1.84,0.56,2.94c0,1.88-0.46,3.31-1.38,4.31c-0.92,1-2.27,1.51-4.03,1.51
					c-1.76,0-3.1-0.5-4.03-1.51c-0.92-1-1.39-2.44-1.39-4.31v-1.41h3.44v1.65c0,1.5,0.63,2.24,1.88,2.24c1.26,0,1.88-0.74,1.88-2.24
					c0-0.96-0.26-1.82-0.77-2.54c-0.52-0.73-1.3-1.56-2.33-2.48c-0.86-0.8-1.55-1.49-2.08-2.1c-0.53-0.6-0.98-1.34-1.35-2.2
					c-0.38-0.86-0.57-1.83-0.57-2.94C357.31,163.1,357.77,161.66,358.67,160.66z"/>
			</g>
			<g id="XMLID_5410_">
				<rect id="XMLID_5427_" x="262.69" y="225.06" class="st7" width="6.57" height="4.48"/>
				<rect id="XMLID_5426_" x="250.28" y="225.06" class="st7" width="6.62" height="4.48"/>
				<rect id="XMLID_5425_" x="237.91" y="225.06" class="st7" width="6.57" height="4.48"/>
				<rect id="XMLID_5424_" x="299.86" y="225.06" class="st7" width="6.56" height="4.48"/>
				<rect id="XMLID_5423_" x="287.42" y="225.06" class="st7" width="6.58" height="4.48"/>
				<rect id="XMLID_5422_" x="275.07" y="225.06" class="st7" width="6.57" height="4.48"/>
				<rect id="XMLID_5419_" x="336.96" y="223.76" class="st8" width="6.58" height="7.09"/>
				<rect id="XMLID_5418_" x="324.59" y="225.06" class="st7" width="6.57" height="4.48"/>
				<rect id="XMLID_5417_" x="312.22" y="225.06" class="st7" width="6.57" height="4.48"/>
				<rect id="XMLID_5414_" x="349.38" y="223.76" class="st9" width="6.57" height="7.09"/>
				<rect id="XMLID_5411_" x="361.75" y="223.76" class="st10" width="6.58" height="7.09"/>
			</g>
		</g>
	</g>
</g>
<g id="XMLID_11677_">
	<path id="XMLID_11678_" class="st6" d="M147.33,272.62l4.38,24.14h-5.52l-0.84-5.54h-8.1l-2.23,5.54h-5.31l10.28-24.14H147.33z
		 M138.99,286.87h5.69l-0.52-3.37c-0.52-3.34-0.79-5.1-0.94-7.23h-0.14c-0.67,2.07-1.43,4.03-2.67,7.09L138.99,286.87z"/>
	<path id="XMLID_11681_" class="st6" d="M172.6,283.64l-1.61,13.12h-5.21l1.49-12.09c0.25-2.07-0.55-3.1-2.31-3.1
		c-1.24,0-2.8,0.93-3.61,2.13l-1.6,13.05h-5.21l3.21-26.1h5.21l-1.06,8.61h0.14c1.24-1.14,3.15-2.1,5.4-2.1
		C171.22,277.17,173.13,279.27,172.6,283.64z"/>
	<path id="XMLID_11683_" class="st6" d="M178.13,277.3h5.21l-2.39,19.45h-5.21L178.13,277.3z M180.42,275.55l-2.41-2.27l6.99-5.23
		l4.19,2.65L180.42,275.55z"/>
	<path id="XMLID_11686_" class="st6" d="M209.32,270.66h5.17l-3.21,26.1h-4.07l-0.63-1.58h-0.14c-0.62,0.55-2.37,1.89-4.99,1.89
		c-4.1,0-6.77-2.69-5.99-9.02c1.01-8.19,5.75-10.85,9.85-10.85c1.83,0,2.56,0.24,3.16,0.41L209.32,270.66z M206.92,291.32l1.13-9.23
		c-0.44-0.38-1.54-0.69-2.5-0.69c-2.14,0-4.11,0.93-4.76,6.2c-0.47,3.79,0.72,5.37,2.72,5.37
		C204.96,292.97,206.08,292.31,206.92,291.32z"/>
	<path id="XMLID_11689_" class="st6" d="M216.13,287.12c0.74-5.99,3.77-10.16,10.21-10.16c6.72,0,8.34,3.99,7.6,10.02
		c-0.74,5.99-3.8,10.16-10.25,10.16C217,297.14,215.39,293.14,216.13,287.12z M224.36,293.07c2.66,0,3.72-1.93,4.21-5.89
		c0.5-4.03-0.24-6.16-2.93-6.16c-2.38,0-3.65,1.93-4.14,5.89C221,290.94,221.74,293.07,224.36,293.07z"/>
	<path id="XMLID_11692_" class="st6" d="M252.84,296.76h-5.21l1.52-12.36c0.25-2-0.54-3.17-2.3-3.17c-1.52,0-2.87,0.9-3.63,2.31
		l-1.63,13.22h-5.21l2.39-19.45h4.07l0.81,1.82h0.14c1.35-1.41,3.49-2.31,5.52-2.31c3.79,0,5.71,2.1,5.17,6.47L252.84,296.76z"/>
	<path id="XMLID_11694_" class="st6" d="M271.35,270.66h5.17l-3.21,26.1h-4.07l-0.63-1.58h-0.14c-0.62,0.55-2.37,1.89-4.99,1.89
		c-4.1,0-6.77-2.69-5.99-9.02c1.01-8.19,5.75-10.85,9.85-10.85c1.83,0,2.56,0.24,3.16,0.41L271.35,270.66z M268.95,291.32l1.13-9.23
		c-0.44-0.38-1.54-0.69-2.5-0.69c-2.14,0-4.11,0.93-4.76,6.2c-0.47,3.79,0.72,5.37,2.72,5.37
		C266.99,292.97,268.1,292.31,268.95,291.32z"/>
	<path id="XMLID_11697_" class="st6" d="M293.6,294.97c-1.67,1.24-3.68,2.17-7.4,2.17c-6.14,0-8.85-3.44-8.03-10.16
		c0.77-6.3,4.75-10.05,10.37-10.05c4.97,0,7.44,3.13,6.86,7.88c-0.12,1-0.28,1.96-0.67,3.48h-11.62c-0.31,3.06,0.86,4.75,4.17,4.75
		c2.1,0,3.67-1,4.49-1.76L293.6,294.97z M283.64,284.84h6.86l0.09-0.72c0.19-2.13-0.63-3.27-2.67-3.27
		C285.58,280.85,283.99,282.57,283.64,284.84z"/>
</g>
<g id="XMLID_11648_">
	<path id="XMLID_11649_" class="st6" d="M100.41,320.18l1.14-9.26h-2.48l0.4-3.24l2.64-1.03l2.36-4.58h3.31l-0.6,4.89h4.86
		l-0.49,3.96h-4.86l-1.16,9.4c-0.17,1.34,0.51,2.03,1.78,2.03c0.83,0,1.93-0.28,2.76-0.86l0.87,3.89c-0.71,0.48-2.32,1.21-5.56,1.21
		C102.03,326.59,99.83,324.9,100.41,320.18z"/>
	<path id="XMLID_11651_" class="st6" d="M128.69,324.63c-1.67,1.24-3.68,2.17-7.4,2.17c-6.14,0-8.85-3.44-8.03-10.16
		c0.77-6.3,4.75-10.05,10.37-10.05c4.97,0,7.44,3.13,6.86,7.88c-0.12,1-0.28,1.96-0.67,3.48H118.2c-0.31,3.06,0.86,4.75,4.17,4.75
		c2.1,0,3.67-1,4.49-1.76L128.69,324.63z M118.73,314.5h6.86l0.09-0.72c0.19-2.13-0.63-3.27-2.67-3.27
		C120.66,310.51,119.07,312.23,118.73,314.5z"/>
	<path id="XMLID_11654_" class="st6" d="M158.03,324.63c-1.67,1.24-3.68,2.17-7.4,2.17c-6.14,0-8.85-3.44-8.03-10.16
		c0.77-6.3,4.75-10.05,10.37-10.05c4.97,0,7.44,3.13,6.86,7.88c-0.12,1-0.28,1.96-0.67,3.48h-11.62c-0.31,3.06,0.86,4.75,4.17,4.75
		c2.1,0,3.67-1,4.49-1.76L158.03,324.63z M148.07,314.5h6.86l0.09-0.72c0.19-2.13-0.63-3.27-2.67-3.27
		C150.01,310.51,148.42,312.23,148.07,314.5z"/>
	<path id="XMLID_11657_" class="st6" d="M178.57,326.42h-5.21l1.52-12.36c0.25-2-0.54-3.17-2.3-3.17c-1.52,0-2.87,0.9-3.63,2.31
		l-1.63,13.22h-5.21l2.39-19.45h4.07l0.81,1.82h0.14c1.35-1.41,3.49-2.31,5.52-2.31c3.79,0,5.71,2.1,5.17,6.47L178.57,326.42z"/>
	<path id="XMLID_11659_" class="st6" d="M193.59,306.58c3.14,0,5.28,1.07,6.38,2.82l-3.89,3.31c-0.22-0.48-1.05-1.86-3.01-1.86
		c-2.24,0-3.86,1.38-4.38,5.61c-0.51,4.13,0.46,6.06,2.91,6.06c1.72,0,2.95-1.03,3.54-1.89l2.93,3.06c-1.29,1.48-3.35,3.1-7.48,3.1
		c-5.28,0-8.13-2.89-7.26-9.92C184.17,310.03,188.31,306.58,193.59,306.58z"/>
	<path id="XMLID_11661_" class="st6" d="M202.89,306.96h5.21l-1.55,12.57c-0.26,2.13,0.64,3.24,2.39,3.24
		c2.28,0,3.31-1.72,3.67-2.34l1.66-13.46h5.21l-2.39,19.45h-4.41l-0.5-1.79h-0.14c-1.31,1.38-2.96,2.17-5.4,2.17
		c-4.17,0-5.91-2.17-5.34-6.78L202.89,306.96z"/>
	<path id="XMLID_11663_" class="st6" d="M237.37,324.63c-1.67,1.24-3.68,2.17-7.4,2.17c-6.14,0-8.85-3.44-8.03-10.16
		c0.77-6.3,4.75-10.05,10.37-10.05c4.97,0,7.44,3.13,6.86,7.88c-0.12,1-0.28,1.96-0.67,3.48h-11.62c-0.31,3.06,0.86,4.75,4.17,4.75
		c2.1,0,3.67-1,4.49-1.76L237.37,324.63z M227.4,314.5h6.86l0.09-0.72c0.19-2.13-0.63-3.27-2.67-3.27
		C229.34,310.51,227.75,312.23,227.4,314.5z"/>
	<path id="XMLID_11666_" class="st6" d="M257.9,326.42h-5.21l1.52-12.36c0.25-2-0.54-3.17-2.3-3.17c-1.52,0-2.87,0.9-3.63,2.31
		l-1.63,13.22h-5.21l2.39-19.45h4.07l0.81,1.82h0.14c1.35-1.41,3.49-2.31,5.52-2.31c3.79,0,5.71,2.1,5.17,6.47L257.9,326.42z"/>
	<path id="XMLID_11668_" class="st6" d="M263.7,320.18l1.14-9.26h-2.48l0.4-3.24l2.64-1.03l2.36-4.58h3.31l-0.6,4.89h4.86
		l-0.49,3.96h-4.86l-1.16,9.4c-0.17,1.34,0.51,2.03,1.78,2.03c0.83,0,1.93-0.28,2.76-0.86l0.87,3.89c-0.71,0.48-2.32,1.21-5.56,1.21
		C265.33,326.59,263.12,324.9,263.7,320.18z"/>
	<path id="XMLID_11670_" class="st6" d="M290.14,311.85c-0.67-0.14-1.53-0.17-2.22-0.17c-1.62,0-3.49,0.62-4.74,1.55l-1.62,13.19
		h-5.17l2.39-19.45h4.07l0.72,2.86h0.14c1.03-1.89,2.89-3.27,5.44-3.27c0.55,0,1.2,0.07,1.63,0.17L290.14,311.85z"/>
	<path id="XMLID_11672_" class="st6" d="M306.43,324.63c-1.67,1.24-3.68,2.17-7.4,2.17c-6.14,0-8.85-3.44-8.03-10.16
		c0.77-6.3,4.75-10.05,10.37-10.05c4.97,0,7.44,3.13,6.86,7.88c-0.12,1-0.28,1.96-0.67,3.48h-11.62c-0.31,3.06,0.86,4.75,4.17,4.75
		c2.1,0,3.67-1,4.49-1.76L306.43,324.63z M296.46,314.5h6.86l0.09-0.72c0.19-2.13-0.63-3.27-2.67-3.27
		C298.4,310.51,296.81,312.23,296.46,314.5z"/>
	<path id="XMLID_11675_" class="st6" d="M311.45,312.64c0.39-3.17,3.46-6.03,7.98-6.03c3.52,0,5.61,1.24,6.7,2.72l-3.75,3.27
		c-0.59-0.79-1.81-1.82-3.6-1.82c-1.17,0-2.01,0.62-2.12,1.51c-0.36,2.93,8.94,1.89,8.14,8.4c-0.32,2.58-2.78,6.06-8.43,6.06
		c-4.28,0-6.64-1.79-7.57-2.93l3.54-3.58c0.74,1,2.46,2.41,4.81,2.41c1.62,0,2.33-0.76,2.44-1.65
		C319.94,318.19,310.65,319.12,311.45,312.64z"/>
</g>
<g id="XMLID_5365_">
	<path id="XMLID_5366_" class="st6" d="M129.03,353.23l-0.94,17.24H121l3.26-17.24H129.03z M127.2,349.29
		c-2.01,0-3.34-1.52-3.09-3.56c0.23-1.86,1.93-3.37,3.94-3.37c1.9,0,3.23,1.52,3,3.37C130.8,347.78,129.1,349.29,127.2,349.29z"/>
	<path id="XMLID_11621_" class="st6" d="M155.14,345.47c-0.61,4.96-3.75,9.24-11.53,9.24h-2.2l-1.16,9.43h-5.8l3.27-26.55h9.1
		C152.2,337.59,155.86,339.6,155.14,345.47z M142.91,342.47l-0.92,7.5h1.9c3.87,0,4.91-1.67,5.16-3.71
		c0.32-2.61-0.82-3.79-3.78-3.79H142.91z"/>
	<path id="XMLID_11624_" class="st6" d="M172.36,349.45l-1.05,8.56c-0.15,1.21,0.24,1.74,1.27,1.74h0.61l-0.48,3.94
		c-0.98,0.57-1.98,0.72-2.93,0.72c-2.05,0-3.1-0.98-3.58-2.31h-0.15c-0.93,1.06-2.68,2.39-5.76,2.39c-4.17,0-5.99-2.84-5.61-5.91
		c0.61-4.92,5.32-7.2,12.03-6.86l0.21-1.67c0.29-2.39-0.95-3.11-2.69-3.11c-2.05,0-3.29,1.17-3.98,2.42l-3.69-2.99
		c0.98-1.17,3.45-4.02,8.19-4.02C170.2,342.36,173,344.26,172.36,349.45z M166.22,355.58c-3.72-0.27-5.69,0.61-5.92,2.46
		c-0.15,1.21,0.58,2.08,2.06,2.08c1.4,0,2.73-0.64,3.49-1.52L166.22,355.58z"/>
	<path id="XMLID_11627_" class="st6" d="M191.04,348.12c-0.74-0.15-1.68-0.19-2.44-0.19c-1.78,0-3.84,0.68-5.22,1.7l-1.78,14.51
		h-5.69l2.63-21.4h4.48l0.79,3.14h0.15c1.13-2.08,3.17-3.6,5.98-3.6c0.61,0,1.32,0.08,1.8,0.19L191.04,348.12z"/>
	<path id="XMLID_11629_" class="st6" d="M193.74,357.29l1.25-10.19h-2.73l0.44-3.56l2.91-1.14l2.59-5.04h3.64l-0.66,5.38h5.35
		l-0.54,4.36h-5.35l-1.27,10.34c-0.18,1.48,0.56,2.23,1.96,2.23c0.91,0,2.12-0.3,3.04-0.95l0.95,4.28
		c-0.79,0.53-2.55,1.33-6.12,1.33C195.53,364.33,193.1,362.48,193.74,357.29z"/>
	<path id="XMLID_11631_" class="st6" d="M210.47,342.74h5.73l-2.63,21.4h-5.73L210.47,342.74z M214.35,333.76
		c1.93,0,3.2,1.44,2.96,3.41c-0.22,1.78-1.84,3.22-3.77,3.22c-1.82,0-3.09-1.44-2.87-3.22C210.91,335.2,212.53,333.76,214.35,333.76
		z"/>
	<path id="XMLID_11634_" class="st6" d="M230.33,342.32c3.45,0,5.81,1.17,7.01,3.11l-4.28,3.64c-0.24-0.53-1.15-2.05-3.31-2.05
		c-2.47,0-4.25,1.52-4.82,6.17c-0.56,4.55,0.51,6.67,3.2,6.67c1.9,0,3.25-1.14,3.9-2.08l3.23,3.37c-1.41,1.63-3.68,3.41-8.23,3.41
		c-5.8,0-8.94-3.18-7.99-10.91C219.96,346.11,224.52,342.32,230.33,342.32z"/>
	<path id="XMLID_11636_" class="st6" d="M240.78,342.74h5.73l-2.63,21.4h-5.73L240.78,342.74z M244.66,333.76
		c1.93,0,3.2,1.44,2.96,3.41c-0.22,1.78-1.84,3.22-3.77,3.22c-1.82,0-3.09-1.44-2.87-3.22C241.22,335.2,242.83,333.76,244.66,333.76
		z"/>
	<path id="XMLID_11639_" class="st6" d="M258.17,364.26c-1.25,0-2.26-0.11-3.26-0.34l-0.93,7.58h-5.69l3.54-28.75h4.21l0.99,1.82
		h0.15c0.91-0.95,2.7-2.2,5.39-2.2c4.7,0,7.49,3.52,6.67,10.19C268.27,360.43,263.32,364.26,258.17,364.26z M258.05,359.64
		c2.77,0,4.67-1.59,5.29-6.59c0.52-4.24-1.04-6.06-3.28-6.06c-1.29,0-2.54,0.61-3.35,1.63l-1.28,10.38
		C256.21,359.48,257.48,359.64,258.05,359.64z"/>
	<path id="XMLID_11642_" class="st6" d="M289.04,349.45l-1.05,8.56c-0.15,1.21,0.24,1.74,1.27,1.74h0.61l-0.48,3.94
		c-0.98,0.57-1.98,0.72-2.93,0.72c-2.05,0-3.1-0.98-3.58-2.31h-0.15c-0.93,1.06-2.68,2.39-5.76,2.39c-4.17,0-5.99-2.84-5.61-5.91
		c0.61-4.92,5.32-7.2,12.03-6.86l0.21-1.67c0.29-2.39-0.95-3.11-2.69-3.11c-2.05,0-3.29,1.17-3.98,2.42l-3.69-2.99
		c0.98-1.17,3.45-4.02,8.19-4.02C286.88,342.36,289.68,344.26,289.04,349.45z M282.9,355.58c-3.72-0.27-5.69,0.61-5.92,2.46
		c-0.15,1.21,0.58,2.08,2.06,2.08c1.4,0,2.73-0.64,3.49-1.52L282.9,355.58z"/>
	<path id="XMLID_11645_" class="st6" d="M298.11,357.48c2.01,0,3.34,1.52,3.09,3.56c-0.23,1.86-1.93,3.37-3.94,3.37
		c-1.9,0-3.23-1.52-3-3.37C294.51,358.99,296.21,357.48,298.11,357.48z M296.35,353.54l0.98-17.24h6.87l-3.22,17.24H296.35z"/>
</g>
<g id="XMLID_4_">
	<path id="XMLID_5_" class="st6" d="M85.82,421.39v7.14h-1.48v-6.92c0-1.29-0.68-2.28-2.09-2.28c-1.42,0-2.39,0.93-2.75,1.82v7.37
		h-1.48v-14.42h1.48v5.22h0.08c0.3-0.36,1.23-1.31,2.98-1.31C84.55,418.02,85.82,419.28,85.82,421.39z"/>
	<path id="XMLID_7_" class="st6" d="M89.24,425.77v-6.38H87.7v-0.95l1.54-0.28l0.46-2.68h1.01v2.72h2.85v1.2H90.7v6.31
		c0,1.16,0.59,1.63,1.5,1.63c0.84,0,1.31-0.19,1.58-0.36l0.42,1.18c-0.4,0.23-1.08,0.47-2.32,0.47
		C90.17,428.62,89.24,427.73,89.24,425.77z"/>
	<path id="XMLID_9_" class="st6" d="M96.48,425.77v-6.38h-1.54v-0.95l1.54-0.28l0.46-2.68h1.01v2.72h2.85v1.2h-2.85v6.31
		c0,1.16,0.59,1.63,1.5,1.63c0.84,0,1.31-0.19,1.58-0.36l0.42,1.18c-0.4,0.23-1.08,0.47-2.32,0.47
		C97.41,428.62,96.48,427.73,96.48,425.77z"/>
	<path id="XMLID_11_" class="st6" d="M106.49,428.55c-0.53,0-1.12-0.06-1.63-0.17v3.84h-1.46v-14.02h1.1l0.32,1.04h0.08
		c0.49-0.66,1.37-1.23,2.68-1.23c2.36,0,3.84,1.58,3.84,4.94C111.41,426.55,109.46,428.55,106.49,428.55z M106.42,427.24
		c2.34,0,3.5-1.37,3.5-4.12c0-2.91-1.31-3.84-2.68-3.84c-1.27,0-2.01,0.78-2.37,1.44v6.29C105.3,427.16,106,427.24,106.42,427.24z"
		/>
	<path id="XMLID_14_" class="st6" d="M113.66,420.89c0-1.48,1.27-2.87,3.53-2.87c1.23,0,2.39,0.44,3.02,1.1l-0.95,1.03
		c-0.47-0.49-1.31-0.84-2.11-0.84c-1.41,0-2.03,0.7-2.03,1.54c0,2.32,5.22,1.39,5.22,4.9c0,1.42-1.2,2.94-3.69,2.94
		c-1.71,0-3-0.65-3.65-1.31l0.91-1.1c0.63,0.65,1.61,1.14,2.81,1.14c1.44,0,2.15-0.76,2.15-1.63
		C118.88,423.46,113.66,424.39,113.66,420.89z"/>
	<path id="XMLID_16_" class="st6" d="M123.54,418.46c0.66,0,1.18,0.53,1.18,1.2c0,0.65-0.51,1.16-1.18,1.16
		c-0.65,0-1.16-0.51-1.16-1.16C122.38,418.99,122.89,418.46,123.54,418.46z M123.54,426.06c0.66,0,1.18,0.51,1.18,1.2
		c0,0.63-0.51,1.14-1.18,1.14c-0.65,0-1.16-0.51-1.16-1.14C122.38,426.57,122.89,426.06,123.54,426.06z"/>
	<path id="XMLID_19_" class="st6" d="M132.1,414.66l-5.17,16.43h-1.33l5.15-16.43H132.1z"/>
	<path id="XMLID_21_" class="st6" d="M138.53,414.66l-5.17,16.43h-1.33l5.15-16.43H138.53z"/>
	<path id="XMLID_23_" class="st6" d="M147.3,427.73c-0.68,0.51-1.77,0.93-3.25,0.93c-2.94,0-4.54-1.5-4.54-5.36
		c0-3.74,2.09-5.28,4.39-5.28c2.45,0,3.76,1.6,3.76,4.05c0,0.51-0.04,1.12-0.11,1.79h-6.57c0.13,2.54,1.2,3.51,3.27,3.51
		c1.03,0,1.96-0.4,2.39-0.78L147.3,427.73z M141,422.64h5.19c0.02-0.27,0.02-0.49,0.02-0.63c0-1.75-0.76-2.72-2.43-2.72
		C142.42,419.3,141.13,420.15,141,422.64z"/>
	<path id="XMLID_26_" class="st6" d="M158.19,428.53h-1.48v-6.78c0-1.58-0.78-2.45-2.22-2.45c-1.27,0-2.26,0.84-2.62,1.84v7.39
		h-1.48v-10.33h1.12l0.3,1.08h0.08c0.28-0.36,1.33-1.29,2.94-1.29c2.07,0,3.31,1.12,3.36,3.42V428.53z"/>
	<path id="XMLID_28_" class="st6" d="M165.13,418.02c1.65,0,2.56,0.65,2.94,1.08l-0.99,1.08c-0.42-0.44-1.03-0.85-2.03-0.85
		c-1.67,0-2.79,1.1-2.79,3.99c0,2.94,1.06,4.07,2.79,4.07c0.95,0,1.6-0.34,2.01-0.82l0.91,1.03c-0.42,0.47-1.29,1.1-3.06,1.1
		c-2.53,0-4.18-1.46-4.18-5.19C160.74,419.71,162.6,418.02,165.13,418.02z"/>
	<path id="XMLID_30_" class="st6" d="M170.2,418.19h1.48v6.76c0,1.69,0.72,2.51,2.26,2.51c1.48,0,2.56-0.86,2.6-2.49v-6.78h1.48
		v10.33h-1.16l-0.28-1.08h-0.08c-0.29,0.4-1.22,1.29-2.95,1.29c-2.13,0-3.3-1.12-3.36-3.48V418.19z"/>
	<path id="XMLID_32_" class="st6" d="M188.42,427.73c-0.68,0.51-1.77,0.93-3.25,0.93c-2.94,0-4.54-1.5-4.54-5.36
		c0-3.74,2.09-5.28,4.39-5.28c2.45,0,3.76,1.6,3.76,4.05c0,0.51-0.04,1.12-0.11,1.79h-6.57c0.13,2.54,1.2,3.51,3.27,3.51
		c1.03,0,1.96-0.4,2.39-0.78L188.42,427.73z M182.11,422.64h5.19c0.02-0.27,0.02-0.49,0.02-0.63c0-1.75-0.76-2.72-2.43-2.72
		C183.54,419.3,182.24,420.15,182.11,422.64z"/>
	<path id="XMLID_35_" class="st6" d="M191.14,420.89c0-1.48,1.27-2.87,3.53-2.87c1.24,0,2.39,0.44,3.02,1.1l-0.95,1.03
		c-0.48-0.49-1.31-0.84-2.11-0.84c-1.41,0-2.03,0.7-2.03,1.54c0,2.32,5.22,1.39,5.22,4.9c0,1.42-1.2,2.94-3.69,2.94
		c-1.71,0-3-0.65-3.65-1.31l0.91-1.1c0.63,0.65,1.62,1.14,2.81,1.14c1.44,0,2.15-0.76,2.15-1.63
		C196.36,423.46,191.14,424.39,191.14,420.89z"/>
	<path id="XMLID_37_" class="st6" d="M200.83,425.77v-6.38h-1.54v-0.95l1.54-0.28l0.46-2.68h1.01v2.72h2.85v1.2h-2.85v6.31
		c0,1.16,0.59,1.63,1.5,1.63c0.84,0,1.31-0.19,1.58-0.36l0.42,1.18c-0.4,0.23-1.08,0.47-2.32,0.47
		C201.76,428.62,200.83,427.73,200.83,425.77z"/>
	<path id="XMLID_39_" class="st6" d="M214.45,421.18v4.67c0,0.93,0.28,1.56,1.01,1.56h0.27v1.08c-0.13,0.08-0.34,0.11-0.53,0.11
		c-1.03,0-1.63-0.55-1.88-1.25h-0.08c-0.49,0.57-1.33,1.39-3.08,1.39c-1.92,0-2.98-1.35-2.98-2.75c0-2.28,2.24-3.4,5.91-3.34v-1.12
		c0-1.69-0.82-2.18-2.18-2.18c-1.39,0-2.05,0.76-2.36,1.25l-1.08-0.86c0.36-0.49,1.33-1.69,3.48-1.69
		C213.14,418.04,214.45,419.01,214.45,421.18z M213.08,423.8c-2.49-0.09-4.45,0.51-4.45,2.07c0,0.91,0.67,1.65,1.86,1.65
		c1.18,0,2.11-0.7,2.58-1.41V423.8z"/>
	<path id="XMLID_42_" class="st6" d="M218.9,427.24l1.94-0.04h3.7v1.33h-7.18l-0.25-1.33c0.49-0.46,4.16-4.58,4.37-4.88
		c0.91-1.04,1.29-1.92,1.29-2.98c0-1.24-0.8-2-2-2c-1.21,0-1.75,0.87-1.94,1.79l-1.5-0.34c0.32-1.48,1.5-2.74,3.55-2.74
		c2.13,0,3.42,1.25,3.42,3.13c0,1.41-0.63,2.7-1.77,4.05c-0.11,0.13-1.63,1.86-1.79,2.01c-0.11,0.11-1.71,1.8-1.86,1.92V427.24z"/>
	<path id="XMLID_44_" class="st6" d="M226.53,422.41c0-4.33,1.37-6.44,4.16-6.44c2.81,0,4.05,2,4.05,6.31
		c0,4.33-1.37,6.42-4.18,6.42C227.73,428.7,226.53,426.71,226.53,422.41z M230.66,427.37c1.92,0,2.56-1.6,2.56-4.96
		s-0.74-5.11-2.64-5.11c-1.9,0-2.53,1.62-2.53,4.98C228.05,425.66,228.79,427.37,230.66,427.37z"/>
	<path id="XMLID_47_" class="st6" d="M238.16,427.24l1.94-0.04h3.7v1.33h-7.18l-0.25-1.33c0.49-0.46,4.16-4.58,4.37-4.88
		c0.91-1.04,1.29-1.92,1.29-2.98c0-1.24-0.8-2-2-2c-1.21,0-1.75,0.87-1.94,1.79l-1.5-0.34c0.32-1.48,1.5-2.74,3.55-2.74
		c2.13,0,3.42,1.25,3.42,3.13c0,1.41-0.63,2.7-1.77,4.05c-0.11,0.13-1.63,1.86-1.79,2.01c-0.11,0.11-1.71,1.8-1.86,1.92V427.24z"/>
	<path id="XMLID_49_" class="st6" d="M250.23,416.14v12.39h-1.46v-7.5l0.06-3.34h-0.08l-1.39,1.04l-1.46,1.01l-0.87-1.2l3.63-2.39
		H250.23z"/>
	<path id="XMLID_51_" class="st6" d="M254.58,426.19c0.67,0,1.18,0.51,1.18,1.2c0,0.63-0.51,1.14-1.18,1.14
		c-0.65,0-1.16-0.51-1.16-1.14C253.42,426.71,253.93,426.19,254.58,426.19z"/>
	<path id="XMLID_53_" class="st6" d="M264.97,421.18v4.67c0,0.93,0.28,1.56,1.01,1.56h0.27v1.08c-0.13,0.08-0.34,0.11-0.53,0.11
		c-1.03,0-1.63-0.55-1.88-1.25h-0.08c-0.49,0.57-1.33,1.39-3.08,1.39c-1.92,0-2.98-1.35-2.98-2.75c0-2.28,2.24-3.4,5.91-3.34v-1.12
		c0-1.69-0.82-2.18-2.18-2.18c-1.39,0-2.05,0.76-2.36,1.25l-1.08-0.86c0.36-0.49,1.33-1.69,3.48-1.69
		C263.66,418.04,264.97,419.01,264.97,421.18z M263.6,423.8c-2.49-0.09-4.45,0.51-4.45,2.07c0,0.91,0.67,1.65,1.86,1.65
		c1.18,0,2.11-0.7,2.58-1.41V423.8z"/>
	<path id="XMLID_56_" class="st6" d="M268.26,420.89c0-1.48,1.27-2.87,3.53-2.87c1.24,0,2.39,0.44,3.02,1.1l-0.95,1.03
		c-0.48-0.49-1.31-0.84-2.11-0.84c-1.41,0-2.03,0.7-2.03,1.54c0,2.32,5.22,1.39,5.22,4.9c0,1.42-1.2,2.94-3.68,2.94
		c-1.71,0-3-0.65-3.65-1.31l0.91-1.1c0.63,0.65,1.62,1.14,2.81,1.14c1.44,0,2.15-0.76,2.15-1.63
		C273.48,423.46,268.26,424.39,268.26,420.89z"/>
	<path id="XMLID_58_" class="st6" d="M285.09,415.73c-0.46-0.19-1.58-0.51-3.02-0.51c-1.69,0-2.28,0.59-2.28,1.82v1.16h6v10.33
		h-1.48v-9.18h-4.54v9.18h-1.48v-9.18h-1.71v-1.16h1.73v-1.16c0-1.94,1.23-3.08,3.91-3.08c1.41,0,2.74,0.3,3.27,0.59L285.09,415.73z
		"/>
	<path id="XMLID_60_" class="st6" d="M289.46,426.19c0.67,0,1.18,0.51,1.18,1.2c0,0.63-0.51,1.14-1.18,1.14
		c-0.65,0-1.16-0.51-1.16-1.14C288.3,426.71,288.82,426.19,289.46,426.19z"/>
	<path id="XMLID_62_" class="st6" d="M300.58,428.61c0,2.72-1.67,4.07-4.26,4.07c-1.96,0-2.98-0.68-3.4-1.1l0.86-1.18
		c0.51,0.51,1.33,0.97,2.72,0.97c1.88,0,2.64-0.91,2.64-2.75v-0.95h-0.08c-0.32,0.29-1.2,0.82-2.53,0.82
		c-2.13,0-3.93-1.33-3.93-4.84c0-3.31,1.62-5.53,5.04-5.53c1.31,0,2.32,0.23,2.94,0.53V428.61z M297.42,419.39
		c-2,0-3.33,1.31-3.33,4.05c0,2.96,1.37,3.74,2.83,3.74c0.82,0,1.69-0.36,2.18-1.01v-6.5C298.68,419.51,298.09,419.39,297.42,419.39
		z"/>
	<path id="XMLID_90_" class="st6" d="M303.18,423.38c0-3.19,1.2-5.38,4.33-5.38c3.15,0,4.24,2.13,4.24,5.28
		c0,3.19-1.22,5.41-4.35,5.41S303.18,426.55,303.18,423.38z M307.51,427.41c1.99,0,2.72-1.31,2.72-4.01c0-2.77-0.84-4.12-2.83-4.12
		c-1.96,0-2.7,1.31-2.7,3.99C304.7,426.04,305.54,427.41,307.51,427.41z"/>
	<path id="XMLID_93_" class="st6" d="M314.35,414.11h1.46v4.79h0.08c0.32-0.27,1.22-0.8,2.51-0.8c2.17,0,3.93,1.41,3.93,4.94
		c0,3.36-1.65,5.68-5.07,5.68c-1.29,0-2.28-0.23-2.91-0.55V414.11z M320.85,423.25c0-3-1.41-3.86-2.85-3.86
		c-0.82,0-1.69,0.38-2.17,1.03v6.72c0.4,0.17,1.01,0.29,1.65,0.29C319.5,427.43,320.85,426.04,320.85,423.25z"/>
	<path id="XMLID_96_" class="st6" d="M325.45,426.19c0.67,0,1.18,0.51,1.18,1.2c0,0.63-0.51,1.14-1.18,1.14
		c-0.65,0-1.16-0.51-1.16-1.14C324.29,426.71,324.8,426.19,325.45,426.19z"/>
	<path id="XMLID_98_" class="st6" d="M329.13,414.11h1.46v4.79h0.08c0.32-0.27,1.22-0.8,2.51-0.8c2.17,0,3.93,1.41,3.93,4.94
		c0,3.36-1.65,5.68-5.07,5.68c-1.29,0-2.28-0.23-2.91-0.55V414.11z M335.63,423.25c0-3-1.41-3.86-2.85-3.86
		c-0.82,0-1.69,0.38-2.17,1.03v6.72c0.4,0.17,1.01,0.29,1.65,0.29C334.28,427.43,335.63,426.04,335.63,423.25z"/>
	<path id="XMLID_101_" class="st6" d="M339.17,423.38c0-3.19,1.2-5.38,4.33-5.38c3.15,0,4.24,2.13,4.24,5.28
		c0,3.19-1.22,5.41-4.35,5.41S339.17,426.55,339.17,423.38z M343.5,427.41c1.99,0,2.72-1.31,2.72-4.01c0-2.77-0.84-4.12-2.83-4.12
		c-1.96,0-2.7,1.31-2.7,3.99C340.69,426.04,341.52,427.41,343.5,427.41z"/>
</g>
<g id="XMLID_109_">
	<path id="XMLID_255_" class="st6" d="M55.31,392.73l0.23-1.76c0.07-0.43,0.11-0.85,0.11-1.24c0-0.32-0.03-0.63-0.09-0.94l1.37-0.16
		c0.07,0.28,0.11,0.63,0.11,1.06c0,0.29-0.04,0.71-0.11,1.26l-0.97,6.88c-0.18,1.16-0.29,1.86-0.31,2.1s-0.04,0.44-0.04,0.62
		c0,0.23,0.06,0.4,0.18,0.5c0.12,0.11,0.32,0.16,0.61,0.16h0.34l-0.14,1.01c-0.24,0.11-0.55,0.16-0.94,0.16
		c-0.43,0-0.76-0.11-0.99-0.32c-0.23-0.21-0.36-0.49-0.4-0.83h-0.07c-0.26,0.37-0.64,0.68-1.12,0.92c-0.48,0.24-1.03,0.36-1.66,0.36
		c-0.96,0-1.71-0.3-2.26-0.9c-0.55-0.6-0.82-1.48-0.82-2.65c0-0.84,0.1-1.65,0.31-2.43c0.21-0.78,0.53-1.47,0.95-2.07
		c0.43-0.6,0.98-1.08,1.67-1.43s1.47-0.53,2.36-0.53C54.25,392.5,54.8,392.58,55.31,392.73z M54.32,399.64l0.83-5.62
		c-0.17-0.07-0.41-0.14-0.71-0.2c-0.31-0.06-0.58-0.09-0.84-0.09c-1.21,0-2.15,0.45-2.83,1.34c-0.67,0.89-1.01,2.18-1.01,3.84
		c0,0.84,0.18,1.45,0.54,1.83s0.84,0.57,1.44,0.57c0.3,0,0.63-0.06,0.98-0.2c0.35-0.13,0.68-0.34,0.96-0.62
		C53.98,400.22,54.19,399.93,54.32,399.64z"/>
	<path id="XMLID_258_" class="st6" d="M66.47,397.88h-6.35c-0.02,0.17-0.04,0.37-0.04,0.59c0,0.89,0.22,1.57,0.67,2.05
		c0.44,0.48,1.1,0.72,1.98,0.72c0.46,0,0.92-0.08,1.4-0.23c0.48-0.16,0.86-0.36,1.13-0.61l0.65,1.03c-0.36,0.29-0.83,0.53-1.4,0.72
		c-0.58,0.19-1.23,0.29-1.96,0.29c-1.25,0-2.19-0.35-2.83-1.04c-0.64-0.7-0.96-1.68-0.96-2.95c0-1,0.12-1.88,0.35-2.66
		c0.23-0.78,0.56-1.42,0.98-1.93c0.42-0.5,0.91-0.88,1.48-1.13c0.56-0.25,1.16-0.37,1.8-0.37c1.13,0,1.99,0.3,2.57,0.91
		c0.59,0.61,0.88,1.41,0.88,2.42c0,0.32-0.03,0.69-0.1,1.11S66.56,397.57,66.47,397.88z M63.34,393.56c-1.69,0-2.71,1.07-3.06,3.21
		h5.04c0.1-0.35,0.14-0.71,0.14-1.1C65.46,394.26,64.75,393.56,63.34,393.56z"/>
	<path id="XMLID_261_" class="st6" d="M70.25,388.79l1.39-0.16c0.07,0.28,0.11,0.63,0.11,1.06c0,0.29-0.04,0.71-0.11,1.26
		l-1.06,7.65c-0.16,1.04-0.23,1.67-0.23,1.89c0,0.48,0.27,0.72,0.81,0.72c0.24,0,0.52-0.04,0.83-0.13l-0.16,1.13
		c-0.11,0.05-0.27,0.09-0.48,0.13c-0.21,0.04-0.42,0.06-0.64,0.06c-0.54,0-0.97-0.14-1.29-0.43c-0.32-0.29-0.48-0.7-0.48-1.24
		c0-0.3,0.08-1.01,0.23-2.14l1.08-7.63c0.06-0.48,0.09-0.89,0.09-1.24C70.34,389.33,70.31,389.02,70.25,388.79z"/>
	<path id="XMLID_263_" class="st6" d="M80.58,400.18l2.23-0.13h2.75l-0.31,2.25h-7.6l-0.34-2.27c2.26-1.8,3.85-3.22,4.77-4.27
		c0.96-1.07,1.44-1.96,1.44-2.66c0-0.35-0.1-0.62-0.3-0.83c-0.2-0.2-0.45-0.31-0.77-0.31c-0.8,0-1.26,0.55-1.37,1.64l-2.66-0.63
		c0.17-0.72,0.45-1.32,0.84-1.81c0.39-0.49,0.87-0.85,1.45-1.11c0.58-0.25,1.25-0.38,2.02-0.38c0.55,0,1.05,0.08,1.5,0.24
		c0.45,0.16,0.83,0.39,1.13,0.68c0.31,0.29,0.54,0.63,0.7,1.02c0.16,0.39,0.24,0.81,0.24,1.27c0,1.07-0.47,2.19-1.4,3.37
		c-0.65,0.78-1.53,1.63-2.65,2.55c-0.4,0.32-0.96,0.76-1.69,1.3V400.18z"/>
	<path id="XMLID_265_" class="st6" d="M90.37,400.18l2.23-0.13h2.75l-0.31,2.25h-7.6l-0.34-2.27c2.26-1.8,3.85-3.22,4.77-4.27
		c0.96-1.07,1.44-1.96,1.44-2.66c0-0.35-0.1-0.62-0.3-0.83c-0.2-0.2-0.45-0.31-0.77-0.31c-0.8,0-1.26,0.55-1.37,1.64l-2.66-0.63
		c0.17-0.72,0.45-1.32,0.84-1.81c0.39-0.49,0.87-0.85,1.45-1.11c0.58-0.25,1.25-0.38,2.02-0.38c0.55,0,1.05,0.08,1.5,0.24
		c0.45,0.16,0.83,0.39,1.13,0.68c0.31,0.29,0.54,0.63,0.7,1.02c0.16,0.39,0.24,0.81,0.24,1.27c0,1.07-0.47,2.19-1.4,3.37
		c-0.65,0.78-1.53,1.63-2.65,2.55c-0.4,0.32-0.96,0.76-1.69,1.3V400.18z"/>
	<path id="XMLID_267_" class="st6" d="M109.27,392.73l0.23-1.76c0.07-0.43,0.11-0.85,0.11-1.24c0-0.32-0.03-0.63-0.09-0.94
		l1.37-0.16c0.07,0.28,0.11,0.63,0.11,1.06c0,0.29-0.04,0.71-0.11,1.26l-0.97,6.88c-0.18,1.16-0.29,1.86-0.31,2.1
		s-0.04,0.44-0.04,0.62c0,0.23,0.06,0.4,0.18,0.5c0.12,0.11,0.32,0.16,0.61,0.16h0.34l-0.14,1.01c-0.24,0.11-0.55,0.16-0.94,0.16
		c-0.43,0-0.76-0.11-0.99-0.32c-0.23-0.21-0.36-0.49-0.4-0.83h-0.07c-0.26,0.37-0.64,0.68-1.12,0.92c-0.48,0.24-1.03,0.36-1.66,0.36
		c-0.96,0-1.71-0.3-2.26-0.9s-0.82-1.48-0.82-2.65c0-0.84,0.1-1.65,0.31-2.43c0.21-0.78,0.53-1.47,0.95-2.07
		c0.43-0.6,0.98-1.08,1.67-1.43s1.47-0.53,2.36-0.53C108.21,392.5,108.77,392.58,109.27,392.73z M108.28,399.64l0.83-5.62
		c-0.17-0.07-0.41-0.14-0.71-0.2c-0.31-0.06-0.58-0.09-0.84-0.09c-1.21,0-2.15,0.45-2.83,1.34c-0.67,0.89-1.01,2.18-1.01,3.84
		c0,0.84,0.18,1.45,0.54,1.83s0.84,0.57,1.44,0.57c0.3,0,0.63-0.06,0.98-0.2c0.35-0.13,0.68-0.34,0.96-0.62
		C107.94,400.22,108.15,399.93,108.28,399.64z"/>
	<path id="XMLID_270_" class="st6" d="M120.43,397.88h-6.35c-0.02,0.17-0.04,0.37-0.04,0.59c0,0.89,0.22,1.57,0.67,2.05
		c0.44,0.48,1.1,0.72,1.98,0.72c0.46,0,0.92-0.08,1.4-0.23c0.48-0.16,0.86-0.36,1.13-0.61l0.65,1.03c-0.36,0.29-0.83,0.53-1.4,0.72
		c-0.58,0.19-1.23,0.29-1.96,0.29c-1.25,0-2.19-0.35-2.83-1.04c-0.64-0.7-0.96-1.68-0.96-2.95c0-1,0.12-1.88,0.35-2.66
		c0.23-0.78,0.56-1.42,0.98-1.93c0.42-0.5,0.91-0.88,1.48-1.13c0.56-0.25,1.16-0.37,1.8-0.37c1.13,0,1.99,0.3,2.57,0.91
		c0.59,0.61,0.88,1.41,0.88,2.42c0,0.32-0.03,0.69-0.1,1.11S120.53,397.57,120.43,397.88z M117.3,393.56
		c-1.69,0-2.71,1.07-3.06,3.21h5.04c0.1-0.35,0.14-0.71,0.14-1.1C119.42,394.26,118.71,393.56,117.3,393.56z"/>
	<path id="XMLID_273_" class="st6" d="M135.28,402.31h-2.72l0.67-4.77c0.01-0.07,0.03-0.17,0.04-0.3s0.07-0.49,0.15-1.09
		s0.13-1,0.13-1.21c0-0.25-0.08-0.45-0.25-0.6c-0.17-0.15-0.41-0.22-0.72-0.22c-0.64,0-1.16,0.2-1.58,0.6
		c-0.42,0.4-0.68,0.99-0.79,1.77l-0.79,5.81h-2.72l1.42-10.17h2.12l0.47,1.24h0.07c0.17-0.3,0.41-0.57,0.72-0.82
		c0.31-0.25,0.65-0.42,1.01-0.52c0.36-0.1,0.69-0.15,0.99-0.15c0.9,0,1.6,0.22,2.09,0.67c0.49,0.44,0.74,1.09,0.74,1.93
		c0,0.22-0.03,0.54-0.08,0.96c-0.05,0.42-0.12,0.86-0.19,1.32c-0.07,0.46-0.11,0.74-0.13,0.82L135.28,402.31z"/>
	<path id="XMLID_275_" class="st6" d="M147.3,395.85c0,0.94-0.11,1.81-0.32,2.63c-0.22,0.82-0.54,1.53-0.98,2.13
		c-0.44,0.61-1,1.08-1.67,1.41c-0.68,0.34-1.46,0.5-2.33,0.5c-0.66,0-1.26-0.1-1.79-0.29c-0.53-0.19-0.98-0.47-1.33-0.82
		s-0.62-0.77-0.8-1.25c-0.18-0.48-0.27-1-0.27-1.55c0-0.95,0.11-1.83,0.32-2.64c0.22-0.81,0.54-1.52,0.98-2.12s1-1.07,1.68-1.4
		s1.47-0.5,2.36-0.5c0.67,0,1.24,0.08,1.71,0.25c0.47,0.17,0.87,0.39,1.21,0.66s0.63,0.66,0.87,1.16
		C147.18,394.53,147.3,395.14,147.3,395.85z M140.57,398.46c0,0.62,0.13,1.1,0.39,1.44c0.26,0.34,0.64,0.5,1.14,0.5
		c0.32,0,0.62-0.08,0.89-0.25c0.27-0.17,0.52-0.42,0.74-0.75s0.41-0.8,0.58-1.41s0.24-1.27,0.24-1.96c0-0.62-0.13-1.1-0.4-1.44
		c-0.26-0.33-0.64-0.5-1.13-0.5c-0.32,0-0.62,0.08-0.89,0.25c-0.27,0.17-0.52,0.42-0.74,0.75c-0.22,0.33-0.41,0.8-0.58,1.41
		S140.57,397.76,140.57,398.46z"/>
	<path id="XMLID_278_" class="st6" d="M152.65,397.09l0.61-1.4c0.19-0.43,0.34-0.89,0.46-1.39c0.11-0.49,0.17-0.94,0.17-1.35
		c0-0.28-0.02-0.55-0.05-0.81h2.83c0.06,0.23,0.09,0.5,0.09,0.81c0,0.91-0.31,1.99-0.92,3.24l-2.92,6.12h-3.04l-2.03-10.17h2.79
		l0.83,4.95l0.14,3.04h0.07L152.65,397.09z"/>
	<path id="XMLID_280_" class="st6" d="M158.64,392.14h2.74l-0.68,4.75c-0.23,1.62-0.34,2.53-0.34,2.72c0,0.16,0.04,0.29,0.11,0.4
		c0.07,0.11,0.25,0.16,0.52,0.16h0.43l-0.27,1.93c-0.14,0.08-0.34,0.16-0.59,0.21c-0.25,0.06-0.52,0.09-0.79,0.09
		c-0.46,0-0.86-0.1-1.21-0.31c-0.35-0.21-0.6-0.49-0.74-0.85c-0.14-0.35-0.21-0.72-0.21-1.11c0-0.28,0.02-0.58,0.06-0.92
		s0.1-0.76,0.17-1.28c0.07-0.52,0.12-0.86,0.14-1.04L158.64,392.14z M161.96,389.29c0,0.5-0.17,0.92-0.5,1.25
		c-0.34,0.33-0.77,0.5-1.3,0.5c-0.4,0-0.73-0.13-0.99-0.38c-0.26-0.25-0.4-0.58-0.4-0.97c0-0.37,0.1-0.71,0.29-1.01
		c0.19-0.3,0.43-0.51,0.71-0.62c0.28-0.11,0.54-0.17,0.78-0.17c0.41,0,0.74,0.13,1.01,0.38S161.96,388.86,161.96,389.29z"/>
	<path id="XMLID_283_" class="st6" d="M171.59,398.1h-6.12l-0.02,0.4c0,0.38,0.08,0.72,0.25,1.02c0.17,0.29,0.41,0.52,0.71,0.67
		c0.31,0.15,0.69,0.22,1.16,0.22c0.52,0,1-0.08,1.44-0.24s0.86-0.42,1.26-0.78l1.17,1.78c-0.5,0.43-1.09,0.76-1.76,1
		c-0.67,0.23-1.51,0.35-2.52,0.35c-0.72,0-1.35-0.11-1.9-0.32c-0.55-0.21-1-0.51-1.35-0.9s-0.62-0.85-0.78-1.4
		c-0.17-0.54-0.25-1.14-0.25-1.8c0-0.92,0.13-1.77,0.38-2.54c0.25-0.77,0.61-1.42,1.08-1.96c0.47-0.54,1.03-0.95,1.68-1.23
		s1.37-0.42,2.13-0.42c0.47,0,0.94,0.06,1.41,0.17s0.9,0.31,1.28,0.59s0.69,0.65,0.93,1.1c0.24,0.45,0.36,0.99,0.36,1.61
		c0,0.37-0.05,0.82-0.15,1.34C171.87,397.28,171.74,397.72,171.59,398.1z M168.13,393.99c-0.46,0-0.86,0.1-1.21,0.31
		c-0.35,0.21-0.61,0.48-0.79,0.83s-0.31,0.7-0.38,1.04h3.71c0.02-0.08,0.05-0.23,0.09-0.43s0.05-0.35,0.05-0.45
		c0-0.41-0.13-0.73-0.38-0.95C168.98,394.11,168.61,393.99,168.13,393.99z"/>
	<path id="XMLID_290_" class="st6" d="M182.55,393.6h0.07c0.22-0.34,0.48-0.64,0.79-0.92c0.31-0.28,0.67-0.48,1.06-0.6
		s0.79-0.19,1.19-0.19c0.88,0,1.55,0.23,2.03,0.68c0.48,0.45,0.72,1.09,0.72,1.93c0,0.49-0.11,1.52-0.34,3.08l-0.65,4.73h-2.72
		l0.67-4.77c0.18-1.28,0.27-2.15,0.27-2.59c0-0.25-0.08-0.45-0.24-0.6c-0.16-0.15-0.39-0.22-0.69-0.22c-0.68,0-1.21,0.23-1.57,0.68
		c-0.37,0.46-0.62,1.2-0.75,2.23l-0.7,5.27h-2.72l0.65-4.77c0.01-0.07,0.03-0.17,0.04-0.3s0.07-0.49,0.15-1.09s0.13-1,0.13-1.21
		c0-0.25-0.08-0.45-0.24-0.6c-0.16-0.15-0.39-0.22-0.69-0.22c-0.62,0-1.13,0.2-1.52,0.59s-0.64,0.99-0.75,1.78l-0.79,5.81h-2.72
		l1.42-10.17h2.12l0.47,1.24h0.07c0.17-0.3,0.41-0.57,0.71-0.82c0.31-0.25,0.64-0.42,0.99-0.52c0.35-0.1,0.68-0.15,0.98-0.15
		c0.72,0,1.3,0.15,1.73,0.44S182.43,393.04,182.55,393.6z"/>
	<path id="XMLID_294_" class="st6" d="M189.91,401.79l1.53-10.8c0.01-0.1,0.04-0.4,0.07-0.9c0-0.48-0.04-0.88-0.11-1.19l2.65-0.29
		c0.1,0.3,0.14,0.71,0.14,1.24c0,0.4-0.02,0.76-0.07,1.08l-0.27,2.03h0.07c0.22-0.28,0.52-0.5,0.93-0.67
		c0.4-0.17,0.79-0.26,1.18-0.26c0.48,0,0.9,0.07,1.26,0.21c0.36,0.14,0.69,0.33,0.98,0.57c0.29,0.24,0.56,0.61,0.8,1.1
		c0.24,0.49,0.36,1.11,0.36,1.85c0,0.95-0.12,1.83-0.35,2.65s-0.6,1.53-1.09,2.14c-0.49,0.61-1.12,1.09-1.89,1.43
		c-0.77,0.34-1.66,0.51-2.66,0.51C191.96,402.49,190.78,402.25,189.91,401.79z M193.76,400.33c0.4,0,0.77-0.09,1.13-0.26
		s0.67-0.44,0.94-0.79c0.27-0.35,0.48-0.81,0.64-1.37c0.16-0.56,0.23-1.2,0.23-1.92c0-0.61-0.13-1.07-0.39-1.39
		c-0.26-0.31-0.62-0.47-1.09-0.47c-0.47,0-0.85,0.15-1.16,0.46c-0.31,0.31-0.5,0.7-0.57,1.18l-0.65,4.41
		c0.1,0.04,0.24,0.07,0.44,0.1C193.5,400.31,193.65,400.33,193.76,400.33z"/>
	<path id="XMLID_297_" class="st6" d="M206.49,394.57c-0.44,0-0.83,0.09-1.17,0.27c-0.34,0.18-0.58,0.43-0.75,0.74
		s-0.26,0.62-0.3,0.92l-0.79,5.81h-2.7l0.99-7.18l0.02-0.32c0-0.2-0.04-0.35-0.13-0.45c-0.08-0.1-0.22-0.14-0.41-0.14h-0.59
		l0.27-1.93c0.43-0.2,0.94-0.31,1.53-0.31c1.1,0,1.74,0.49,1.91,1.48h0.07c0.26-0.48,0.63-0.86,1.11-1.13
		c0.47-0.27,1.02-0.41,1.63-0.41c0.4,0,0.79,0.06,1.17,0.18l-0.4,2.75c-0.17-0.07-0.4-0.14-0.69-0.2
		C206.96,394.6,206.7,394.57,206.49,394.57z"/>
	<path id="XMLID_299_" class="st6" d="M216.69,398.1h-6.12l-0.02,0.4c0,0.38,0.08,0.72,0.25,1.02c0.17,0.29,0.41,0.52,0.71,0.67
		c0.31,0.15,0.69,0.22,1.16,0.22c0.52,0,1-0.08,1.44-0.24s0.86-0.42,1.26-0.78l1.17,1.78c-0.5,0.43-1.09,0.76-1.76,1
		c-0.67,0.23-1.51,0.35-2.52,0.35c-0.72,0-1.35-0.11-1.9-0.32c-0.55-0.21-1-0.51-1.35-0.9s-0.62-0.85-0.78-1.4
		c-0.17-0.54-0.25-1.14-0.25-1.8c0-0.92,0.13-1.77,0.38-2.54c0.25-0.77,0.61-1.42,1.08-1.96c0.47-0.54,1.03-0.95,1.68-1.23
		s1.37-0.42,2.13-0.42c0.47,0,0.94,0.06,1.41,0.17s0.9,0.31,1.28,0.59s0.69,0.65,0.93,1.1c0.24,0.45,0.36,0.99,0.36,1.61
		c0,0.37-0.05,0.82-0.15,1.34C216.98,397.28,216.85,397.72,216.69,398.1z M213.24,393.99c-0.46,0-0.86,0.1-1.21,0.31
		c-0.35,0.21-0.61,0.48-0.79,0.83s-0.31,0.7-0.38,1.04h3.71c0.02-0.08,0.05-0.23,0.09-0.43s0.05-0.35,0.05-0.45
		c0-0.41-0.13-0.73-0.38-0.95S213.72,393.99,213.24,393.99z"/>
	<path id="XMLID_302_" class="st6" d="M231.38,392.98c0,0.03-0.01,0.09-0.03,0.2c-0.02,0.11-0.13,0.85-0.33,2.24
		c-0.2,1.39-0.32,2.2-0.34,2.44c-0.14,1.04-0.23,1.69-0.26,1.93c-0.03,0.25-0.04,0.45-0.04,0.6c0,0.28,0.06,0.48,0.17,0.6
		c0.11,0.13,0.31,0.19,0.6,0.19l0.34-0.02l-0.14,1.01c-0.23,0.12-0.51,0.18-0.85,0.18c-0.22,0-0.43-0.04-0.64-0.13
		c-0.21-0.08-0.38-0.23-0.52-0.42c-0.14-0.2-0.23-0.42-0.26-0.68H229c-0.2,0.3-0.49,0.56-0.86,0.78c-0.37,0.22-0.71,0.37-1.04,0.44
		s-0.64,0.11-0.93,0.11c-0.94,0-1.66-0.3-2.19-0.9s-0.78-1.48-0.78-2.63c0-0.9,0.12-1.75,0.35-2.54c0.23-0.79,0.58-1.49,1.04-2.08
		s1.02-1.06,1.69-1.39c0.67-0.34,1.42-0.5,2.25-0.5c0.65,0,1.22,0.06,1.72,0.17C230.75,392.71,231.13,392.84,231.38,392.98z
		 M229.09,399.63l0.81-5.8c-0.34-0.14-0.81-0.22-1.42-0.22c-0.54,0-1.05,0.11-1.52,0.34c-0.47,0.23-0.88,0.56-1.23,1.01
		c-0.35,0.44-0.62,1-0.82,1.66s-0.3,1.4-0.3,2.21c0,0.55,0.08,1.01,0.23,1.38s0.37,0.64,0.65,0.81c0.28,0.17,0.63,0.26,1.04,0.26
		c0.26,0,0.57-0.06,0.91-0.17c0.34-0.11,0.67-0.31,0.98-0.59C228.72,400.24,228.95,399.94,229.09,399.63z"/>
	<path id="XMLID_305_" class="st6" d="M235.03,388.79l1.39-0.16c0.07,0.28,0.11,0.63,0.11,1.06c0,0.29-0.04,0.71-0.11,1.26
		l-1.06,7.65c-0.16,1.04-0.23,1.67-0.23,1.89c0,0.48,0.27,0.72,0.81,0.72c0.24,0,0.52-0.04,0.83-0.13l-0.16,1.13
		c-0.11,0.05-0.27,0.09-0.48,0.13c-0.21,0.04-0.42,0.06-0.64,0.06c-0.54,0-0.97-0.14-1.29-0.43c-0.32-0.29-0.48-0.7-0.48-1.24
		c0-0.3,0.08-1.01,0.23-2.14l1.08-7.63c0.06-0.48,0.09-0.89,0.09-1.24C235.12,389.33,235.09,389.02,235.03,388.79z"/>
	<path id="XMLID_307_" class="st6" d="M245.37,400.18l2.23-0.13h2.75l-0.31,2.25h-7.6l-0.34-2.27c2.26-1.8,3.85-3.22,4.77-4.27
		c0.96-1.07,1.44-1.96,1.44-2.66c0-0.35-0.1-0.62-0.3-0.83s-0.45-0.31-0.76-0.31c-0.8,0-1.26,0.55-1.37,1.64l-2.66-0.63
		c0.17-0.72,0.45-1.32,0.84-1.81c0.39-0.49,0.87-0.85,1.45-1.11c0.58-0.25,1.25-0.38,2.02-0.38c0.55,0,1.05,0.08,1.5,0.24
		s0.83,0.39,1.13,0.68c0.31,0.29,0.54,0.63,0.7,1.02c0.16,0.39,0.24,0.81,0.24,1.27c0,1.07-0.47,2.19-1.4,3.37
		c-0.65,0.78-1.53,1.63-2.65,2.55c-0.4,0.32-0.96,0.76-1.69,1.3V400.18z"/>
	<path id="XMLID_309_" class="st6" d="M255.16,400.18l2.23-0.13h2.75l-0.31,2.25h-7.6l-0.34-2.27c2.26-1.8,3.85-3.22,4.77-4.27
		c0.96-1.07,1.44-1.96,1.44-2.66c0-0.35-0.1-0.62-0.3-0.83c-0.2-0.2-0.45-0.31-0.77-0.31c-0.8,0-1.26,0.55-1.37,1.64l-2.66-0.63
		c0.17-0.72,0.45-1.32,0.84-1.81s0.87-0.85,1.45-1.11c0.58-0.25,1.25-0.38,2.02-0.38c0.55,0,1.05,0.08,1.5,0.24
		c0.45,0.16,0.83,0.39,1.13,0.68c0.3,0.29,0.54,0.63,0.7,1.02s0.24,0.81,0.24,1.27c0,1.07-0.47,2.19-1.4,3.37
		c-0.65,0.78-1.53,1.63-2.65,2.55c-0.4,0.32-0.96,0.76-1.69,1.3V400.18z"/>
	<path id="XMLID_311_" class="st6" d="M274.06,392.73l0.23-1.76c0.07-0.43,0.11-0.85,0.11-1.24c0-0.32-0.03-0.63-0.09-0.94
		l1.37-0.16c0.07,0.28,0.11,0.63,0.11,1.06c0,0.29-0.04,0.71-0.11,1.26l-0.97,6.88c-0.18,1.16-0.29,1.86-0.31,2.1
		c-0.03,0.23-0.04,0.44-0.04,0.62c0,0.23,0.06,0.4,0.18,0.5c0.12,0.11,0.32,0.16,0.61,0.16h0.34l-0.14,1.01
		c-0.24,0.11-0.55,0.16-0.94,0.16c-0.43,0-0.76-0.11-0.99-0.32c-0.23-0.21-0.36-0.49-0.4-0.83h-0.07c-0.26,0.37-0.64,0.68-1.12,0.92
		c-0.48,0.24-1.03,0.36-1.66,0.36c-0.96,0-1.71-0.3-2.26-0.9s-0.82-1.48-0.82-2.65c0-0.84,0.1-1.65,0.31-2.43
		c0.21-0.78,0.53-1.47,0.95-2.07c0.43-0.6,0.98-1.08,1.67-1.43s1.47-0.53,2.36-0.53C273,392.5,273.55,392.58,274.06,392.73z
		 M273.07,399.64l0.83-5.62c-0.17-0.07-0.41-0.14-0.71-0.2c-0.3-0.06-0.58-0.09-0.84-0.09c-1.21,0-2.15,0.45-2.83,1.34
		c-0.67,0.89-1.01,2.18-1.01,3.84c0,0.84,0.18,1.45,0.54,1.83c0.36,0.38,0.84,0.57,1.44,0.57c0.3,0,0.63-0.06,0.98-0.2
		c0.35-0.13,0.67-0.34,0.96-0.62C272.73,400.22,272.94,399.93,273.07,399.64z"/>
	<path id="XMLID_314_" class="st6" d="M285.22,397.88h-6.35c-0.02,0.17-0.04,0.37-0.04,0.59c0,0.89,0.22,1.57,0.67,2.05
		s1.1,0.72,1.98,0.72c0.46,0,0.92-0.08,1.4-0.23c0.48-0.16,0.86-0.36,1.13-0.61l0.65,1.03c-0.36,0.29-0.83,0.53-1.4,0.72
		c-0.58,0.19-1.23,0.29-1.96,0.29c-1.25,0-2.19-0.35-2.83-1.04c-0.64-0.7-0.96-1.68-0.96-2.95c0-1,0.12-1.88,0.35-2.66
		c0.23-0.78,0.56-1.42,0.98-1.93c0.42-0.5,0.91-0.88,1.48-1.13s1.16-0.37,1.8-0.37c1.13,0,1.99,0.3,2.57,0.91
		c0.59,0.61,0.88,1.41,0.88,2.42c0,0.32-0.03,0.69-0.1,1.11S285.31,397.57,285.22,397.88z M282.09,393.56
		c-1.69,0-2.71,1.07-3.06,3.21h5.04c0.1-0.35,0.14-0.71,0.14-1.1C284.21,394.26,283.5,393.56,282.09,393.56z"/>
	<path id="XMLID_317_" class="st6" d="M298.43,392.08l0.14-1.1l0.07-0.9c0-0.48-0.04-0.88-0.11-1.19l2.65-0.29
		c0.1,0.3,0.14,0.71,0.14,1.24c0,0.4-0.02,0.76-0.07,1.08l-0.83,5.96c-0.04,0.25-0.11,0.71-0.21,1.38
		c-0.11,0.67-0.16,1.11-0.16,1.32c0,0.42,0.24,0.63,0.72,0.63l0.36-0.04l-0.29,1.93c-0.38,0.22-0.85,0.32-1.4,0.32
		c-0.25,0-0.51-0.04-0.78-0.13s-0.5-0.23-0.69-0.44c-0.19-0.21-0.32-0.45-0.4-0.73h-0.07c-0.3,0.46-0.71,0.79-1.21,1.02
		c-0.51,0.22-1.05,0.33-1.61,0.33c-0.66,0-1.22-0.16-1.69-0.48c-0.47-0.32-0.82-0.75-1.06-1.29c-0.24-0.54-0.36-1.18-0.36-1.93
		c0-0.94,0.13-1.82,0.39-2.65c0.26-0.83,0.64-1.55,1.14-2.16s1.13-1.09,1.87-1.43c0.74-0.34,1.58-0.51,2.5-0.51L298.43,392.08z
		 M297.46,399.36l0.7-4.97c-0.07-0.02-0.2-0.05-0.4-0.08c-0.19-0.03-0.4-0.04-0.61-0.04c-0.9,0-1.61,0.37-2.12,1.11
		s-0.77,1.83-0.77,3.29c0,1.12,0.43,1.67,1.3,1.67c0.35,0,0.71-0.1,1.08-0.29C297,399.85,297.28,399.62,297.46,399.36z"/>
	<path id="XMLID_320_" class="st6" d="M303.92,392.14h2.74l-0.68,4.75c-0.23,1.62-0.34,2.53-0.34,2.72c0,0.16,0.04,0.29,0.11,0.4
		s0.25,0.16,0.52,0.16h0.43l-0.27,1.93c-0.14,0.08-0.34,0.16-0.59,0.21c-0.25,0.06-0.52,0.09-0.79,0.09c-0.46,0-0.86-0.1-1.21-0.31
		c-0.36-0.21-0.6-0.49-0.74-0.85c-0.14-0.35-0.21-0.72-0.21-1.11c0-0.28,0.02-0.58,0.06-0.92s0.1-0.76,0.17-1.28
		c0.07-0.52,0.12-0.86,0.14-1.04L303.92,392.14z M307.23,389.29c0,0.5-0.17,0.92-0.5,1.25c-0.34,0.33-0.77,0.5-1.3,0.5
		c-0.4,0-0.73-0.13-0.99-0.38c-0.26-0.25-0.4-0.58-0.4-0.97c0-0.37,0.1-0.71,0.29-1.01c0.19-0.3,0.43-0.51,0.71-0.62
		c0.28-0.11,0.54-0.17,0.78-0.17c0.41,0,0.74,0.13,1.01,0.38C307.1,388.52,307.23,388.86,307.23,389.29z"/>
	<path id="XMLID_323_" class="st6" d="M308.15,398.38c0-0.94,0.11-1.8,0.34-2.59c0.23-0.79,0.56-1.48,1.01-2.05
		c0.44-0.58,1.01-1.02,1.68-1.33s1.45-0.47,2.31-0.47c1.71,0,2.82,0.55,3.35,1.64l-2.03,1.55c-0.1-0.28-0.26-0.51-0.5-0.7
		c-0.24-0.19-0.57-0.29-0.99-0.29c-0.32,0-0.63,0.08-0.91,0.23c-0.28,0.15-0.54,0.39-0.77,0.71c-0.23,0.32-0.4,0.75-0.53,1.29
		c-0.13,0.54-0.19,1.17-0.19,1.9c0,1.34,0.55,2.02,1.66,2.02c0.79,0,1.46-0.32,2.02-0.95l1.51,1.6c-0.4,0.5-0.95,0.89-1.66,1.17
		c-0.71,0.28-1.5,0.41-2.38,0.41c-0.49,0-0.97-0.07-1.45-0.21c-0.47-0.14-0.89-0.38-1.26-0.71c-0.37-0.33-0.66-0.77-0.88-1.3
		S308.15,399.12,308.15,398.38z"/>
	<path id="XMLID_325_" class="st6" d="M318.63,392.14h2.74l-0.68,4.75c-0.23,1.62-0.34,2.53-0.34,2.72c0,0.16,0.04,0.29,0.11,0.4
		c0.07,0.11,0.25,0.16,0.52,0.16h0.43l-0.27,1.93c-0.14,0.08-0.34,0.16-0.59,0.21c-0.25,0.06-0.52,0.09-0.79,0.09
		c-0.46,0-0.86-0.1-1.21-0.31c-0.35-0.21-0.6-0.49-0.74-0.85c-0.14-0.35-0.21-0.72-0.21-1.11c0-0.28,0.02-0.58,0.06-0.92
		s0.1-0.76,0.17-1.28s0.12-0.86,0.14-1.04L318.63,392.14z M321.94,389.29c0,0.5-0.17,0.92-0.5,1.25c-0.34,0.33-0.77,0.5-1.3,0.5
		c-0.4,0-0.73-0.13-0.99-0.38s-0.4-0.58-0.4-0.97c0-0.37,0.1-0.71,0.29-1.01c0.19-0.3,0.43-0.51,0.71-0.62
		c0.28-0.11,0.54-0.17,0.78-0.17c0.41,0,0.74,0.13,1.01,0.38C321.81,388.52,321.94,388.86,321.94,389.29z"/>
	<path id="XMLID_328_" class="st6" d="M331.57,398.1h-6.12l-0.02,0.4c0,0.38,0.08,0.72,0.25,1.02c0.17,0.29,0.41,0.52,0.71,0.67
		c0.31,0.15,0.69,0.22,1.16,0.22c0.52,0,1-0.08,1.44-0.24c0.44-0.16,0.87-0.42,1.26-0.78l1.17,1.78c-0.5,0.43-1.09,0.76-1.76,1
		s-1.51,0.35-2.52,0.35c-0.72,0-1.35-0.11-1.9-0.32c-0.55-0.21-1-0.51-1.35-0.9s-0.62-0.85-0.78-1.4c-0.17-0.54-0.25-1.14-0.25-1.8
		c0-0.92,0.13-1.77,0.38-2.54c0.25-0.77,0.61-1.42,1.08-1.96c0.47-0.54,1.03-0.95,1.68-1.23c0.65-0.28,1.37-0.42,2.13-0.42
		c0.47,0,0.94,0.06,1.41,0.17c0.47,0.11,0.9,0.31,1.28,0.59c0.38,0.28,0.69,0.65,0.93,1.1c0.24,0.45,0.36,0.99,0.36,1.61
		c0,0.37-0.05,0.82-0.15,1.34C331.85,397.28,331.72,397.72,331.57,398.1z M328.11,393.99c-0.46,0-0.86,0.1-1.21,0.31
		c-0.35,0.21-0.61,0.48-0.79,0.83c-0.18,0.35-0.31,0.7-0.38,1.04h3.71c0.02-0.08,0.05-0.23,0.09-0.43c0.04-0.2,0.05-0.35,0.05-0.45
		c0-0.41-0.13-0.73-0.38-0.95S328.59,393.99,328.11,393.99z"/>
	<path id="XMLID_331_" class="st6" d="M342.53,393.6h0.07c0.22-0.34,0.48-0.64,0.79-0.92c0.31-0.28,0.67-0.48,1.06-0.6
		c0.4-0.13,0.79-0.19,1.19-0.19c0.88,0,1.55,0.23,2.03,0.68c0.48,0.45,0.72,1.09,0.72,1.93c0,0.49-0.11,1.52-0.34,3.08l-0.65,4.73
		h-2.72l0.67-4.77c0.18-1.28,0.27-2.15,0.27-2.59c0-0.25-0.08-0.45-0.24-0.6c-0.16-0.15-0.39-0.22-0.69-0.22
		c-0.68,0-1.21,0.23-1.58,0.68c-0.37,0.46-0.62,1.2-0.75,2.23l-0.7,5.27h-2.72l0.65-4.77c0.01-0.07,0.03-0.17,0.04-0.3
		s0.07-0.49,0.15-1.09s0.13-1,0.13-1.21c0-0.25-0.08-0.45-0.24-0.6c-0.16-0.15-0.39-0.22-0.69-0.22c-0.62,0-1.13,0.2-1.52,0.59
		c-0.39,0.4-0.64,0.99-0.75,1.78l-0.79,5.81h-2.72l1.42-10.17h2.12l0.47,1.24h0.07c0.17-0.3,0.4-0.57,0.71-0.82
		c0.31-0.25,0.64-0.42,0.99-0.52c0.35-0.1,0.68-0.15,0.98-0.15c0.72,0,1.3,0.15,1.73,0.44C342.13,392.62,342.41,393.04,342.53,393.6
		z"/>
	<path id="XMLID_358_" class="st6" d="M349.89,401.79l1.53-10.8c0.01-0.1,0.04-0.4,0.07-0.9c0-0.48-0.04-0.88-0.11-1.19l2.65-0.29
		c0.1,0.3,0.14,0.71,0.14,1.24c0,0.4-0.02,0.76-0.07,1.08l-0.27,2.03h0.07c0.22-0.28,0.53-0.5,0.93-0.67
		c0.4-0.17,0.79-0.26,1.18-0.26c0.48,0,0.9,0.07,1.26,0.21c0.36,0.14,0.69,0.33,0.98,0.57c0.29,0.24,0.56,0.61,0.8,1.1
		s0.36,1.11,0.36,1.85c0,0.95-0.12,1.83-0.35,2.65s-0.6,1.53-1.09,2.14c-0.49,0.61-1.12,1.09-1.89,1.43s-1.66,0.51-2.66,0.51
		C351.94,402.49,350.77,402.25,349.89,401.79z M353.74,400.33c0.4,0,0.77-0.09,1.13-0.26c0.36-0.17,0.67-0.44,0.94-0.79
		c0.27-0.35,0.48-0.81,0.64-1.37c0.16-0.56,0.23-1.2,0.23-1.92c0-0.61-0.13-1.07-0.39-1.39c-0.26-0.31-0.62-0.47-1.09-0.47
		c-0.47,0-0.86,0.15-1.16,0.46c-0.31,0.31-0.5,0.7-0.57,1.18l-0.65,4.41c0.1,0.04,0.24,0.07,0.44,0.1
		C353.48,400.31,353.64,400.33,353.74,400.33z"/>
	<path id="XMLID_361_" class="st6" d="M366.47,394.57c-0.44,0-0.83,0.09-1.17,0.27c-0.34,0.18-0.59,0.43-0.75,0.74
		s-0.26,0.62-0.3,0.92l-0.79,5.81h-2.7l0.99-7.18l0.02-0.32c0-0.2-0.04-0.35-0.13-0.45s-0.22-0.14-0.41-0.14h-0.59l0.27-1.93
		c0.43-0.2,0.94-0.31,1.53-0.31c1.1,0,1.74,0.49,1.91,1.48h0.07c0.26-0.48,0.63-0.86,1.11-1.13c0.47-0.27,1.02-0.41,1.63-0.41
		c0.4,0,0.79,0.06,1.17,0.18l-0.4,2.75c-0.17-0.07-0.4-0.14-0.69-0.2S366.69,394.57,366.47,394.57z"/>
	<path id="XMLID_363_" class="st6" d="M376.67,398.1h-6.12l-0.02,0.4c0,0.38,0.08,0.72,0.25,1.02c0.17,0.29,0.41,0.52,0.71,0.67
		c0.31,0.15,0.69,0.22,1.16,0.22c0.52,0,1-0.08,1.44-0.24c0.44-0.16,0.87-0.42,1.26-0.78l1.17,1.78c-0.5,0.43-1.09,0.76-1.76,1
		s-1.51,0.35-2.52,0.35c-0.72,0-1.35-0.11-1.9-0.32c-0.55-0.21-1-0.51-1.35-0.9s-0.62-0.85-0.78-1.4c-0.17-0.54-0.25-1.14-0.25-1.8
		c0-0.92,0.13-1.77,0.38-2.54c0.25-0.77,0.61-1.42,1.08-1.96c0.47-0.54,1.03-0.95,1.68-1.23c0.65-0.28,1.37-0.42,2.13-0.42
		c0.47,0,0.94,0.06,1.41,0.17c0.47,0.11,0.9,0.31,1.28,0.59c0.38,0.28,0.69,0.65,0.93,1.1c0.24,0.45,0.36,0.99,0.36,1.61
		c0,0.37-0.05,0.82-0.15,1.34C376.96,397.28,376.83,397.72,376.67,398.1z M373.22,393.99c-0.46,0-0.86,0.1-1.21,0.31
		c-0.35,0.21-0.61,0.48-0.79,0.83c-0.18,0.35-0.31,0.7-0.38,1.04h3.71c0.02-0.08,0.05-0.23,0.09-0.43c0.04-0.2,0.05-0.35,0.05-0.45
		c0-0.41-0.13-0.73-0.38-0.95S373.7,393.99,373.22,393.99z"/>
</g>
</svg>
