<?xml version="1.0" encoding="utf-8"?>
<!-- Generator: Adobe Illustrator 23.0.5, SVG Export Plug-In . SVG Version: 6.00 Build 0)  -->
<svg version="1.1" id="Isolation_Mode" xmlns="http://www.w3.org/2000/svg" xmlns:xlink="http://www.w3.org/1999/xlink" x="0px"
	 y="0px" viewBox="0 0 356 110.3" style="enable-background:new 0 0 356 110.3;" xml:space="preserve">
<style type="text/css">
	.st0{fill:#FBE011;}
	.st1{fill:#FFFFFF;}
	.st2{fill:url(#SVGID_1_);}
	.st3{fill:url(#SVGID_2_);}
	.st4{fill:url(#SVGID_3_);}
	.st5{fill:url(#SVGID_4_);}
	.st6{fill:url(#SVGID_5_);}
	.st7{fill:url(#SVGID_6_);}
	.st8{fill:url(#SVGID_7_);}
	.st9{fill:url(#SVGID_8_);}
	.st10{fill:url(#SVGID_9_);}
	.st11{fill:url(#SVGID_10_);}
	.st12{fill:url(#SVGID_11_);}
	.st13{fill:url(#SVGID_12_);}
	.st14{fill:url(#SVGID_13_);}
	.st15{fill:url(#SVGID_14_);}
	.st16{fill:url(#SVGID_15_);}
	.st17{fill:url(#SVGID_16_);}
	.st18{fill:url(#SVGID_17_);}
	.st19{fill:url(#SVGID_18_);}
	.st20{fill:url(#SVGID_19_);}
	.st21{fill:url(#SVGID_20_);}
	.st22{fill:url(#SVGID_21_);}
	.st23{fill:url(#SVGID_22_);}
	.st24{fill:url(#SVGID_23_);}
</style>
<g>
	<g>
		<polygon class="st0" points="57.9,12.5 63.2,14.5 115.6,97.7 9.8,97.7 4.5,95.7 110.1,95.7 		"/>
		<polygon class="st1" points="57.9,12.5 4.5,95.7 110.1,95.7 		"/>
		
			<linearGradient id="SVGID_1_" gradientUnits="userSpaceOnUse" x1="23.8" y1="51.8" x2="91.43" y2="51.8" gradientTransform="matrix(1 0 0 -1 0 112)">
			<stop  offset="0" style="stop-color:#76C593"/>
			<stop  offset="1" style="stop-color:#2BB673"/>
		</linearGradient>
		<polygon class="st2" points="57.6,33.7 23.8,86.7 91.4,86.7 		"/>
	</g>
	<g>
		<g>
			<g>
				
					<linearGradient id="SVGID_2_" gradientUnits="userSpaceOnUse" x1="61.5535" y1="43.3541" x2="83.8772" y2="43.3541" gradientTransform="matrix(1 0 0 -1 0 112)">
					<stop  offset="0" style="stop-color:#76C593"/>
					<stop  offset="1" style="stop-color:#2BB673"/>
				</linearGradient>
				<path class="st3" d="M61.9,48.4c0.8-0.8,1.4-0.3,2.4,0.5c0.9,0.7,1.3,2.2,2.2,3.3c1.5,1.8,3.6,3.3,4.9,3.2
					c1.2-0.1,1.4-0.1,1.7-0.3c0.2-0.1-0.9-0.3-1.5-0.5c-2-0.8-3.2-3.6-2.3-5.8c1.2-2.7,3.8-3.5,6.5-2.4c1.6,0.7,2.6,2.5,2.4,4.4
					c-0.1,1.8-1,3.1-2.7,3.8c-0.2,0.1-0.2,0.2,0,0.3c2.7,0.8,4.6,2.5,6.1,4.8c1.9,2.9,2.5,6.2,2.4,9.6c0,0.9-0.1,1.8-0.2,2.7
					c-0.1,0.8-0.6,1.3-1.3,1.3c-0.6,0-1.3-0.7-1.3-1.4c-0.1-1.4-0.1-2.9-0.2-4.4c-0.1-0.6-0.2-1.3-0.4-1.9c0-0.1-1.1-2.2-1.2-2.4
					c-0.1,0.2-0.3,1.9-0.3,2c-0.2,1.6-0.3,2.6,0,4c0.3,1.7,2,7.8,1.7,10.8c-0.1,0.8-1.7-0.1-2.4,0.6c-0.5,0.5-1,2.7-1.3,3.8
					c-0.1,0.3-0.2,0.7-0.4,0.9c-0.2,0.2-0.7,0.4-0.9,0.3c-0.2-0.1-0.6-0.6-0.6-0.9c0-0.8-0.1-1.9-0.1-3.3c0-0.3,0-0.6-0.1-0.9
					c-0.1,0.3-0.3,0.6-0.3,0.9c-0.1,2.3-0.1,1.4-0.1,3.7c0,1.5-0.1,3-0.2,4.5c0,0.5-0.2,1.1-0.7,1.4c-1.3,0.7-2.5,0-2.6-1.6
					c0-0.9,0-1.7-0.1-2.6c-0.1-3.1,0.1-5.5-0.2-6c-0.3-0.5-1.4,0-2.2-0.5c-0.8-0.5,0.1-7.6,1.3-10.1c1.1-2.3,1.2-2.2,1.2-4.3
					c0-0.6,0.1-2.5,0-3.1c0-0.3,0.3-3.4-0.7-3.7c-1.2-0.4-3.6-2.1-5.4-4.1c-1.6-1.8-2.6-3.6-3-4.5C61.2,49.4,61.9,48.4,61.9,48.4z"
					/>
			</g>
		</g>
		<g>
			<g>
				<path class="st0" d="M61.5,48.4c0.8-0.8,1.4-0.3,2.4,0.5c0.9,0.7,1.3,2.2,2.2,3.3c1.5,1.8,3.6,3.3,4.9,3.2
					c1.2-0.1,1.4-0.1,1.7-0.3c0.2-0.1-0.9-0.3-1.5-0.5c-2-0.8-3.2-3.6-2.3-5.8c1.2-2.7,3.8-3.5,6.5-2.4c1.6,0.7,2.6,2.5,2.4,4.4
					c-0.1,1.8-1,3.1-2.7,3.8c-0.2,0.1-0.2,0.2,0,0.3c2.7,0.8,4.6,2.5,6.1,4.8c1.9,2.9,2.5,6.2,2.4,9.6c0,0.9-0.1,1.8-0.2,2.7
					c-0.1,0.8-0.6,1.3-1.3,1.3c-0.6,0-1.3-0.7-1.3-1.4c-0.1-1.4-0.1-2.9-0.2-4.4c-0.1-0.6-0.2-1.3-0.4-1.9c0-0.1-1.1-2.2-1.2-2.4
					c-0.1,0.2-0.3,1.9-0.3,2c-0.2,1.6-0.3,2.6,0,4c0.3,1.7,2,7.8,1.7,10.8c-0.1,0.8-1.7-0.1-2.4,0.6c-0.5,0.5-1,2.7-1.3,3.8
					c-0.1,0.3-0.2,0.7-0.4,0.9c-0.2,0.2-0.7,0.4-0.9,0.3c-0.2-0.1-0.6-0.6-0.6-0.9c0-0.8-0.1-1.9-0.1-3.3c0-0.3,0-0.6-0.1-0.9
					c-0.1,0.3-0.3,0.6-0.3,0.9c-0.1,2.3-0.1,1.4-0.1,3.7c0,1.5-0.1,3-0.2,4.5c0,0.5-0.2,1.1-0.7,1.4c-1.3,0.7-2.5,0-2.6-1.6
					c0-0.9,0-1.7-0.1-2.6c-0.1-3.1,0.1-5.5-0.2-6c-0.3-0.5-1.4,0-2.2-0.5c-0.8-0.5,0.1-7.6,1.3-10.1c1.1-2.3,1.2-2.2,1.2-4.3
					c0-0.6,0.1-2.5,0-3.1c0-0.3,0.3-3.4-0.7-3.7c-1.2-0.4-3.6-2.1-5.4-4.1c-1.6-1.8-2.6-3.6-3-4.5C60.8,49.4,61.5,48.4,61.5,48.4z"
					/>
			</g>
		</g>
		
			<linearGradient id="SVGID_3_" gradientUnits="userSpaceOnUse" x1="32.2365" y1="43.325" x2="67.7523" y2="43.325" gradientTransform="matrix(1 0 0 -1 0 112)">
			<stop  offset="0" style="stop-color:#76C593"/>
			<stop  offset="1" style="stop-color:#2BB673"/>
		</linearGradient>
		<path class="st4" d="M67,64.8c-0.7-0.2-1.6,0.4-1.8,1.1c-0.7,3-4,3.5-4.1,3.5c-0.4,0.1-0.6-0.2-0.9-0.3c1.7-0.2,3-1.6,3-3.3
			c0-1.8-1.5-3.3-3.3-3.3s-3.3,1.5-3.3,3.3c0,1.7,1.3,3.1,3,3.3c-0.3,0.1-0.6,0.3-0.9,0.3c-0.1,0-2.5-0.7-4.1-3.5
			c0-0.1-0.1-0.2-0.2-0.2c-0.2-0.5-0.5-0.8-0.5-0.8c-0.5-0.7-1.1-0.9-1.7-1.4c-3.4-3-6-5.1-9.4-8.1c2.9-1.8,3.8-3.5,3.1-5.9
			c-0.6-2.4-2.4-3.5-4.6-3.5c-2.3,0-3.9,1.4-4.5,3.6c-0.7,2.1,0.4,4,3.5,6.1c-6.1,3.5-8.5,9.4-8.1,15.9c0.2,3.2,0.8,4.1,2.2,3
			c1.2-1-0.3-8.3,3.9-10.8c-0.4,1.7-3.5,14.1-3.9,15.6c-0.5,1.9,0,2.9,2.1,2.8c1.7-0.2,2.1-0.1,2.2,1.5c0.1,0.8,0.3,1.7,0.6,2
			c0.3,0.4,1.3,0.4,1.6,0.2c0.1-0.1,0.7-3.7,0.8-3.6c0.3,0.9,0.1,7.1,0.5,8.1c0.3,0.8,0.8,1.3,1.8,1.3c1.1,0,1.5-0.6,1.5-1.3
			c0.2-2,0-4.4,0.2-6.4c0.1-0.7,0.8-1.7,1.4-1.8c3.1-0.8,3.2-0.8,2.2-4c-0.3-1-0.6-1.9-0.9-2.9c-0.9-3.6-2.7-7.2-1.8-11.5
			c1,0.6,1.8,1,2.5,1.5c1.5,1.1,0.9,0.5,2.4,1.5c0.2,0.2,0.5,0.3,0.8,0.4c1.3,2.6,2.9,3.8,4.2,4.5l0.5,3.8c0,0.1,0,0.2,0,0.3
			l-0.5,8.9c0,0.8,0.6,1.4,1.4,1.4s1.4-0.6,1.4-1.4h0l0.3-6.4l0.1-0.1l0.4,6.5c0.8,0,1.5-0.9,1.9-1.9l0.4-4.5l0.2-2.6l0.4-3.9
			c1.4-0.5,3.5-2.1,4.5-5.1C67.9,65.8,67.7,64.9,67,64.8z"/>
		<path class="st0" d="M67.4,64.8c-0.7-0.2-1.6,0.4-1.8,1.1c-0.7,3-4,3.5-4.1,3.5c-0.4,0.1-0.6-0.2-0.9-0.3c1.7-0.2,3-1.6,3-3.3
			c0-1.8-1.5-3.3-3.3-3.3S57,63.9,57,65.7c0,1.7,1.3,3.1,3,3.3c-0.3,0.1-0.6,0.3-0.9,0.3c-0.1,0-2.5-0.7-4.1-3.5
			c0-0.1-0.1-0.2-0.2-0.2c-0.2-0.5-0.5-0.8-0.5-0.8c-0.5-0.7-1.1-0.9-1.7-1.4c-3.4-3-6-5.1-9.4-8.1c2.9-1.8,3.8-3.5,3.1-5.9
			c-0.6-2.4-2.4-3.5-4.6-3.5c-2.3,0-3.9,1.4-4.5,3.6c-0.7,2.1,0.4,4,3.5,6.1c-6.1,3.5-8.5,9.4-8.1,15.9c0.2,3.2,0.8,4.1,2.2,3
			c1.2-1-0.3-8.3,3.9-10.8c-0.4,1.7-3.5,14.1-3.9,15.6c-0.5,1.9,0,2.9,2.1,2.8c1.7-0.2,2.1-0.1,2.2,1.5c0.1,0.8,0.3,1.7,0.6,2
			c0.3,0.4,1.3,0.4,1.6,0.2c0.1-0.1,0.7-3.7,0.8-3.6c0.3,0.9,0.1,7.1,0.5,8.1c0.3,0.8,0.8,1.3,1.8,1.3c1.1,0,1.5-0.6,1.5-1.3
			c0.2-2,0-4.4,0.2-6.4c0.1-0.7,0.8-1.7,1.4-1.8c3.1-0.8,3.2-0.8,2.2-4c-0.3-1-0.6-1.9-0.9-2.9c-0.9-3.6-2.7-7.2-1.8-11.5
			c1,0.6,1.8,1,2.5,1.5c1.5,1.1,0.9,0.5,2.4,1.5c0.2,0.2,0.5,0.3,0.8,0.4c1.3,2.6,2.9,3.8,4.2,4.5l0.5,3.8c0,0.1,0,0.2,0,0.3
			L57,84.4c0,0.8,0.6,1.4,1.4,1.4s1.4-0.6,1.4-1.4h0l0.3-6.4l0.1-0.1l0.4,6.5c0.8,0,1.5-0.9,1.9-1.9L63,78l0.2-2.6l0.4-3.9
			c1.4-0.5,3.5-2.1,4.5-5.1C68.3,65.8,68.1,64.9,67.4,64.8z"/>
	</g>
</g>
<g>
	<g>
		<rect x="225.7" y="71.4" class="st0" width="3.4" height="9.4"/>
		<g>
			
				<linearGradient id="SVGID_4_" gradientUnits="userSpaceOnUse" x1="107.511" y1="36.51" x2="114.123" y2="36.51" gradientTransform="matrix(1 0 0 -1 0 112)">
				<stop  offset="0" style="stop-color:#76C593"/>
				<stop  offset="1" style="stop-color:#2BB673"/>
			</linearGradient>
			<path class="st5" d="M113.7,78.2c-0.2,0.2-0.5,0.3-0.9,0.5c-0.3,0.1-0.8,0.2-1.2,0.2c-0.4,0-0.8-0.1-1.2-0.2s-0.7-0.3-0.9-0.6
				s-0.5-0.6-0.6-1.1c-0.2-0.4-0.2-0.9-0.2-1.5c0-0.6,0.1-1.1,0.2-1.5c0.2-0.4,0.4-0.8,0.6-1.1s0.6-0.5,0.9-0.6
				c0.3-0.2,0.7-0.2,1.2-0.2c0.5,0,0.9,0.1,1.2,0.2s0.6,0.3,0.8,0.5c0.1-0.1,0.2-0.1,0.3-0.2c0.1-0.1,0.1-0.2,0.1-0.3
				c0-0.1-0.1-0.3-0.2-0.4s-0.3-0.3-0.5-0.3c-0.2-0.1-0.5-0.2-0.8-0.3c-0.3-0.1-0.7-0.1-1-0.1c-0.5,0-1.1,0.1-1.5,0.3
				c-0.5,0.2-0.9,0.4-1.3,0.8c-0.4,0.4-0.7,0.8-0.9,1.4c-0.2,0.5-0.3,1.2-0.3,1.9s0.1,1.3,0.3,1.9c0.2,0.5,0.5,1,0.8,1.3
				c0.4,0.4,0.8,0.6,1.3,0.8s1,0.3,1.6,0.3c0.6,0,1-0.1,1.4-0.2s0.7-0.2,0.9-0.4c0.2-0.2,0.3-0.3,0.3-0.5c0-0.1,0-0.2-0.1-0.3
				C113.9,78.3,113.8,78.2,113.7,78.2z"/>
			
				<linearGradient id="SVGID_5_" gradientUnits="userSpaceOnUse" x1="115.1189" y1="35.52" x2="121.3189" y2="35.52" gradientTransform="matrix(1 0 0 -1 0 112)">
				<stop  offset="0" style="stop-color:#76C593"/>
				<stop  offset="1" style="stop-color:#2BB673"/>
			</linearGradient>
			<path class="st6" d="M120.5,74.1c-0.3-0.3-0.6-0.5-1-0.7c-0.4-0.2-0.8-0.2-1.3-0.2c-0.5,0-0.9,0.1-1.3,0.2s-0.7,0.4-1,0.7
				c-0.3,0.3-0.5,0.6-0.6,1.1c-0.2,0.4-0.2,0.9-0.2,1.4c0,0.5,0.1,1,0.2,1.4c0.2,0.4,0.3,0.8,0.6,1.1c0.3,0.3,0.6,0.5,1,0.7
				c0.4,0.2,0.8,0.2,1.3,0.2s0.9-0.1,1.3-0.2s0.7-0.4,1-0.7c0.3-0.3,0.5-0.6,0.6-1.1c0.2-0.4,0.2-0.9,0.2-1.4c0-0.5-0.1-1-0.2-1.4
				C120.9,74.7,120.7,74.3,120.5,74.1z M119.7,78.3c-0.3,0.4-0.8,0.6-1.5,0.6s-1.1-0.2-1.5-0.6s-0.5-1-0.5-1.8
				c0-0.8,0.2-1.4,0.5-1.8s0.8-0.6,1.5-0.6s1.1,0.2,1.4,0.6s0.5,1,0.5,1.8C120.2,77.2,120,77.8,119.7,78.3z"/>
			
				<linearGradient id="SVGID_6_" gradientUnits="userSpaceOnUse" x1="122.6574" y1="35.52" x2="128.8574" y2="35.52" gradientTransform="matrix(1 0 0 -1 0 112)">
				<stop  offset="0" style="stop-color:#76C593"/>
				<stop  offset="1" style="stop-color:#2BB673"/>
			</linearGradient>
			<path class="st7" d="M128,74.1c-0.3-0.3-0.6-0.5-1-0.7c-0.4-0.2-0.8-0.2-1.3-0.2c-0.5,0-0.9,0.1-1.3,0.2s-0.7,0.4-1,0.7
				s-0.5,0.6-0.6,1.1c-0.2,0.4-0.2,0.9-0.2,1.4c0,0.5,0.1,1,0.2,1.4c0.2,0.4,0.3,0.8,0.6,1.1c0.3,0.3,0.6,0.5,1,0.7
				c0.4,0.2,0.8,0.2,1.3,0.2s0.9-0.1,1.3-0.2s0.7-0.4,1-0.7c0.3-0.3,0.5-0.6,0.6-1.1s0.2-0.9,0.2-1.4c0-0.5-0.1-1-0.2-1.4
				C128.5,74.7,128.3,74.3,128,74.1z M127.2,78.3c-0.3,0.4-0.8,0.6-1.5,0.6s-1.1-0.2-1.5-0.6s-0.5-1-0.5-1.8c0-0.8,0.2-1.4,0.5-1.8
				s0.8-0.6,1.5-0.6s1.1,0.2,1.4,0.6s0.5,1,0.5,1.8C127.7,77.2,127.6,77.8,127.2,78.3z"/>
			
				<linearGradient id="SVGID_7_" gradientUnits="userSpaceOnUse" x1="130.55" y1="34.335" x2="136.3" y2="34.335" gradientTransform="matrix(1 0 0 -1 0 112)">
				<stop  offset="0" style="stop-color:#76C593"/>
				<stop  offset="1" style="stop-color:#2BB673"/>
			</linearGradient>
			<path class="st8" d="M135.4,73.9c-0.3-0.3-0.6-0.5-1-0.6c-0.4-0.1-0.8-0.2-1.3-0.2c-0.4,0-0.8,0.1-1.2,0.2
				c-0.3,0.1-0.6,0.2-0.9,0.4c-0.2,0.1-0.3,0.2-0.4,0.3c-0.1,0.1-0.1,0.3-0.1,0.4v7.2c0,0.3,0.2,0.5,0.6,0.5c0.1,0,0.2,0,0.3,0
				s0.2,0,0.2-0.1v-2.6c0.2,0.1,0.4,0.2,0.7,0.3c0.3,0.1,0.6,0.1,0.9,0.1c0.4,0,0.9-0.1,1.2-0.2c0.4-0.1,0.7-0.3,1-0.6
				c0.3-0.3,0.5-0.6,0.6-1c0.1-0.4,0.2-0.9,0.2-1.5c0-0.6-0.1-1.1-0.3-1.5C135.9,74.5,135.7,74.2,135.4,73.9z M134.6,78.3
				c-0.4,0.4-0.9,0.6-1.5,0.6c-0.3,0-0.6,0-0.8-0.1c-0.2-0.1-0.4-0.2-0.6-0.3v-4c0.2-0.1,0.4-0.2,0.6-0.3c0.2-0.1,0.5-0.1,0.8-0.1
				c0.3,0,0.6,0,0.8,0.1s0.5,0.2,0.7,0.4c0.2,0.2,0.4,0.4,0.5,0.8s0.2,0.7,0.2,1.1C135.2,77.3,135,77.9,134.6,78.3z"/>
			
				<linearGradient id="SVGID_8_" gradientUnits="userSpaceOnUse" x1="137.6406" y1="35.52" x2="143.4895" y2="35.52" gradientTransform="matrix(1 0 0 -1 0 112)">
				<stop  offset="0" style="stop-color:#76C593"/>
				<stop  offset="1" style="stop-color:#2BB673"/>
			</linearGradient>
			<path class="st9" d="M142.7,73.9c-0.3-0.3-0.6-0.4-0.9-0.6c-0.4-0.1-0.7-0.2-1.1-0.2c-0.4,0-0.8,0.1-1.2,0.2
				c-0.4,0.2-0.7,0.4-1,0.7s-0.5,0.6-0.6,1c-0.1,0.4-0.2,0.9-0.2,1.4c0,1.1,0.3,1.9,0.9,2.5s1.4,0.9,2.5,0.9c0.3,0,0.6,0,0.8-0.1
				s0.5-0.1,0.7-0.2c0.2-0.1,0.4-0.2,0.5-0.3c0.1-0.1,0.2-0.2,0.2-0.4c0-0.2-0.1-0.4-0.3-0.5c-0.2,0.2-0.4,0.3-0.7,0.4
				c-0.3,0.1-0.6,0.2-1,0.2c-1.3,0-2.1-0.6-2.4-1.8l4.2-0.6c0.2,0,0.3-0.1,0.4-0.2c0.1-0.1,0.1-0.2,0.1-0.4c0-0.4-0.1-0.8-0.2-1.1
				S142.9,74.2,142.7,73.9z M138.7,76.3c0-0.7,0.2-1.3,0.6-1.7c0.4-0.4,0.8-0.6,1.4-0.6c0.6,0,1,0.2,1.3,0.5s0.5,0.7,0.5,1.2
				L138.7,76.3z"/>
			
				<linearGradient id="SVGID_9_" gradientUnits="userSpaceOnUse" x1="145.07" y1="35.58" x2="148.9967" y2="35.58" gradientTransform="matrix(1 0 0 -1 0 112)">
				<stop  offset="0" style="stop-color:#76C593"/>
				<stop  offset="1" style="stop-color:#2BB673"/>
			</linearGradient>
			<path class="st10" d="M147.9,73.2c-0.5,0-1,0.1-1.4,0.2s-0.7,0.3-1,0.4c-0.2,0.1-0.3,0.2-0.4,0.4s-0.1,0.3-0.1,0.5v4.6
				c0,0.3,0.2,0.5,0.6,0.5c0.1,0,0.2,0,0.3,0s0.2,0,0.2-0.1v-5.1c0.2-0.1,0.5-0.2,0.8-0.3c0.3-0.1,0.7-0.1,1.1-0.1
				c0.1,0,0.3,0,0.4,0c0.1,0,0.3,0,0.4,0.1c0-0.1,0.1-0.1,0.1-0.2c0-0.1,0-0.2,0-0.3C149,73.3,148.6,73.2,147.9,73.2z"/>
			
				<linearGradient id="SVGID_10_" gradientUnits="userSpaceOnUse" x1="149.7739" y1="35.525" x2="155.0239" y2="35.525" gradientTransform="matrix(1 0 0 -1 0 112)">
				<stop  offset="0" style="stop-color:#76C593"/>
				<stop  offset="1" style="stop-color:#2BB673"/>
			</linearGradient>
			<path class="st11" d="M152.4,73.2c-0.4,0-0.7,0-1,0.1c-0.3,0.1-0.6,0.2-0.9,0.3c-0.1,0.1-0.2,0.2-0.3,0.2s-0.1,0.2-0.1,0.3
				c0,0.1,0,0.2,0.1,0.3c0.1,0.1,0.1,0.2,0.2,0.2c0.3-0.1,0.6-0.3,0.9-0.4s0.7-0.2,1.1-0.2c0.5,0,0.8,0.1,1.1,0.3s0.4,0.5,0.4,1v0.4
				l-1.9,0.2c-0.7,0.1-1.3,0.3-1.6,0.6c-0.4,0.3-0.6,0.8-0.6,1.4c0,0.6,0.2,1.1,0.7,1.5s1.1,0.5,2,0.5c0.5,0,0.9-0.1,1.2-0.1
				c0.4-0.1,0.6-0.2,0.9-0.3c0.1-0.1,0.3-0.2,0.4-0.3s0.1-0.3,0.1-0.5v-3.2c0-0.8-0.2-1.3-0.7-1.7C153.9,73.3,153.2,73.2,152.4,73.2
				z M153.9,78.6c-0.1,0.1-0.3,0.2-0.5,0.2s-0.6,0.1-0.9,0.1c-0.5,0-0.9-0.1-1.2-0.3s-0.4-0.4-0.4-0.8c0-0.3,0.1-0.6,0.3-0.7
				s0.6-0.3,1.1-0.3l1.7-0.2L153.9,78.6L153.9,78.6z"/>
			
				<linearGradient id="SVGID_11_" gradientUnits="userSpaceOnUse" x1="157.0266" y1="36.395" x2="160.5028" y2="36.395" gradientTransform="matrix(1 0 0 -1 0 112)">
				<stop  offset="0" style="stop-color:#76C593"/>
				<stop  offset="1" style="stop-color:#2BB673"/>
			</linearGradient>
			<path class="st12" d="M160.3,78.6c-0.1,0.1-0.3,0.1-0.5,0.2s-0.4,0.1-0.5,0.1c-0.4,0-0.7-0.1-0.9-0.2c-0.2-0.2-0.3-0.4-0.3-0.8
				v-3.5h1.9c0.3,0,0.4-0.2,0.4-0.5c0-0.1,0-0.2,0-0.3c0-0.1-0.1-0.1-0.1-0.2h-2.2v-1.6c0-0.3-0.2-0.5-0.6-0.5c-0.1,0-0.2,0-0.3,0
				c-0.1,0-0.2,0-0.2,0.1V78c0,0.7,0.2,1.1,0.6,1.4c0.4,0.3,0.9,0.4,1.6,0.4c0.4,0,0.8-0.1,1-0.2c0.2-0.1,0.4-0.3,0.4-0.5
				c0-0.1,0-0.2-0.1-0.3C160.4,78.8,160.3,78.7,160.3,78.6z"/>
			
				<linearGradient id="SVGID_12_" gradientUnits="userSpaceOnUse" x1="162.1531" y1="35.525" x2="163.2431" y2="35.525" gradientTransform="matrix(1 0 0 -1 0 112)">
				<stop  offset="0" style="stop-color:#76C593"/>
				<stop  offset="1" style="stop-color:#2BB673"/>
			</linearGradient>
			<path class="st13" d="M162.7,73.3c-0.1,0-0.2,0-0.3,0c-0.1,0-0.2,0-0.2,0.1v5.8c0,0.3,0.2,0.5,0.6,0.5c0.1,0,0.2,0,0.3,0
				s0.2,0,0.2-0.1v-5.8C163.2,73.4,163.1,73.3,162.7,73.3z"/>
			
				<linearGradient id="SVGID_13_" gradientUnits="userSpaceOnUse" x1="161.99" y1="40.67" x2="163.3941" y2="40.67" gradientTransform="matrix(1 0 0 -1 0 112)">
				<stop  offset="0" style="stop-color:#76C593"/>
				<stop  offset="1" style="stop-color:#2BB673"/>
			</linearGradient>
			<path class="st14" d="M162.7,70.7c-0.2,0-0.4,0.1-0.5,0.2c-0.1,0.1-0.2,0.3-0.2,0.5s0.1,0.3,0.2,0.5c0.1,0.1,0.3,0.2,0.5,0.2
				s0.4-0.1,0.5-0.2c0.1-0.1,0.2-0.3,0.2-0.5s-0.1-0.3-0.2-0.5C163.1,70.7,162.9,70.7,162.7,70.7z"/>
			
				<linearGradient id="SVGID_14_" gradientUnits="userSpaceOnUse" x1="164.76" y1="35.545" x2="170.6086" y2="35.545" gradientTransform="matrix(1 0 0 -1 0 112)">
				<stop  offset="0" style="stop-color:#76C593"/>
				<stop  offset="1" style="stop-color:#2BB673"/>
			</linearGradient>
			<path class="st15" d="M170.1,73.2c-0.2,0-0.4,0-0.5,0.1c-0.2,0.9-0.5,1.7-0.8,2.6c-0.3,0.9-0.6,1.8-1,2.7h-0.1
				c-0.1-0.2-0.1-0.3-0.2-0.6c-0.1-0.2-0.2-0.4-0.3-0.7c-0.1-0.2-0.2-0.5-0.3-0.7s-0.1-0.4-0.2-0.6l-0.9-2.4
				c-0.1-0.2-0.1-0.3-0.2-0.4c-0.1-0.1-0.2-0.1-0.4-0.1c-0.1,0-0.2,0-0.3,0.1s-0.2,0.1-0.3,0.2c0.1,0.3,0.2,0.6,0.3,1
				c0.1,0.4,0.3,0.7,0.4,1.1c0.1,0.4,0.3,0.8,0.4,1.2c0.1,0.4,0.3,0.8,0.4,1.1c0.1,0.3,0.3,0.7,0.4,0.9c0.1,0.3,0.2,0.5,0.3,0.6
				c0.1,0.2,0.3,0.3,0.6,0.3c0.1,0,0.3,0,0.4,0s0.2-0.1,0.2-0.1c0.1-0.3,0.3-0.6,0.5-1c0.2-0.4,0.3-0.8,0.5-1.2
				c0.2-0.4,0.3-0.8,0.5-1.2s0.3-0.8,0.4-1.1c0.1-0.3,0.2-0.6,0.3-0.9c0.1-0.3,0.1-0.4,0.1-0.5c0-0.2-0.1-0.3-0.1-0.3
				C170.4,73.2,170.2,73.2,170.1,73.2z"/>
			
				<linearGradient id="SVGID_15_" gradientUnits="userSpaceOnUse" x1="171.5732" y1="35.525" x2="176.8232" y2="35.525" gradientTransform="matrix(1 0 0 -1 0 112)">
				<stop  offset="0" style="stop-color:#76C593"/>
				<stop  offset="1" style="stop-color:#2BB673"/>
			</linearGradient>
			<path class="st16" d="M174.3,73.2c-0.4,0-0.7,0-1,0.1c-0.3,0.1-0.6,0.2-0.9,0.3c-0.1,0.1-0.2,0.2-0.3,0.2S172,74,172,74.1
				c0,0.1,0,0.2,0.1,0.3c0.1,0.1,0.1,0.2,0.2,0.2c0.3-0.1,0.6-0.3,0.9-0.4s0.7-0.2,1.1-0.2c0.5,0,0.8,0.1,1.1,0.3s0.4,0.5,0.4,1v0.4
				l-1.9,0.2c-0.7,0.1-1.3,0.3-1.6,0.6c-0.4,0.3-0.6,0.8-0.6,1.4c0,0.6,0.2,1.1,0.7,1.5s1.1,0.5,2,0.5c0.5,0,0.9-0.1,1.2-0.1
				c0.4-0.1,0.6-0.2,0.9-0.3c0.1-0.1,0.3-0.2,0.4-0.3s0.1-0.3,0.1-0.5v-3.2c0-0.8-0.2-1.3-0.7-1.7C175.7,73.3,175,73.2,174.3,73.2z
				 M175.7,78.6c-0.1,0.1-0.3,0.2-0.5,0.2s-0.6,0.1-0.9,0.1c-0.5,0-0.9-0.1-1.2-0.3s-0.4-0.4-0.4-0.8c0-0.3,0.1-0.6,0.3-0.7
				s0.6-0.3,1.1-0.3l1.7-0.2L175.7,78.6L175.7,78.6z"/>
			
				<linearGradient id="SVGID_16_" gradientUnits="userSpaceOnUse" x1="180.9254" y1="36.485" x2="188.1854" y2="36.485" gradientTransform="matrix(1 0 0 -1 0 112)">
				<stop  offset="0" style="stop-color:#76C593"/>
				<stop  offset="1" style="stop-color:#2BB673"/>
			</linearGradient>
			<path class="st17" d="M186.8,75.5c-0.3-0.7-0.5-1.4-0.8-2.1s-0.5-1.3-0.7-1.8c-0.1-0.1-0.1-0.2-0.3-0.3c-0.2-0.1-0.3-0.1-0.5-0.1
				c-0.1,0-0.3,0-0.4,0.1c-0.1,0-0.3,0.1-0.3,0.1c-0.2,0.6-0.5,1.2-0.7,1.8c-0.3,0.7-0.5,1.4-0.8,2.1s-0.5,1.3-0.7,1.9
				c-0.2,0.6-0.4,1.1-0.5,1.5c0,0.1-0.1,0.2-0.1,0.3s0,0.2,0,0.3c0,0.2,0.1,0.3,0.2,0.4c0.1,0.1,0.2,0.1,0.4,0.1
				c0.2,0,0.3,0,0.4-0.1c0-0.1,0.1-0.3,0.1-0.4c0.1-0.2,0.1-0.4,0.2-0.6c0.1-0.2,0.1-0.4,0.2-0.6c0.1-0.2,0.1-0.4,0.2-0.6h3.6
				l0.6,1.8c0.1,0.2,0.1,0.3,0.2,0.4s0.2,0.1,0.4,0.1c0.1,0,0.2,0,0.3-0.1c0.1-0.1,0.2-0.1,0.3-0.2c-0.2-0.6-0.4-1.2-0.6-1.9
				C187.3,76.9,187.1,76.2,186.8,75.5z M183,76.5c0.1-0.3,0.3-0.7,0.4-1.1c0.1-0.4,0.3-0.8,0.4-1.2c0.1-0.4,0.3-0.8,0.4-1.1
				c0.1-0.3,0.2-0.7,0.3-0.9h0.1c0.1,0.2,0.2,0.5,0.3,0.8s0.2,0.7,0.4,1.1c0.1,0.4,0.3,0.8,0.4,1.2s0.3,0.8,0.4,1.2L183,76.5
				L183,76.5z"/>
			
				<linearGradient id="SVGID_17_" gradientUnits="userSpaceOnUse" x1="189.64" y1="36.745" x2="195.39" y2="36.745" gradientTransform="matrix(1 0 0 -1 0 112)">
				<stop  offset="0" style="stop-color:#76C593"/>
				<stop  offset="1" style="stop-color:#2BB673"/>
			</linearGradient>
			<path class="st18" d="M194.5,74c-0.3-0.3-0.6-0.5-0.9-0.6c-0.4-0.1-0.8-0.2-1.2-0.2c-0.4,0-0.7,0.1-1,0.1
				c-0.3,0.1-0.5,0.2-0.7,0.3v-2.4c0-0.3-0.2-0.5-0.6-0.5c-0.1,0-0.2,0-0.3,0c-0.1,0-0.2,0-0.2,0.1v7.7c0,0.2,0,0.3,0.1,0.5
				c0.1,0.1,0.2,0.2,0.4,0.3c0.2,0.1,0.5,0.3,0.9,0.4s0.8,0.2,1.2,0.2c0.5,0,0.9-0.1,1.3-0.2s0.7-0.3,1-0.6c0.3-0.3,0.5-0.6,0.6-1
				c0.1-0.4,0.2-0.9,0.2-1.5c0-0.6-0.1-1.1-0.2-1.5C195,74.6,194.8,74.2,194.5,74z M194.1,77.6c-0.1,0.3-0.2,0.6-0.4,0.8
				c-0.2,0.2-0.4,0.3-0.6,0.4c-0.3,0.1-0.5,0.1-0.8,0.1c-0.4,0-0.6-0.1-0.9-0.1c-0.3-0.1-0.5-0.2-0.6-0.3v-3.9
				c0.2-0.2,0.4-0.3,0.7-0.4c0.3-0.1,0.6-0.2,0.9-0.2c0.3,0,0.6,0.1,0.8,0.1c0.3,0.1,0.5,0.2,0.6,0.4c0.2,0.2,0.3,0.4,0.4,0.8
				c0.1,0.3,0.1,0.7,0.1,1.1S194.2,77.3,194.1,77.6z"/>
			
				<linearGradient id="SVGID_18_" gradientUnits="userSpaceOnUse" x1="197.1627" y1="35.525" x2="198.2527" y2="35.525" gradientTransform="matrix(1 0 0 -1 0 112)">
				<stop  offset="0" style="stop-color:#76C593"/>
				<stop  offset="1" style="stop-color:#2BB673"/>
			</linearGradient>
			<path class="st19" d="M197.7,73.3c-0.1,0-0.2,0-0.3,0c-0.1,0-0.2,0-0.2,0.1v5.8c0,0.3,0.2,0.5,0.6,0.5c0.1,0,0.2,0,0.3,0
				s0.2,0,0.2-0.1v-5.8C198.3,73.4,198.1,73.3,197.7,73.3z"/>
			
				<linearGradient id="SVGID_19_" gradientUnits="userSpaceOnUse" x1="197" y1="40.67" x2="198.4041" y2="40.67" gradientTransform="matrix(1 0 0 -1 0 112)">
				<stop  offset="0" style="stop-color:#76C593"/>
				<stop  offset="1" style="stop-color:#2BB673"/>
			</linearGradient>
			<path class="st20" d="M197.7,70.7c-0.2,0-0.4,0.1-0.5,0.2c-0.1,0.1-0.2,0.3-0.2,0.5s0.1,0.3,0.2,0.5c0.1,0.1,0.3,0.2,0.5,0.2
				c0.2,0,0.4-0.1,0.5-0.2c0.1-0.1,0.2-0.3,0.2-0.5s-0.1-0.3-0.2-0.5C198.1,70.7,197.9,70.7,197.7,70.7z"/>
			
				<linearGradient id="SVGID_20_" gradientUnits="userSpaceOnUse" x1="200.0255" y1="35.52" x2="205.8741" y2="35.52" gradientTransform="matrix(1 0 0 -1 0 112)">
				<stop  offset="0" style="stop-color:#76C593"/>
				<stop  offset="1" style="stop-color:#2BB673"/>
			</linearGradient>
			<path class="st21" d="M205.1,73.9c-0.3-0.3-0.6-0.4-0.9-0.6c-0.4-0.1-0.7-0.2-1.1-0.2c-0.4,0-0.8,0.1-1.2,0.2
				c-0.4,0.2-0.7,0.4-1,0.7s-0.5,0.6-0.6,1c-0.1,0.4-0.2,0.9-0.2,1.4c0,1.1,0.3,1.9,0.9,2.5s1.4,0.9,2.5,0.9c0.3,0,0.6,0,0.8-0.1
				s0.5-0.1,0.7-0.2c0.2-0.1,0.4-0.2,0.5-0.3c0.1-0.1,0.2-0.2,0.2-0.4c0-0.2-0.1-0.4-0.3-0.5c-0.2,0.2-0.4,0.3-0.7,0.4
				c-0.3,0.1-0.6,0.2-1,0.2c-1.3,0-2.1-0.6-2.4-1.8l4.2-0.6c0.2,0,0.3-0.1,0.4-0.2c0.1-0.1,0.1-0.2,0.1-0.4c0-0.4-0.1-0.8-0.2-1.1
				S205.3,74.2,205.1,73.9z M201.1,76.3c0-0.7,0.2-1.3,0.6-1.7c0.4-0.4,0.8-0.6,1.4-0.6c0.6,0,1,0.2,1.3,0.5s0.5,0.7,0.5,1.2
				L201.1,76.3z"/>
			
				<linearGradient id="SVGID_21_" gradientUnits="userSpaceOnUse" x1="207.4551" y1="35.58" x2="211.3818" y2="35.58" gradientTransform="matrix(1 0 0 -1 0 112)">
				<stop  offset="0" style="stop-color:#76C593"/>
				<stop  offset="1" style="stop-color:#2BB673"/>
			</linearGradient>
			<path class="st22" d="M210.3,73.2c-0.5,0-1,0.1-1.4,0.2s-0.7,0.3-1,0.4c-0.2,0.1-0.3,0.2-0.4,0.4s-0.1,0.3-0.1,0.5v4.6
				c0,0.3,0.2,0.5,0.6,0.5c0.1,0,0.2,0,0.3,0s0.2,0,0.2-0.1v-5.1c0.2-0.1,0.5-0.2,0.8-0.3c0.3-0.1,0.7-0.1,1.1-0.1
				c0.1,0,0.3,0,0.4,0c0.1,0,0.3,0,0.4,0.1c0.1-0.1,0.1-0.1,0.1-0.2c0-0.1,0-0.2,0-0.3C211.4,73.3,211,73.2,210.3,73.2z"/>
			
				<linearGradient id="SVGID_22_" gradientUnits="userSpaceOnUse" x1="212.6769" y1="36.395" x2="216.1532" y2="36.395" gradientTransform="matrix(1 0 0 -1 0 112)">
				<stop  offset="0" style="stop-color:#76C593"/>
				<stop  offset="1" style="stop-color:#2BB673"/>
			</linearGradient>
			<path class="st23" d="M215.9,78.6c-0.1,0.1-0.3,0.1-0.5,0.2s-0.4,0.1-0.5,0.1c-0.4,0-0.7-0.1-0.9-0.2c-0.2-0.2-0.3-0.4-0.3-0.8
				v-3.5h1.9c0.3,0,0.4-0.2,0.4-0.5c0-0.1,0-0.2,0-0.3c0-0.1-0.1-0.1-0.1-0.2h-2.2v-1.6c0-0.3-0.2-0.5-0.6-0.5c-0.1,0-0.2,0-0.3,0
				c-0.1,0-0.2,0-0.2,0.1V78c0,0.7,0.2,1.1,0.6,1.4c0.4,0.3,0.9,0.4,1.6,0.4c0.4,0,0.8-0.1,1-0.2c0.2-0.1,0.4-0.3,0.4-0.5
				c0-0.1,0-0.2-0.1-0.3C216,78.8,216,78.7,215.9,78.6z"/>
			
				<linearGradient id="SVGID_23_" gradientUnits="userSpaceOnUse" x1="217.3803" y1="35.525" x2="222.6315" y2="35.525" gradientTransform="matrix(1 0 0 -1 0 112)">
				<stop  offset="0" style="stop-color:#76C593"/>
				<stop  offset="1" style="stop-color:#2BB673"/>
			</linearGradient>
			<path class="st24" d="M221.9,73.7c-0.5-0.3-1.1-0.5-1.9-0.5c-0.4,0-0.7,0-1,0.1c-0.3,0.1-0.6,0.2-0.9,0.3
				c-0.1,0.1-0.2,0.2-0.3,0.2s-0.1,0.2-0.1,0.3c0,0.1,0,0.2,0.1,0.3c0.1,0.1,0.1,0.2,0.2,0.2c0.3-0.1,0.6-0.3,0.9-0.4
				s0.7-0.2,1.1-0.2c0.5,0,0.8,0.1,1.1,0.3s0.4,0.5,0.4,1v0.4l-1.9,0.2c-0.7,0.1-1.3,0.3-1.6,0.6c-0.4,0.3-0.6,0.8-0.6,1.4
				c0,0.6,0.2,1.1,0.7,1.5s1.1,0.5,2,0.5c0.5,0,0.9-0.1,1.2-0.1c0.4-0.1,0.6-0.2,0.9-0.3c0.1-0.1,0.3-0.2,0.4-0.3s0.1-0.3,0.1-0.5
				v-3.2C222.6,74.6,222.4,74,221.9,73.7z M221.6,78.6c-0.1,0.1-0.3,0.2-0.5,0.2s-0.6,0.1-0.9,0.1c-0.5,0-0.9-0.1-1.2-0.3
				s-0.4-0.4-0.4-0.8c0-0.3,0.1-0.6,0.3-0.7s0.6-0.3,1.1-0.3l1.7-0.2L221.6,78.6L221.6,78.6z"/>
		</g>
	</g>
	<g>
		<g>
			<path d="M215.5,46.8c-0.1,0-0.2,0-0.3-0.1c-0.1,0-0.2-0.1-0.3-0.2l-0.7-0.7c-0.3,0.3-0.7,0.6-1.1,0.8s-0.9,0.3-1.6,0.3
				c-0.5,0-0.9-0.1-1.3-0.2s-0.7-0.3-1-0.5c-0.3-0.2-0.5-0.5-0.6-0.9c-0.1-0.3-0.2-0.7-0.2-1.1c0-0.6,0.2-1.2,0.5-1.6
				c0.3-0.4,0.8-0.7,1.3-0.9c-0.2-0.3-0.4-0.5-0.5-0.8s-0.2-0.5-0.2-0.8c0-0.6,0.2-1,0.6-1.3s0.9-0.5,1.6-0.5c0.5,0,0.9,0.1,1.1,0.2
				c0.3,0.1,0.4,0.3,0.4,0.5c0,0.1,0,0.2-0.1,0.3c-0.1,0.1-0.1,0.2-0.2,0.2c-0.1-0.1-0.3-0.2-0.5-0.2c-0.2,0-0.4-0.1-0.6-0.1
				c-0.4,0-0.6,0.1-0.8,0.3c-0.2,0.2-0.3,0.4-0.3,0.7c0,0.3,0.1,0.5,0.2,0.8s0.4,0.5,0.6,0.8l2.6,2.7c0.1-0.3,0.2-0.6,0.3-1
				c0.1-0.4,0.1-0.8,0.1-1.3c0.1,0,0.2-0.1,0.3-0.1c0.1,0,0.2,0,0.3,0c0.4,0,0.6,0.2,0.6,0.6c0,0.5-0.1,0.9-0.2,1.4
				s-0.3,0.9-0.5,1.3l1.2,1.2C216.1,46.5,215.9,46.8,215.5,46.8z M211.6,45.8c0.3,0,0.6-0.1,1-0.2c0.4-0.1,0.7-0.3,1-0.6l-2.6-2.8
				c-0.2,0-0.3,0.1-0.5,0.2s-0.3,0.2-0.4,0.4s-0.2,0.3-0.3,0.5c-0.1,0.2-0.1,0.4-0.1,0.7c0,0.5,0.2,1,0.5,1.3
				C210.5,45.7,211,45.8,211.6,45.8z"/>
		</g>
		<g>
			<path d="M169.3,29.2c-1.6-0.8-3.1-1.1-4.6-1.1h-7.5v11.4c0,1.2,1,2.2,2.2,2.2h1.5v-9.9h3.8c0.9,0,1.8,0.2,2.8,0.7
				c1.9,0.9,2.8,2.6,2.8,4.9c0,2.3-0.9,4-2.8,4.9c-0.9,0.5-1.9,0.7-2.8,0.7h-2h-3.3c-1.2,0-2.3,1-2.3,2.3v1.5h7.5
				c1.6,0,3.1-0.4,4.6-1.2c3.1-1.6,4.7-4.3,4.7-8.2C173.9,33.5,172.4,30.8,169.3,29.2z"/>
			<path d="M202.9,31.8c1.2,0,2.2-1,2.2-2.2v-1.5H192v18.7h13.1v-1.5c0-1.2-1-2.2-2.2-2.2h-7.1v-3.8h7.9v-3.7h-7.9v-3.7L202.9,31.8
				L202.9,31.8z"/>
			<path d="M190.6,35.5c0-3.1-1.2-5.3-3.7-6.5c-1.3-0.6-2.5-1-3.7-1h-7.5v7.7c0,1.2,1,2.2,2.2,2.2h1.5v-6.2h3.8
				c0.6,0,1.2,0.2,1.9,0.5c1.2,0.6,1.9,1.7,1.9,3.3c0,1.5-0.6,2.6-1.9,3.3c-0.6,0.3-1.3,0.5-1.9,0.5h-7.5v7.5h3.7V43h3.8
				c0.2,0,0.5,0,0.9,0l1.4,3.8h4l-1.9-5.1C189.5,40.4,190.6,38.3,190.6,35.5z"/>
			<path d="M144.1,28l-5.7,18.8h2.1c1,0,1.9-0.6,2.1-1.6l0.6-2v0.1h2.8c1.2,0,2.2-1,2.2-2.2v-1.5h-3.9l2.4-7.7l5.4,13.5
				c0.3,0.8,1.2,1.4,2.1,1.4h2.3L149,28L144.1,28L144.1,28z"/>
			<path d="M129.1,36.1l-5.7-8.1h-2.9v1.9V30v16.8h1.5c1.2,0,2.3-1,2.3-2.3v-9.1v0l1.6,2.3l3.3,4.8l0,0l4.8-7.1v11.4h3.8V28h-2.9
				L129.1,36.1z"/>
		</g>
	</g>
	<g>
		<path d="M147.6,67.9h13.1v-1.5c0-1.2-1-2.2-2.2-2.2h-7.1v-3.8h7.9v-3.7h-7.9V53h7.1c1.2,0,2.2-1,2.2-2.2v-1.5h-13.1V67.9z"/>
		<path d="M207.9,56.7c0-3.1-1.2-5.3-3.7-6.5c-1.3-0.6-2.5-1-3.7-1h-7.5v7.7c0,1.2,1,2.2,2.2,2.2h1.5v-6.2h3.8
			c0.6,0,1.2,0.2,1.9,0.5c1.2,0.6,1.9,1.7,1.9,3.3c0,1.5-0.6,2.6-1.9,3.3c-0.6,0.3-1.3,0.5-1.9,0.5h-7.5v7.5h3.7v-3.8h3.8
			c0.2,0,0.5,0,0.9-0.1l1.4,3.8h4l-1.9-5.1C206.9,61.5,207.9,59.5,207.9,56.7z"/>
		<path d="M168.8,56.7c-1.5,0-2.6-0.3-3.1-1c-0.2-0.2-0.3-0.5-0.3-0.8v-0.3c0.1-1.1,1.3-1.7,3.4-1.7c1,0,1.9,0.1,2.7,0.4
			c0.1,0,0.3,0.1,0.5,0.2c0.9,0.4,1.9,0.2,2.6-0.5l1.4-1.5c-0.5-0.4-1.1-0.9-2-1.3c-1.6-0.7-3.3-1.1-5.2-1.1c-2,0-3.6,0.5-4.9,1.4
			c-1.3,0.9-2,2.2-2.2,3.6c0,0.2-0.1,0.5-0.1,0.7c0,1.2,0.4,2.3,1.3,3.3c1.3,1.5,3.2,2.2,5.9,2.2c1.5,0,2.6,0.3,3.1,1
			c0.2,0.3,0.4,0.6,0.4,1v0.1c-0.2,1.2-1.3,1.8-3.5,1.8c-0.9,0-1.8-0.1-2.6-0.4c-0.1,0-0.3-0.1-0.6-0.3c-0.9-0.4-1.9-0.2-2.6,0.5
			l-1.4,1.5c0.5,0.4,1.1,0.8,2,1.3c1.6,0.7,3.3,1.1,5.2,1.1c2,0,3.6-0.5,4.9-1.4c1.3-0.9,2.1-2.1,2.2-3.6c0-0.2,0.1-0.5,0.1-0.8
			c0-1.2-0.4-2.3-1.3-3.3C173.5,57.4,171.5,56.7,168.8,56.7z"/>
		<path d="M176.9,53h5.6v15h3.8V53h3.2c1.3,0,2.3-1,2.3-2.3v-1.4h-14.9V53z"/>
		<path d="M134.7,49.2l-5.7,18.8h2.1c1,0,1.9-0.6,2.1-1.6l4.1-13.3l3.2,7.8h-3.6v1.5c0,1.2,1,2.2,2.2,2.2h2.8v-0.1l0.8,2
			c0.3,0.8,1.2,1.4,2.1,1.4h2.3l-7.6-18.8L134.7,49.2L134.7,49.2z"/>
		<path d="M218,49.2h-4.8l-5.7,18.8h2.1c1,0,1.9-0.6,2.1-1.6l0.5-1.7h2.7c1.2,0,2.2-1,2.2-2.2v-1.5h-3.8l2.4-7.8l5.4,13.5
			c0.3,0.8,1.2,1.4,2.1,1.4h2.3L218,49.2z"/>
		<path d="M119.6,57.3l-5.7-8.1H111V51v0.1v16.8h1.5c1.2,0,2.3-1,2.3-2.3v-9.2v0l1.6,2.3l3.3,4.8l0,0l4.8-7.1v11.4h3.8V49.2h-2.9
			L119.6,57.3z"/>
	</g>
</g>
</svg>
