<?xml version="1.0" encoding="utf-8"?>
<!-- Generator: Adobe Illustrator 24.0.0, SVG Export Plug-In . SVG Version: 6.00 Build 0)  -->
<svg version="1.1" id="Isolation_Mode" xmlns="http://www.w3.org/2000/svg" xmlns:xlink="http://www.w3.org/1999/xlink" x="0px"
	 y="0px" viewBox="0 0 355.95 110.3" style="enable-background:new 0 0 355.95 110.3;" xml:space="preserve">
<style type="text/css">
	.st0{fill:#FBE011;}
	.st1{fill:#FFFFFF;}
	.st2{fill:url(#SVGID_1_);}
	.st3{fill:url(#SVGID_2_);}
	.st4{fill:url(#SVGID_3_);}
	.st5{fill:url(#SVGID_4_);}
	.st6{fill:url(#SVGID_5_);}
	.st7{fill:url(#SVGID_6_);}
	.st8{fill:url(#SVGID_7_);}
	.st9{fill:url(#SVGID_8_);}
	.st10{fill:url(#SVGID_9_);}
	.st11{fill:url(#SVGID_10_);}
	.st12{fill:url(#SVGID_11_);}
	.st13{fill:url(#SVGID_12_);}
	.st14{fill:url(#SVGID_13_);}
	.st15{fill:url(#SVGID_14_);}
	.st16{fill:url(#SVGID_15_);}
	.st17{fill:url(#SVGID_16_);}
	.st18{fill:url(#SVGID_17_);}
	.st19{fill:url(#SVGID_18_);}
	.st20{fill:url(#SVGID_19_);}
	.st21{fill:url(#SVGID_20_);}
	.st22{fill:url(#SVGID_21_);}
	.st23{fill:url(#SVGID_22_);}
	.st24{fill:url(#SVGID_23_);}
</style>
<g>
	<g>
		<polygon class="st0" points="57.9,12.46 63.2,14.51 115.55,97.71 9.76,97.71 4.46,95.65 110.13,95.65 		"/>
		<polygon class="st1" points="57.9,12.46 4.46,95.65 110.13,95.65 		"/>
		<linearGradient id="SVGID_1_" gradientUnits="userSpaceOnUse" x1="23.8008" y1="60.1994" x2="91.4315" y2="60.1994">
			<stop  offset="0" style="stop-color:#76C593"/>
			<stop  offset="1" style="stop-color:#2BB673"/>
		</linearGradient>
		<polygon class="st2" points="57.62,33.73 23.8,86.67 91.43,86.67 		"/>
	</g>
	<g>
		<g>
			<g>
				<linearGradient id="SVGID_2_" gradientUnits="userSpaceOnUse" x1="61.561" y1="68.6591" x2="83.8831" y2="68.6591">
					<stop  offset="0" style="stop-color:#76C593"/>
					<stop  offset="1" style="stop-color:#2BB673"/>
				</linearGradient>
				<path class="st3" d="M61.88,48.41c0.81-0.77,1.36-0.26,2.36,0.49c0.9,0.67,1.26,2.19,2.16,3.29c1.52,1.85,3.55,3.28,4.89,3.18
					c1.22-0.06,1.36-0.12,1.73-0.31c0.2-0.1-0.91-0.25-1.54-0.52c-1.99-0.84-3.23-3.62-2.26-5.8c1.17-2.65,3.84-3.55,6.48-2.42
					c1.58,0.68,2.55,2.53,2.44,4.41c-0.11,1.85-0.96,3.11-2.72,3.78c-0.24,0.09-0.21,0.19,0.02,0.25c2.7,0.75,4.59,2.54,6.05,4.79
					c1.89,2.91,2.46,6.2,2.38,9.63c-0.02,0.91-0.05,1.83-0.15,2.73c-0.09,0.85-0.63,1.35-1.3,1.34c-0.63-0.01-1.25-0.65-1.29-1.43
					c-0.08-1.45-0.09-2.91-0.19-4.36c-0.05-0.63-0.24-1.26-0.41-1.88c-0.04-0.14-1.07-2.24-1.19-2.36
					c-0.12,0.15-0.33,1.87-0.35,2.02c-0.21,1.61-0.28,2.63-0.01,3.96c0.34,1.68,1.96,7.78,1.67,10.82
					c-0.08,0.85-1.69-0.05-2.37,0.64c-0.51,0.52-1.03,2.69-1.28,3.85c-0.07,0.31-0.19,0.68-0.42,0.88
					c-0.24,0.21-0.68,0.41-0.95,0.33c-0.2-0.06-0.62-0.56-0.64-0.87c-0.03-0.83-0.07-1.92-0.1-3.29c-0.01-0.3,0.02-0.6-0.1-0.9
					c-0.14,0.29-0.26,0.59-0.27,0.89c-0.08,2.34-0.05,1.38-0.12,3.72c-0.04,1.52-0.12,3.03-0.22,4.54
					c-0.03,0.54-0.15,1.07-0.71,1.37c-1.31,0.7-2.48-0.01-2.56-1.58c-0.04-0.87-0.04-1.74-0.07-2.62c-0.12-3.12,0.11-5.48-0.18-5.96
					c-0.29-0.48-1.39,0.01-2.23-0.51c-0.84-0.52,0.07-7.56,1.25-10.07c1.1-2.33,1.16-2.22,1.18-4.3c0-0.56,0.1-2.51,0.03-3.07
					c-0.03-0.25,0.3-3.42-0.66-3.74c-1.17-0.39-3.59-2.09-5.36-4.1c-1.6-1.82-2.59-3.59-3.04-4.52
					C61.18,49.37,61.88,48.41,61.88,48.41z"/>
			</g>
		</g>
		<g>
			<g>
				<path class="st0" d="M61.5,48.41c0.81-0.77,1.36-0.26,2.36,0.49c0.9,0.67,1.26,2.19,2.16,3.29c1.52,1.85,3.55,3.28,4.89,3.18
					c1.22-0.06,1.36-0.12,1.73-0.31c0.2-0.1-0.91-0.25-1.54-0.52c-1.99-0.84-3.23-3.62-2.26-5.8c1.17-2.65,3.84-3.55,6.48-2.42
					c1.58,0.68,2.55,2.53,2.44,4.41c-0.11,1.85-0.96,3.11-2.72,3.78c-0.24,0.09-0.21,0.19,0.02,0.25c2.7,0.75,4.59,2.54,6.05,4.79
					c1.89,2.91,2.46,6.2,2.38,9.63c-0.02,0.91-0.05,1.83-0.15,2.73c-0.09,0.85-0.63,1.35-1.3,1.34c-0.63-0.01-1.25-0.65-1.29-1.43
					c-0.08-1.45-0.09-2.91-0.19-4.36c-0.05-0.63-0.24-1.26-0.41-1.88c-0.04-0.14-1.07-2.24-1.19-2.36
					c-0.12,0.15-0.33,1.87-0.35,2.02c-0.21,1.61-0.28,2.63-0.01,3.96c0.34,1.68,1.96,7.78,1.67,10.82
					c-0.08,0.85-1.69-0.05-2.37,0.64c-0.51,0.52-1.03,2.69-1.28,3.85c-0.07,0.31-0.19,0.68-0.42,0.88
					c-0.24,0.21-0.68,0.41-0.95,0.33c-0.2-0.06-0.62-0.56-0.64-0.87c-0.03-0.83-0.07-1.92-0.1-3.29c-0.01-0.3,0.02-0.6-0.1-0.9
					c-0.14,0.29-0.26,0.59-0.27,0.89c-0.08,2.34-0.05,1.38-0.12,3.72c-0.04,1.52-0.12,3.03-0.22,4.54
					c-0.03,0.54-0.15,1.07-0.71,1.37c-1.31,0.7-2.48-0.01-2.56-1.58c-0.04-0.87-0.04-1.74-0.07-2.62c-0.12-3.12,0.11-5.48-0.18-5.96
					c-0.29-0.48-1.39,0.01-2.23-0.51c-0.84-0.52,0.07-7.56,1.25-10.07c1.1-2.33,1.16-2.22,1.18-4.3c0-0.56,0.1-2.51,0.03-3.07
					c-0.03-0.25,0.3-3.42-0.66-3.74c-1.17-0.39-3.59-2.09-5.36-4.1c-1.6-1.82-2.59-3.59-3.04-4.52C60.8,49.37,61.5,48.41,61.5,48.41
					z"/>
			</g>
		</g>
		<linearGradient id="SVGID_3_" gradientUnits="userSpaceOnUse" x1="32.2293" y1="68.6673" x2="67.7542" y2="68.6673">
			<stop  offset="0" style="stop-color:#76C593"/>
			<stop  offset="1" style="stop-color:#2BB673"/>
		</linearGradient>
		<path class="st4" d="M66.99,64.79c-0.67-0.16-1.61,0.39-1.77,1.07c-0.71,3.01-4.02,3.47-4.09,3.48c-0.43,0.06-0.64-0.18-0.91-0.32
			c1.7-0.16,3.03-1.57,3.03-3.3c0-1.84-1.49-3.33-3.33-3.33c-1.84,0-3.33,1.49-3.33,3.33c0,1.74,1.33,3.14,3.03,3.3
			c-0.27,0.13-0.61,0.35-0.9,0.32c-0.08-0.01-2.48-0.65-4.1-3.48c-0.05-0.08-0.1-0.16-0.15-0.24c-0.15-0.46-0.45-0.85-0.45-0.85
			c-0.48-0.66-1.08-0.88-1.7-1.42c-3.42-2.96-5.99-5.14-9.44-8.09c2.88-1.82,3.75-3.47,3.14-5.87c-0.6-2.37-2.37-3.52-4.57-3.54
			c-2.27-0.02-3.86,1.41-4.55,3.62c-0.67,2.14,0.39,4,3.47,6.08c-6.08,3.45-8.45,9.42-8.1,15.9c0.17,3.2,0.77,4.11,2.15,2.98
			c1.24-1.03-0.26-8.33,3.87-10.8c-0.42,1.67-3.46,14.14-3.88,15.58c-0.55,1.9-0.04,2.95,2.09,2.76c1.67-0.16,2.07-0.14,2.24,1.52
			c0.08,0.78,0.35,1.73,0.58,2.03c0.28,0.38,1.34,0.36,1.59,0.2c0.14-0.09,0.74-3.73,0.77-3.64c0.32,0.87,0.13,7.14,0.47,8.13
			c0.29,0.84,0.76,1.3,1.83,1.29c1.07-0.01,1.46-0.55,1.55-1.34c0.23-1.98-0.01-4.45,0.19-6.43c0.07-0.68,0.8-1.68,1.41-1.84
			c3.13-0.85,3.15-0.77,2.22-3.96c-0.28-0.96-0.64-1.9-0.88-2.86c-0.9-3.64-2.69-7.15-1.77-11.51c0.99,0.6,1.76,1.01,2.47,1.51
			c1.49,1.05,0.94,0.48,2.43,1.5c0.24,0.17,0.53,0.29,0.83,0.38c1.3,2.61,2.9,3.77,4.17,4.53l0.48,3.75
			c0.01,0.09,0.01,0.18,0.01,0.27l-0.49,8.89c0,0.79,0.64,1.43,1.43,1.43c0.79,0,1.43-0.64,1.43-1.43h0.02l0.25-6.36l0.12-0.12
			l0.37,6.48c0.79,0,1.55-0.89,1.87-1.87l0.43-4.49l0.19-2.56l0.41-3.95c1.43-0.51,3.46-2.12,4.54-5.09
			C67.9,65.78,67.67,64.95,66.99,64.79z"/>
		<path class="st0" d="M67.42,64.79c-0.67-0.16-1.61,0.39-1.77,1.07c-0.71,3.01-4.02,3.47-4.09,3.48c-0.43,0.06-0.64-0.18-0.91-0.32
			c1.7-0.16,3.03-1.57,3.03-3.3c0-1.84-1.49-3.33-3.33-3.33c-1.84,0-3.33,1.49-3.33,3.33c0,1.74,1.33,3.14,3.03,3.3
			c-0.27,0.13-0.61,0.35-0.9,0.32c-0.08-0.01-2.48-0.65-4.1-3.48c-0.05-0.08-0.1-0.16-0.15-0.24c-0.15-0.46-0.45-0.85-0.45-0.85
			c-0.48-0.66-1.08-0.88-1.7-1.42c-3.42-2.96-5.99-5.14-9.44-8.09c2.88-1.82,3.75-3.47,3.14-5.87c-0.6-2.37-2.37-3.52-4.57-3.54
			c-2.27-0.02-3.86,1.41-4.55,3.62c-0.67,2.14,0.39,4,3.47,6.08c-6.08,3.45-8.45,9.42-8.1,15.9c0.17,3.2,0.77,4.11,2.15,2.98
			c1.24-1.03-0.26-8.33,3.87-10.8c-0.42,1.67-3.46,14.14-3.88,15.58c-0.55,1.9-0.04,2.95,2.09,2.76c1.67-0.16,2.07-0.14,2.24,1.52
			c0.08,0.78,0.35,1.73,0.58,2.03c0.28,0.38,1.34,0.36,1.59,0.2c0.14-0.09,0.74-3.73,0.77-3.64c0.32,0.87,0.13,7.14,0.47,8.13
			c0.29,0.84,0.76,1.3,1.83,1.29c1.07-0.01,1.46-0.55,1.55-1.34c0.23-1.98-0.01-4.45,0.19-6.43c0.07-0.68,0.8-1.68,1.41-1.84
			c3.13-0.85,3.15-0.77,2.22-3.96c-0.28-0.96-0.64-1.9-0.88-2.86c-0.9-3.64-2.69-7.15-1.77-11.51c0.99,0.6,1.76,1.01,2.47,1.51
			c1.49,1.05,0.94,0.48,2.43,1.5c0.24,0.17,0.53,0.29,0.83,0.38c1.3,2.61,2.9,3.77,4.17,4.53l0.48,3.75
			c0.01,0.09,0.01,0.18,0.01,0.27l-0.49,8.89c0,0.79,0.64,1.43,1.43,1.43c0.79,0,1.43-0.64,1.43-1.43h0.02l0.25-6.36l0.12-0.12
			l0.37,6.48c0.79,0,1.55-0.89,1.87-1.87l0.43-4.49l0.19-2.56l0.41-3.95c1.43-0.51,3.46-2.12,4.54-5.09
			C68.33,65.78,68.09,64.95,67.42,64.79z"/>
	</g>
</g>
<g>
	<g>
		
			<rect x="225.73" y="71.4" transform="matrix(-1 -1.224647e-16 1.224647e-16 -1 454.8427 152.229)" class="st0" width="3.39" height="9.42"/>
		<g>
			<linearGradient id="SVGID_4_" gradientUnits="userSpaceOnUse" x1="107.511" y1="75.4803" x2="114.123" y2="75.4803">
				<stop  offset="0" style="stop-color:#76C593"/>
				<stop  offset="1" style="stop-color:#2BB673"/>
			</linearGradient>
			<path class="st5" d="M113.74,78.19c-0.24,0.18-0.53,0.34-0.88,0.47c-0.35,0.13-0.76,0.2-1.23,0.2c-0.45,0-0.85-0.07-1.21-0.21
				c-0.36-0.14-0.67-0.35-0.93-0.63c-0.26-0.28-0.46-0.63-0.61-1.05c-0.15-0.42-0.22-0.91-0.22-1.47c0-0.55,0.07-1.05,0.22-1.47
				c0.15-0.43,0.36-0.78,0.62-1.06c0.26-0.28,0.57-0.49,0.93-0.64c0.35-0.15,0.74-0.22,1.16-0.22c0.51,0,0.92,0.07,1.24,0.22
				c0.32,0.15,0.59,0.3,0.83,0.46c0.1-0.05,0.19-0.11,0.27-0.2c0.08-0.09,0.12-0.2,0.12-0.33c0-0.13-0.06-0.26-0.18-0.39
				c-0.12-0.13-0.3-0.25-0.52-0.35c-0.22-0.1-0.49-0.19-0.8-0.25c-0.31-0.06-0.66-0.1-1.03-0.1c-0.54,0-1.05,0.09-1.53,0.27
				c-0.49,0.18-0.91,0.45-1.27,0.82c-0.36,0.36-0.65,0.82-0.87,1.36c-0.21,0.54-0.32,1.17-0.32,1.89c0,0.72,0.1,1.35,0.31,1.88
				c0.21,0.54,0.49,0.98,0.85,1.34c0.36,0.36,0.78,0.63,1.27,0.81c0.49,0.18,1.02,0.27,1.59,0.27c0.56,0,1.03-0.06,1.39-0.17
				c0.36-0.11,0.65-0.24,0.86-0.39c0.22-0.15,0.33-0.33,0.33-0.52c0-0.13-0.04-0.24-0.12-0.33
				C113.92,78.3,113.83,78.23,113.74,78.19z"/>
			<linearGradient id="SVGID_5_" gradientUnits="userSpaceOnUse" x1="115.1189" y1="76.4756" x2="121.3213" y2="76.4756">
				<stop  offset="0" style="stop-color:#76C593"/>
				<stop  offset="1" style="stop-color:#2BB673"/>
			</linearGradient>
			<path class="st6" d="M120.47,74.05c-0.27-0.29-0.59-0.51-0.97-0.67c-0.38-0.15-0.8-0.23-1.27-0.23c-0.46,0-0.89,0.08-1.27,0.23
				c-0.38,0.15-0.71,0.38-0.98,0.67c-0.27,0.29-0.48,0.64-0.63,1.05c-0.15,0.41-0.22,0.87-0.22,1.38c0,0.51,0.07,0.97,0.22,1.38
				c0.15,0.41,0.35,0.76,0.63,1.05c0.27,0.29,0.6,0.51,0.98,0.67c0.38,0.15,0.81,0.23,1.28,0.23c0.47,0,0.9-0.08,1.28-0.23
				c0.38-0.15,0.71-0.38,0.97-0.67c0.27-0.29,0.48-0.64,0.62-1.05c0.15-0.41,0.22-0.87,0.22-1.38c0-0.51-0.07-0.97-0.22-1.38
				C120.95,74.69,120.74,74.34,120.47,74.05z M119.69,78.26c-0.35,0.43-0.83,0.64-1.46,0.64c-0.63,0-1.12-0.21-1.47-0.63
				c-0.35-0.42-0.52-1.02-0.52-1.79c0-0.76,0.18-1.36,0.53-1.79c0.35-0.43,0.84-0.64,1.46-0.64c0.62,0,1.1,0.21,1.45,0.64
				c0.35,0.43,0.53,1.02,0.53,1.79C120.2,77.24,120.03,77.83,119.69,78.26z"/>
			<linearGradient id="SVGID_6_" gradientUnits="userSpaceOnUse" x1="122.6574" y1="76.4756" x2="128.8602" y2="76.4756">
				<stop  offset="0" style="stop-color:#76C593"/>
				<stop  offset="1" style="stop-color:#2BB673"/>
			</linearGradient>
			<path class="st7" d="M128.01,74.05c-0.27-0.29-0.59-0.51-0.97-0.67c-0.38-0.15-0.8-0.23-1.27-0.23c-0.46,0-0.89,0.08-1.27,0.23
				c-0.38,0.15-0.71,0.38-0.98,0.67s-0.48,0.64-0.63,1.05c-0.15,0.41-0.22,0.87-0.22,1.38c0,0.51,0.07,0.97,0.22,1.38
				c0.15,0.41,0.35,0.76,0.63,1.05c0.27,0.29,0.6,0.51,0.98,0.67c0.38,0.15,0.81,0.23,1.28,0.23c0.47,0,0.9-0.08,1.28-0.23
				c0.38-0.15,0.71-0.38,0.97-0.67c0.27-0.29,0.48-0.64,0.62-1.05c0.14-0.41,0.22-0.87,0.22-1.38c0-0.51-0.07-0.97-0.22-1.38
				C128.49,74.69,128.28,74.34,128.01,74.05z M127.22,78.26c-0.35,0.43-0.83,0.64-1.46,0.64c-0.63,0-1.12-0.21-1.47-0.63
				c-0.35-0.42-0.53-1.02-0.53-1.79c0-0.76,0.18-1.36,0.53-1.79c0.35-0.43,0.84-0.64,1.46-0.64c0.62,0,1.1,0.21,1.45,0.64
				c0.35,0.43,0.53,1.02,0.53,1.79C127.74,77.24,127.57,77.83,127.22,78.26z"/>
			<linearGradient id="SVGID_7_" gradientUnits="userSpaceOnUse" x1="130.5508" y1="77.6617" x2="136.3041" y2="77.6617">
				<stop  offset="0" style="stop-color:#76C593"/>
				<stop  offset="1" style="stop-color:#2BB673"/>
			</linearGradient>
			<path class="st8" d="M135.37,73.93c-0.29-0.27-0.63-0.47-1.02-0.59c-0.4-0.13-0.82-0.19-1.26-0.19c-0.44,0-0.82,0.06-1.17,0.17
				c-0.34,0.11-0.63,0.24-0.88,0.38c-0.2,0.12-0.33,0.23-0.39,0.34c-0.06,0.11-0.1,0.25-0.1,0.44v7.2c0,0.34,0.2,0.5,0.59,0.5
				c0.11,0,0.21-0.01,0.3-0.03c0.09-0.02,0.16-0.04,0.2-0.06v-2.64c0.18,0.1,0.41,0.19,0.7,0.26c0.28,0.07,0.58,0.11,0.9,0.11
				c0.45,0,0.86-0.07,1.23-0.2c0.38-0.14,0.7-0.34,0.97-0.62c0.27-0.28,0.48-0.62,0.63-1.04c0.15-0.42,0.23-0.91,0.23-1.47
				c0-0.58-0.08-1.08-0.25-1.5C135.88,74.54,135.66,74.2,135.37,73.93z M134.62,78.32c-0.39,0.39-0.9,0.58-1.53,0.58
				c-0.32,0-0.6-0.04-0.83-0.12c-0.24-0.08-0.44-0.19-0.61-0.31v-4.02c0.18-0.1,0.39-0.19,0.61-0.27c0.23-0.08,0.5-0.12,0.83-0.12
				c0.28,0,0.55,0.04,0.8,0.12c0.25,0.08,0.48,0.22,0.67,0.41c0.2,0.19,0.35,0.44,0.46,0.75c0.11,0.31,0.17,0.69,0.17,1.13
				C135.2,77.32,135.01,77.94,134.62,78.32z"/>
			<linearGradient id="SVGID_8_" gradientUnits="userSpaceOnUse" x1="137.6406" y1="76.4756" x2="143.4895" y2="76.4756">
				<stop  offset="0" style="stop-color:#76C593"/>
				<stop  offset="1" style="stop-color:#2BB673"/>
			</linearGradient>
			<path class="st9" d="M142.69,73.93c-0.25-0.25-0.55-0.44-0.89-0.58c-0.35-0.14-0.72-0.2-1.13-0.2c-0.44,0-0.84,0.08-1.21,0.23
				c-0.37,0.15-0.69,0.37-0.96,0.65c-0.27,0.28-0.48,0.62-0.63,1.03c-0.15,0.4-0.22,0.87-0.22,1.38c0,1.1,0.31,1.94,0.92,2.51
				c0.61,0.57,1.45,0.86,2.5,0.86c0.3,0,0.58-0.03,0.84-0.08c0.26-0.05,0.49-0.13,0.68-0.22c0.2-0.09,0.35-0.2,0.46-0.31
				c0.11-0.12,0.17-0.24,0.17-0.37c0-0.22-0.11-0.39-0.33-0.52c-0.18,0.15-0.43,0.28-0.74,0.41c-0.31,0.13-0.65,0.19-1.04,0.19
				c-1.32,0-2.1-0.6-2.35-1.79l4.2-0.59c0.16-0.02,0.29-0.07,0.38-0.16c0.09-0.09,0.14-0.23,0.14-0.43c0-0.41-0.07-0.78-0.21-1.12
				S142.94,74.18,142.69,73.93z M138.7,76.27c0.02-0.72,0.21-1.27,0.57-1.66c0.36-0.39,0.82-0.58,1.38-0.58
				c0.55,0,0.97,0.16,1.27,0.48c0.3,0.32,0.48,0.73,0.53,1.23L138.7,76.27z"/>
			<linearGradient id="SVGID_9_" gradientUnits="userSpaceOnUse" x1="145.0705" y1="76.4211" x2="148.9972" y2="76.4211">
				<stop  offset="0" style="stop-color:#76C593"/>
				<stop  offset="1" style="stop-color:#2BB673"/>
			</linearGradient>
			<path class="st10" d="M147.91,73.15c-0.51,0-0.97,0.06-1.37,0.17c-0.4,0.11-0.73,0.25-0.96,0.4c-0.18,0.12-0.31,0.24-0.39,0.36
				c-0.08,0.12-0.12,0.29-0.12,0.5v4.62c0,0.33,0.2,0.49,0.59,0.49c0.11,0,0.21-0.01,0.3-0.03c0.09-0.02,0.16-0.04,0.2-0.06v-5.1
				c0.21-0.12,0.47-0.22,0.79-0.31c0.32-0.09,0.69-0.13,1.1-0.13c0.15,0,0.29,0.01,0.44,0.03c0.15,0.02,0.26,0.04,0.35,0.05
				c0.04-0.05,0.08-0.12,0.11-0.2c0.03-0.08,0.04-0.16,0.04-0.25C149,73.33,148.63,73.15,147.91,73.15z"/>
			<linearGradient id="SVGID_10_" gradientUnits="userSpaceOnUse" x1="149.7739" y1="76.4825" x2="155.0228" y2="76.4825">
				<stop  offset="0" style="stop-color:#76C593"/>
				<stop  offset="1" style="stop-color:#2BB673"/>
			</linearGradient>
			<path class="st11" d="M152.45,73.15c-0.37,0-0.72,0.03-1.04,0.1c-0.32,0.07-0.6,0.17-0.85,0.29c-0.14,0.07-0.24,0.15-0.3,0.23
				c-0.06,0.08-0.1,0.19-0.1,0.31c0,0.1,0.03,0.19,0.09,0.27c0.06,0.08,0.12,0.15,0.2,0.22c0.26-0.14,0.56-0.26,0.9-0.37
				c0.34-0.11,0.7-0.16,1.08-0.16c0.46,0,0.83,0.1,1.1,0.31c0.27,0.21,0.41,0.54,0.41,0.99v0.38l-1.94,0.19
				c-0.71,0.07-1.26,0.26-1.65,0.57c-0.39,0.3-0.59,0.76-0.59,1.36c0,0.64,0.23,1.12,0.7,1.46c0.47,0.34,1.13,0.5,1.98,0.5
				c0.46,0,0.87-0.05,1.23-0.14c0.36-0.1,0.65-0.21,0.87-0.33c0.15-0.09,0.27-0.19,0.35-0.29c0.08-0.1,0.12-0.26,0.12-0.46v-3.23
				c0-0.76-0.23-1.32-0.7-1.68C153.86,73.33,153.24,73.15,152.45,73.15z M153.95,78.57c-0.11,0.07-0.29,0.15-0.54,0.23
				c-0.25,0.08-0.57,0.12-0.95,0.12c-0.54,0-0.94-0.09-1.2-0.28c-0.26-0.19-0.4-0.45-0.4-0.8c0-0.33,0.11-0.57,0.34-0.74
				c0.23-0.17,0.58-0.28,1.05-0.32l1.69-0.18V78.57z"/>
			<linearGradient id="SVGID_11_" gradientUnits="userSpaceOnUse" x1="157.0266" y1="75.6032" x2="160.5028" y2="75.6032">
				<stop  offset="0" style="stop-color:#76C593"/>
				<stop  offset="1" style="stop-color:#2BB673"/>
			</linearGradient>
			<path class="st12" d="M160.28,78.63c-0.13,0.07-0.29,0.14-0.48,0.19c-0.19,0.05-0.36,0.08-0.52,0.08c-0.37,0-0.66-0.08-0.87-0.23
				c-0.2-0.15-0.31-0.41-0.31-0.77v-3.54h1.95c0.27,0,0.41-0.15,0.41-0.46c0-0.09-0.01-0.18-0.04-0.25
				c-0.03-0.08-0.05-0.14-0.08-0.18h-2.24v-1.57c0-0.33-0.19-0.49-0.57-0.49c-0.11,0-0.21,0.01-0.31,0.03
				c-0.1,0.02-0.17,0.04-0.21,0.06v6.48c0,0.65,0.2,1.12,0.59,1.4c0.4,0.28,0.91,0.42,1.55,0.42c0.42,0,0.75-0.06,0.98-0.19
				c0.24-0.13,0.35-0.29,0.35-0.49c0-0.11-0.02-0.2-0.07-0.29C160.39,78.75,160.34,78.68,160.28,78.63z"/>
			<linearGradient id="SVGID_12_" gradientUnits="userSpaceOnUse" x1="162.1531" y1="76.4756" x2="163.2433" y2="76.4756">
				<stop  offset="0" style="stop-color:#76C593"/>
				<stop  offset="1" style="stop-color:#2BB673"/>
			</linearGradient>
			<path class="st13" d="M162.67,73.26c-0.11,0-0.21,0.01-0.31,0.03c-0.09,0.02-0.17,0.04-0.21,0.06v5.85
				c0,0.33,0.19,0.49,0.59,0.49c0.11,0,0.21-0.01,0.3-0.03c0.09-0.02,0.16-0.04,0.2-0.06v-5.84
				C163.24,73.43,163.05,73.26,162.67,73.26z"/>
			<linearGradient id="SVGID_13_" gradientUnits="userSpaceOnUse" x1="161.9892" y1="71.3359" x2="163.3933" y2="71.3359">
				<stop  offset="0" style="stop-color:#76C593"/>
				<stop  offset="1" style="stop-color:#2BB673"/>
			</linearGradient>
			<path class="st14" d="M162.7,70.65c-0.21,0-0.38,0.07-0.51,0.2c-0.13,0.13-0.2,0.29-0.2,0.48c0,0.19,0.07,0.35,0.2,0.48
				c0.13,0.13,0.3,0.2,0.51,0.2s0.38-0.07,0.5-0.2c0.13-0.13,0.19-0.29,0.19-0.48c0-0.19-0.06-0.35-0.19-0.48
				C163.07,70.72,162.91,70.65,162.7,70.65z"/>
			<linearGradient id="SVGID_14_" gradientUnits="userSpaceOnUse" x1="164.7564" y1="76.4554" x2="170.605" y2="76.4554">
				<stop  offset="0" style="stop-color:#76C593"/>
				<stop  offset="1" style="stop-color:#2BB673"/>
			</linearGradient>
			<path class="st15" d="M170.09,73.2c-0.19,0-0.35,0.04-0.46,0.11c-0.24,0.86-0.51,1.74-0.82,2.63c-0.31,0.89-0.65,1.8-1.02,2.71
				h-0.05c-0.05-0.15-0.13-0.34-0.21-0.56c-0.09-0.22-0.17-0.44-0.26-0.67c-0.09-0.23-0.17-0.46-0.25-0.68
				c-0.08-0.22-0.15-0.41-0.2-0.57l-0.85-2.44c-0.07-0.19-0.15-0.33-0.24-0.41c-0.09-0.08-0.21-0.12-0.38-0.12
				c-0.11,0-0.22,0.03-0.33,0.08c-0.11,0.05-0.2,0.13-0.26,0.22c0.08,0.28,0.19,0.6,0.31,0.96c0.13,0.36,0.26,0.73,0.41,1.12
				c0.15,0.39,0.3,0.77,0.45,1.17c0.15,0.39,0.3,0.76,0.45,1.1c0.14,0.35,0.28,0.65,0.41,0.93c0.13,0.27,0.23,0.49,0.31,0.64
				c0.1,0.19,0.32,0.29,0.65,0.29c0.13,0,0.25-0.01,0.36-0.04c0.11-0.03,0.19-0.06,0.24-0.1c0.15-0.27,0.3-0.59,0.47-0.97
				c0.17-0.37,0.34-0.76,0.5-1.17c0.17-0.4,0.33-0.81,0.48-1.22c0.15-0.41,0.28-0.78,0.4-1.12c0.12-0.34,0.21-0.64,0.29-0.89
				c0.07-0.25,0.11-0.42,0.11-0.53c0-0.15-0.05-0.27-0.14-0.35C170.37,73.24,170.24,73.2,170.09,73.2z"/>
			<linearGradient id="SVGID_15_" gradientUnits="userSpaceOnUse" x1="171.5732" y1="76.4825" x2="176.8221" y2="76.4825">
				<stop  offset="0" style="stop-color:#76C593"/>
				<stop  offset="1" style="stop-color:#2BB673"/>
			</linearGradient>
			<path class="st16" d="M174.25,73.15c-0.37,0-0.72,0.03-1.04,0.1c-0.32,0.07-0.6,0.17-0.85,0.29c-0.14,0.07-0.24,0.15-0.3,0.23
				c-0.06,0.08-0.1,0.19-0.1,0.31c0,0.1,0.03,0.19,0.09,0.27c0.06,0.08,0.12,0.15,0.2,0.22c0.26-0.14,0.56-0.26,0.9-0.37
				c0.34-0.11,0.7-0.16,1.08-0.16c0.46,0,0.83,0.1,1.1,0.31c0.27,0.21,0.41,0.54,0.41,0.99v0.38l-1.94,0.19
				c-0.71,0.07-1.26,0.26-1.65,0.57c-0.39,0.3-0.59,0.76-0.59,1.36c0,0.64,0.23,1.12,0.7,1.46c0.47,0.34,1.13,0.5,1.98,0.5
				c0.46,0,0.87-0.05,1.23-0.14c0.36-0.1,0.65-0.21,0.87-0.33c0.15-0.09,0.27-0.19,0.35-0.29c0.08-0.1,0.12-0.26,0.12-0.46v-3.23
				c0-0.76-0.23-1.32-0.7-1.68C175.66,73.33,175.04,73.15,174.25,73.15z M175.74,78.57c-0.11,0.07-0.29,0.15-0.54,0.23
				c-0.25,0.08-0.57,0.12-0.95,0.12c-0.54,0-0.94-0.09-1.2-0.28c-0.26-0.19-0.4-0.45-0.4-0.8c0-0.33,0.11-0.57,0.34-0.74
				c0.23-0.17,0.58-0.28,1.05-0.32l1.69-0.18V78.57z"/>
			<linearGradient id="SVGID_16_" gradientUnits="userSpaceOnUse" x1="180.9254" y1="75.5008" x2="188.1917" y2="75.5008">
				<stop  offset="0" style="stop-color:#76C593"/>
				<stop  offset="1" style="stop-color:#2BB673"/>
			</linearGradient>
			<path class="st17" d="M186.84,75.51c-0.25-0.71-0.51-1.4-0.76-2.08c-0.25-0.68-0.48-1.28-0.7-1.81
				c-0.05-0.13-0.15-0.22-0.32-0.27c-0.17-0.05-0.34-0.08-0.53-0.08c-0.15,0-0.3,0.02-0.45,0.05c-0.15,0.04-0.25,0.07-0.33,0.11
				c-0.22,0.55-0.46,1.16-0.72,1.85c-0.26,0.69-0.51,1.37-0.76,2.05c-0.25,0.68-0.48,1.32-0.7,1.92c-0.21,0.6-0.39,1.09-0.52,1.47
				c-0.04,0.1-0.07,0.19-0.1,0.28c-0.03,0.09-0.04,0.17-0.04,0.25c0,0.17,0.06,0.3,0.17,0.38c0.11,0.08,0.24,0.12,0.39,0.12
				c0.17,0,0.32-0.03,0.45-0.08c0.04-0.12,0.09-0.27,0.15-0.44c0.06-0.18,0.13-0.37,0.2-0.57c0.07-0.2,0.14-0.41,0.21-0.63
				c0.07-0.21,0.14-0.41,0.2-0.59h3.65l0.61,1.81c0.06,0.18,0.14,0.31,0.23,0.39s0.22,0.12,0.4,0.12c0.13,0,0.24-0.03,0.34-0.07
				c0.1-0.05,0.19-0.12,0.26-0.2c-0.18-0.55-0.39-1.17-0.62-1.86C187.34,76.91,187.1,76.22,186.84,75.51z M183,76.5
				c0.12-0.35,0.25-0.73,0.38-1.12c0.14-0.39,0.27-0.78,0.41-1.16c0.14-0.38,0.27-0.75,0.39-1.1c0.13-0.35,0.24-0.66,0.34-0.93h0.05
				c0.07,0.23,0.17,0.5,0.28,0.82c0.11,0.32,0.24,0.67,0.37,1.06c0.13,0.38,0.27,0.78,0.42,1.19c0.15,0.41,0.29,0.82,0.42,1.23H183z
				"/>
			<linearGradient id="SVGID_17_" gradientUnits="userSpaceOnUse" x1="189.6371" y1="75.2485" x2="195.3901" y2="75.2485">
				<stop  offset="0" style="stop-color:#76C593"/>
				<stop  offset="1" style="stop-color:#2BB673"/>
			</linearGradient>
			<path class="st18" d="M194.54,73.97c-0.27-0.27-0.58-0.48-0.95-0.61c-0.36-0.14-0.75-0.2-1.17-0.2c-0.37,0-0.7,0.05-0.97,0.14
				c-0.28,0.1-0.52,0.21-0.72,0.33v-2.44c0-0.33-0.19-0.49-0.57-0.49c-0.11,0-0.21,0.01-0.31,0.03c-0.1,0.02-0.17,0.04-0.21,0.06
				v7.69c0,0.19,0.04,0.34,0.11,0.46c0.07,0.11,0.2,0.23,0.39,0.35c0.23,0.14,0.52,0.26,0.88,0.36c0.36,0.1,0.76,0.16,1.21,0.16
				c0.46,0,0.89-0.07,1.28-0.2c0.39-0.13,0.73-0.33,1-0.61c0.28-0.27,0.49-0.62,0.65-1.04c0.15-0.42,0.23-0.91,0.23-1.49
				c0-0.56-0.07-1.05-0.22-1.47C195.02,74.59,194.81,74.24,194.54,73.97z M194.14,77.56c-0.1,0.3-0.24,0.56-0.42,0.76
				c-0.18,0.2-0.4,0.35-0.65,0.44c-0.25,0.1-0.53,0.14-0.84,0.14c-0.35,0-0.65-0.05-0.91-0.14c-0.26-0.09-0.46-0.19-0.59-0.29v-3.86
				c0.18-0.15,0.4-0.29,0.66-0.4c0.26-0.11,0.55-0.17,0.87-0.17c0.29,0,0.56,0.05,0.81,0.14c0.25,0.1,0.47,0.24,0.65,0.44
				c0.18,0.2,0.32,0.45,0.42,0.76c0.1,0.31,0.15,0.67,0.15,1.09C194.29,76.89,194.24,77.26,194.14,77.56z"/>
			<linearGradient id="SVGID_18_" gradientUnits="userSpaceOnUse" x1="197.1627" y1="76.4756" x2="198.2529" y2="76.4756">
				<stop  offset="0" style="stop-color:#76C593"/>
				<stop  offset="1" style="stop-color:#2BB673"/>
			</linearGradient>
			<path class="st19" d="M197.68,73.26c-0.11,0-0.21,0.01-0.31,0.03c-0.09,0.02-0.17,0.04-0.21,0.06v5.85
				c0,0.33,0.19,0.49,0.59,0.49c0.11,0,0.21-0.01,0.3-0.03c0.09-0.02,0.16-0.04,0.2-0.06v-5.84
				C198.25,73.43,198.06,73.26,197.68,73.26z"/>
			<linearGradient id="SVGID_19_" gradientUnits="userSpaceOnUse" x1="196.9987" y1="71.3359" x2="198.4028" y2="71.3359">
				<stop  offset="0" style="stop-color:#76C593"/>
				<stop  offset="1" style="stop-color:#2BB673"/>
			</linearGradient>
			<path class="st20" d="M197.71,70.65c-0.21,0-0.38,0.07-0.51,0.2c-0.13,0.13-0.2,0.29-0.2,0.48c0,0.19,0.07,0.35,0.2,0.48
				c0.13,0.13,0.3,0.2,0.51,0.2c0.21,0,0.38-0.07,0.5-0.2c0.13-0.13,0.19-0.29,0.19-0.48c0-0.19-0.06-0.35-0.19-0.48
				C198.08,70.72,197.92,70.65,197.71,70.65z"/>
			<linearGradient id="SVGID_20_" gradientUnits="userSpaceOnUse" x1="200.0255" y1="76.4756" x2="205.8741" y2="76.4756">
				<stop  offset="0" style="stop-color:#76C593"/>
				<stop  offset="1" style="stop-color:#2BB673"/>
			</linearGradient>
			<path class="st21" d="M205.08,73.93c-0.25-0.25-0.55-0.44-0.89-0.58c-0.35-0.14-0.72-0.2-1.13-0.2c-0.44,0-0.84,0.08-1.21,0.23
				c-0.37,0.15-0.69,0.37-0.96,0.65c-0.27,0.28-0.48,0.62-0.63,1.03c-0.15,0.4-0.22,0.87-0.22,1.38c0,1.1,0.31,1.94,0.92,2.51
				c0.61,0.57,1.45,0.86,2.5,0.86c0.3,0,0.58-0.03,0.84-0.08c0.26-0.05,0.49-0.13,0.68-0.22c0.19-0.09,0.35-0.2,0.46-0.31
				c0.11-0.12,0.17-0.24,0.17-0.37c0-0.22-0.11-0.39-0.33-0.52c-0.18,0.15-0.43,0.28-0.74,0.41c-0.31,0.13-0.65,0.19-1.04,0.19
				c-1.32,0-2.1-0.6-2.35-1.79l4.2-0.59c0.16-0.02,0.29-0.07,0.38-0.16c0.09-0.09,0.14-0.23,0.14-0.43c0-0.41-0.07-0.78-0.21-1.12
				S205.33,74.18,205.08,73.93z M201.09,76.27c0.02-0.72,0.21-1.27,0.57-1.66c0.36-0.39,0.82-0.58,1.38-0.58
				c0.55,0,0.97,0.16,1.27,0.48c0.3,0.32,0.48,0.73,0.53,1.23L201.09,76.27z"/>
			<linearGradient id="SVGID_21_" gradientUnits="userSpaceOnUse" x1="207.4551" y1="76.4211" x2="211.3818" y2="76.4211">
				<stop  offset="0" style="stop-color:#76C593"/>
				<stop  offset="1" style="stop-color:#2BB673"/>
			</linearGradient>
			<path class="st22" d="M210.29,73.15c-0.51,0-0.97,0.06-1.37,0.17c-0.4,0.11-0.72,0.25-0.96,0.4c-0.18,0.12-0.31,0.24-0.39,0.36
				c-0.08,0.12-0.12,0.29-0.12,0.5v4.62c0,0.33,0.2,0.49,0.59,0.49c0.11,0,0.21-0.01,0.3-0.03c0.09-0.02,0.16-0.04,0.2-0.06v-5.1
				c0.21-0.12,0.47-0.22,0.79-0.31c0.32-0.09,0.69-0.13,1.1-0.13c0.15,0,0.29,0.01,0.44,0.03c0.14,0.02,0.26,0.04,0.35,0.05
				c0.05-0.05,0.08-0.12,0.11-0.2c0.03-0.08,0.04-0.16,0.04-0.25C211.38,73.33,211.02,73.15,210.29,73.15z"/>
			<linearGradient id="SVGID_22_" gradientUnits="userSpaceOnUse" x1="212.6769" y1="75.6032" x2="216.1532" y2="75.6032">
				<stop  offset="0" style="stop-color:#76C593"/>
				<stop  offset="1" style="stop-color:#2BB673"/>
			</linearGradient>
			<path class="st23" d="M215.94,78.63c-0.13,0.07-0.29,0.14-0.48,0.19c-0.19,0.05-0.36,0.08-0.52,0.08c-0.37,0-0.66-0.08-0.87-0.23
				c-0.2-0.15-0.31-0.41-0.31-0.77v-3.54h1.95c0.27,0,0.41-0.15,0.41-0.46c0-0.09-0.01-0.18-0.04-0.25
				c-0.03-0.08-0.05-0.14-0.08-0.18h-2.24v-1.57c0-0.33-0.19-0.49-0.57-0.49c-0.11,0-0.21,0.01-0.31,0.03
				c-0.1,0.02-0.17,0.04-0.21,0.06v6.48c0,0.65,0.2,1.12,0.59,1.4c0.4,0.28,0.91,0.42,1.55,0.42c0.42,0,0.75-0.06,0.98-0.19
				c0.24-0.13,0.35-0.29,0.35-0.49c0-0.11-0.02-0.2-0.07-0.29C216.04,78.75,215.99,78.68,215.94,78.63z"/>
			<linearGradient id="SVGID_23_" gradientUnits="userSpaceOnUse" x1="217.3803" y1="76.4825" x2="222.6292" y2="76.4825">
				<stop  offset="0" style="stop-color:#76C593"/>
				<stop  offset="1" style="stop-color:#2BB673"/>
			</linearGradient>
			<path class="st24" d="M221.93,73.68c-0.46-0.35-1.09-0.53-1.88-0.53c-0.37,0-0.72,0.03-1.04,0.1c-0.32,0.07-0.6,0.17-0.85,0.29
				c-0.14,0.07-0.24,0.15-0.3,0.23c-0.06,0.08-0.1,0.19-0.1,0.31c0,0.1,0.03,0.19,0.09,0.27c0.06,0.08,0.12,0.15,0.2,0.22
				c0.26-0.14,0.56-0.26,0.9-0.37c0.34-0.11,0.7-0.16,1.08-0.16c0.46,0,0.83,0.1,1.1,0.31c0.27,0.21,0.41,0.54,0.41,0.99v0.38
				l-1.94,0.19c-0.71,0.07-1.26,0.26-1.65,0.57c-0.39,0.3-0.59,0.76-0.59,1.36c0,0.64,0.23,1.12,0.7,1.46
				c0.47,0.34,1.13,0.5,1.98,0.5c0.46,0,0.87-0.05,1.23-0.14c0.36-0.1,0.65-0.21,0.87-0.33c0.15-0.09,0.27-0.19,0.35-0.29
				c0.08-0.1,0.12-0.26,0.12-0.46v-3.23C222.63,74.59,222.4,74.04,221.93,73.68z M221.55,78.57c-0.11,0.07-0.29,0.15-0.54,0.23
				c-0.25,0.08-0.57,0.12-0.95,0.12c-0.54,0-0.94-0.09-1.2-0.28c-0.26-0.19-0.4-0.45-0.4-0.8c0-0.33,0.11-0.57,0.34-0.74
				c0.23-0.17,0.58-0.28,1.05-0.32l1.69-0.18V78.57z"/>
		</g>
	</g>
	<g>
		<g>
			<path d="M215.53,46.75c-0.1,0-0.19-0.03-0.27-0.08c-0.08-0.05-0.17-0.13-0.27-0.23l-0.7-0.72c-0.3,0.32-0.67,0.57-1.1,0.76
				s-0.95,0.29-1.55,0.29c-0.47,0-0.9-0.07-1.28-0.2c-0.38-0.13-0.71-0.32-0.98-0.55c-0.27-0.24-0.48-0.53-0.63-0.87
				c-0.15-0.34-0.23-0.72-0.23-1.14c0-0.64,0.17-1.17,0.5-1.59c0.34-0.42,0.76-0.73,1.28-0.92c-0.22-0.25-0.38-0.5-0.49-0.75
				c-0.11-0.25-0.16-0.51-0.16-0.8c0-0.56,0.19-1.01,0.57-1.35c0.38-0.34,0.91-0.5,1.6-0.5c0.48,0,0.85,0.07,1.1,0.2
				c0.25,0.14,0.38,0.31,0.38,0.52c0,0.11-0.03,0.21-0.09,0.29c-0.06,0.09-0.12,0.15-0.2,0.2c-0.15-0.08-0.32-0.15-0.51-0.2
				c-0.2-0.05-0.4-0.08-0.61-0.08c-0.35,0-0.62,0.08-0.82,0.25c-0.2,0.17-0.3,0.4-0.3,0.69c0,0.28,0.07,0.53,0.22,0.75
				c0.15,0.22,0.35,0.47,0.63,0.75l2.56,2.67c0.13-0.29,0.23-0.64,0.29-1.04c0.07-0.4,0.1-0.85,0.1-1.35
				c0.08-0.04,0.17-0.07,0.25-0.09c0.09-0.02,0.17-0.03,0.25-0.03c0.36,0,0.55,0.2,0.55,0.61c0,0.46-0.06,0.93-0.18,1.4
				c-0.12,0.47-0.29,0.9-0.5,1.28l1.2,1.24C216.07,46.55,215.87,46.75,215.53,46.75z M211.64,45.83c0.32,0,0.65-0.06,1-0.19
				c0.35-0.13,0.67-0.34,0.97-0.64l-2.64-2.77c-0.17,0.05-0.34,0.13-0.5,0.23c-0.16,0.1-0.31,0.22-0.43,0.37s-0.22,0.33-0.3,0.53
				c-0.08,0.2-0.12,0.42-0.12,0.67c0,0.55,0.18,0.98,0.54,1.32C210.51,45.67,211,45.83,211.64,45.83z"/>
		</g>
		<g>
			<path d="M169.25,29.24c-1.55-0.77-3.09-1.15-4.64-1.15h-7.5v11.38c0,1.24,1,2.24,2.24,2.24h1.49v-9.89h3.77
				c0.91,0,1.83,0.23,2.77,0.7c1.88,0.94,2.82,2.57,2.82,4.88c0,2.35-0.94,3.99-2.82,4.93c-0.94,0.48-1.87,0.71-2.77,0.71h-1.96
				h-3.28c-1.24,0-2.25,1.01-2.25,2.25v1.46h7.5c1.55,0,3.09-0.38,4.64-1.15c3.13-1.58,4.69-4.32,4.69-8.21
				C173.94,33.5,172.38,30.78,169.25,29.24z"/>
			<path d="M202.9,31.82c1.24,0,2.24-1,2.24-2.24v-1.49h-13.1v18.67h13.1v-1.47c0-1.24-1-2.24-2.24-2.24h-7.12v-3.78h7.85v-3.73
				h-7.85v-3.71H202.9z"/>
			<path d="M190.55,35.53c0-3.12-1.24-5.3-3.73-6.54c-1.25-0.64-2.49-0.96-3.73-0.96h-7.5v7.65c0,1.24,1,2.24,2.24,2.24h1.49v-6.16
				h3.77c0.6,0,1.23,0.17,1.87,0.51c1.24,0.6,1.87,1.69,1.87,3.26c0,1.54-0.62,2.64-1.87,3.28c-0.64,0.3-1.26,0.46-1.87,0.46h-7.5
				v7.5h3.73v-3.77h3.77c0.21,0,0.49-0.02,0.85-0.05l1.41,3.82h3.98l-1.85-5.08C189.53,40.37,190.55,38.32,190.55,35.53z"/>
			<path d="M144.15,27.99l-5.73,18.77h2.07c0.99,0,1.86-0.64,2.14-1.59l0.6-1.97l0,0.09h2.81c1.24,0,2.24-1,2.24-2.24v-1.49h-3.94
				l2.35-7.69l5.44,13.48c0.34,0.85,1.16,1.4,2.08,1.4h2.33l-7.57-18.77H144.15z"/>
			<path d="M129.12,36.11l-5.67-8.11h-2.94v1.86v0.11v16.8h1.48c1.24,0,2.25-1.01,2.25-2.25v-9.15v-0.01l1.56,2.26l3.32,4.83
				l0.01-0.01l4.83-7.09v11.4h3.78V27.99h-2.95L129.12,36.11z"/>
		</g>
	</g>
	<g>
		<path d="M147.63,67.94h13.09v-1.47c0-1.24-1-2.24-2.24-2.24h-7.12v-3.78h7.85v-3.73h-7.85v-3.71h7.12c1.24,0,2.24-1,2.24-2.24
			v-1.49h-13.09V67.94z"/>
		<path d="M207.87,56.71c0-3.12-1.24-5.3-3.73-6.54c-1.25-0.64-2.49-0.96-3.73-0.96h-7.5v7.65c0,1.24,1,2.24,2.24,2.24h1.49v-6.16
			h3.77c0.6,0,1.23,0.17,1.87,0.51c1.24,0.6,1.87,1.69,1.87,3.26c0,1.54-0.62,2.64-1.87,3.28c-0.64,0.3-1.26,0.46-1.87,0.46h-7.5
			v7.5h3.73v-3.77h3.77c0.21,0,0.49-0.02,0.85-0.05l1.41,3.82h3.98l-1.85-5.08C206.85,61.55,207.87,59.5,207.87,56.71z"/>
		<path d="M168.82,56.71c-1.52,0-2.57-0.32-3.14-0.96c-0.21-0.23-0.31-0.5-0.31-0.8V54.7c0.14-1.14,1.29-1.71,3.45-1.71
			c0.97,0,1.86,0.13,2.69,0.39c0.09,0.03,0.3,0.12,0.54,0.23c0.87,0.41,1.91,0.21,2.58-0.5l1.4-1.48c-0.47-0.44-1.12-0.87-1.97-1.27
			c-1.57-0.73-3.31-1.1-5.23-1.1c-2,0-3.65,0.45-4.95,1.36c-1.28,0.94-2.02,2.15-2.21,3.63c-0.03,0.23-0.05,0.47-0.05,0.7
			c0,1.24,0.44,2.34,1.31,3.28c1.27,1.48,3.24,2.21,5.91,2.21c1.52,0,2.57,0.32,3.14,0.96c0.24,0.3,0.37,0.62,0.37,0.96v0.09
			c-0.17,1.19-1.34,1.78-3.5,1.78c-0.95,0-1.82-0.13-2.63-0.38c-0.11-0.03-0.33-0.13-0.59-0.25c-0.88-0.42-1.93-0.22-2.6,0.5
			l-1.38,1.49c0.46,0.43,1.12,0.85,1.97,1.26c1.57,0.73,3.31,1.1,5.23,1.1c2,0,3.65-0.47,4.95-1.41c1.31-0.91,2.05-2.1,2.21-3.57
			c0.03-0.23,0.05-0.48,0.05-0.75c0-1.21-0.42-2.3-1.26-3.28C173.47,57.44,171.48,56.71,168.82,56.71z"/>
		<path d="M176.88,52.97h5.58v14.96h3.77V52.97h3.24c1.29,0,2.34-1.05,2.34-2.34v-1.37h-14.93V52.97z"/>
		<path d="M134.67,49.17l-5.73,18.77h2.07c0.99,0,1.86-0.64,2.14-1.59l4.06-13.29l3.16,7.84h-3.57v1.49c0,1.24,1,2.24,2.24,2.24
			h2.81l0-0.06l0.79,1.96c0.34,0.85,1.16,1.4,2.08,1.4h2.33l-7.57-18.77H134.67z"/>
		<path d="M218.04,49.17h-4.82l-5.73,18.77h2.07c0.99,0,1.86-0.64,2.14-1.59l0.53-1.72h2.69c1.24,0,2.24-1,2.24-2.24v-1.49h-3.8
			l2.39-7.84l5.44,13.48c0.34,0.85,1.16,1.4,2.08,1.4h2.33L218.04,49.17z"/>
		<path d="M119.63,57.28l-5.67-8.11h-2.94v1.86v0.11v16.8h1.48c1.24,0,2.25-1.01,2.25-2.25v-9.15v-0.01l1.56,2.26l3.32,4.83
			l0.01-0.01l4.83-7.09v11.4h3.78V49.17h-2.95L119.63,57.28z"/>
	</g>
</g>
<g>
	<path class="st1" d="M275.2,77.56c-3.25,0-6.27-1.01-8.97-3c-1.09-0.81-2.07-1.8-2.8-3.03c-0.42-0.72-0.78-1.47-1.07-2.19
		c-1.04-2.55,0.82-5.35,3.58-5.35l0,0c1.53,0,2.93,0.9,3.54,2.3c0.3,0.7,0.7,1.39,1.21,1.83c1.07,0.93,2.46,1.45,4.29,1.47
		c1.46,0,2.64-0.3,3.5-0.89c0.82-0.57,1.38-1.3,1.7-2.23c0.37-0.99,0.59-2.06,0.67-3.21c0.04-1.16,0.06-2.32,0.06-3.42
		c0.04-2.65-0.36-4.81-1.19-6.43c-0.4-0.69-1.02-1.27-1.84-1.7c-0.8-0.34-1.88-0.53-3.16-0.53c-1.11,0-2.16,0.22-3.05,0.78
		c-0.48,0.3-0.9,0.69-1.26,1.09c-1.14,1.29-2.75,2.08-4.47,2.08h-0.32c-2.06,0-3.73-1.67-3.73-3.73V32.07c0-2.2,1.78-3.98,3.98-3.98
		h17.92c2.2,0,3.98,1.78,3.98,3.98l0,0c0,2.2-1.78,3.98-3.98,3.98h-14.53v9.24c2.05-1.38,4.36-2.08,6.88-2.08
		c1.87,0.05,3.59,0.39,5.14,1.03c1.5,0.72,2.71,1.61,3.63,2.65c1.33,1.35,2.31,2.96,2.91,4.77c0.31,0.98,0.53,2.19,0.66,3.58
		c0.13,1.4,0.19,3.13,0.19,5.15c0,3.14-0.22,5.6-0.65,7.31c-0.47,1.72-1.25,3.26-2.34,4.59c-0.94,1.28-2.33,2.47-4.13,3.53
		c-1.77,1.11-3.9,1.7-6.33,1.75H275.2L275.2,77.56z"/>
</g>
<g>
	<g>
		<path class="st1" d="M313.28,57.3c-0.52-3.32-2.42-4.96-5.78-4.99c-3.88,0.04-5.83,2.25-5.95,6.75l0,3.88
			c0.05,2.02,0.49,3.58,1.31,4.68l-5.52,5.63c-2.24-2.42-3.41-5.75-3.49-9.9V42.35c0.09-4.52,1.48-8.06,4.13-10.53
			c2.6-2.44,5.8-3.69,9.52-3.74h0.01h0.01c3.17,0.05,6.18,0.87,8.5,2.99c1.05,0.96,1.9,2.02,2.57,3.07
			c1.62,2.53-0.23,5.85-3.24,5.85l0,0c-1.22,0-2.36-0.58-3.08-1.56c-0.82-1.12-2.32-2.44-4.78-2.44c-3.87,0-5.82,2.25-5.93,6.76
			l0,3.7c2.79-0.84,5.45-1.27,7.91-1.27l0.35,0l0.17,0c3.07,0,5.72,1.13,7.89,3.37c0.68,0.68,1.26,1.49,1.73,2.42L313.28,57.3z"/>
	</g>
</g>
<g>
	<polygon class="st1" points="325.39,45.19 293.01,77.56 294.12,77.56 326.5,45.19 	"/>
	<polygon class="st1" points="329.04,45.19 312.85,61.38 313.4,61.38 329.59,45.19 	"/>
	<polygon class="st1" points="332.14,45.19 315.95,61.38 316.28,61.38 332.47,45.19 	"/>
</g>
<g>
	<path class="st1" d="M317.27,68.44h-2.03c-0.08,0.25-0.15,0.49-0.21,0.73c-0.07,0.24-0.12,0.46-0.17,0.64
		c-0.09,0.03-0.18,0.05-0.28,0.07c-0.1,0.02-0.21,0.03-0.35,0.03c-0.3,0-0.53-0.05-0.69-0.16s-0.23-0.26-0.23-0.46
		c0-0.1,0.01-0.19,0.04-0.28c0.03-0.09,0.06-0.19,0.09-0.31c0.05-0.19,0.12-0.42,0.21-0.69c0.09-0.28,0.19-0.58,0.29-0.9
		c0.11-0.32,0.22-0.65,0.34-0.99c0.12-0.34,0.23-0.66,0.34-0.97c0.11-0.31,0.21-0.59,0.3-0.84c0.09-0.25,0.17-0.46,0.23-0.61
		c0.1-0.06,0.26-0.12,0.48-0.18c0.22-0.06,0.43-0.08,0.65-0.08c0.31,0,0.58,0.04,0.82,0.13c0.24,0.09,0.39,0.23,0.46,0.43
		c0.13,0.37,0.27,0.79,0.42,1.27s0.31,0.98,0.46,1.49c0.15,0.51,0.3,1.01,0.45,1.51c0.15,0.5,0.27,0.94,0.38,1.33
		c-0.08,0.09-0.19,0.16-0.34,0.22c-0.15,0.06-0.33,0.08-0.53,0.08c-0.3,0-0.51-0.05-0.63-0.16c-0.12-0.1-0.21-0.27-0.26-0.49
		L317.27,68.44z M316.27,64.91c-0.1,0.31-0.22,0.66-0.36,1.06c-0.14,0.4-0.28,0.8-0.4,1.21h1.48c-0.12-0.43-0.24-0.85-0.36-1.25
		c-0.12-0.4-0.22-0.74-0.3-1.03H316.27z"/>
	<path class="st1" d="M325.75,69.62c-0.1,0.08-0.23,0.15-0.39,0.2c-0.17,0.05-0.36,0.08-0.59,0.08c-0.24,0-0.46-0.04-0.66-0.11
		s-0.38-0.25-0.52-0.52l-1.2-2.32c-0.12-0.22-0.23-0.44-0.33-0.66c-0.1-0.22-0.2-0.45-0.29-0.69l-0.07,0.02
		c0.04,0.41,0.05,0.81,0.06,1.19c0.01,0.38,0.01,0.74,0.01,1.09v1.92c-0.07,0.01-0.17,0.03-0.31,0.05
		c-0.13,0.02-0.27,0.03-0.42,0.03c-0.31,0-0.53-0.05-0.65-0.16s-0.19-0.3-0.19-0.57v-5.33c0.08-0.12,0.22-0.21,0.4-0.27
		s0.38-0.1,0.58-0.1c0.24,0,0.46,0.04,0.67,0.11c0.2,0.08,0.37,0.24,0.51,0.51l1.21,2.33c0.12,0.22,0.23,0.44,0.33,0.66
		s0.2,0.45,0.29,0.69l0.04-0.01c-0.04-0.46-0.05-0.9-0.06-1.31c0-0.41,0-0.81,0-1.19v-1.72c0.07-0.01,0.17-0.03,0.3-0.05
		c0.14-0.02,0.28-0.03,0.43-0.03c0.31,0,0.53,0.05,0.65,0.16s0.19,0.3,0.19,0.57V69.62z M322.04,61.21c0.15,0,0.29,0.02,0.42,0.05
		c0.14,0.03,0.26,0.07,0.39,0.11c0.12,0.04,0.24,0.08,0.34,0.11s0.2,0.05,0.29,0.05c0.15,0,0.25-0.04,0.33-0.13
		c0.08-0.09,0.13-0.16,0.17-0.23h0.05c0.2,0,0.37,0.07,0.52,0.21c0.15,0.14,0.22,0.32,0.22,0.54c0,0.29-0.09,0.5-0.27,0.64
		c-0.18,0.14-0.41,0.21-0.69,0.21c-0.16,0-0.32-0.02-0.45-0.05c-0.14-0.03-0.27-0.07-0.39-0.11c-0.12-0.04-0.23-0.08-0.33-0.11
		c-0.1-0.03-0.19-0.05-0.27-0.05c-0.15,0-0.25,0.04-0.33,0.12c-0.08,0.08-0.13,0.16-0.17,0.24h-0.04c-0.2,0-0.38-0.07-0.53-0.2
		c-0.15-0.13-0.23-0.32-0.23-0.54c0-0.15,0.03-0.27,0.09-0.38c0.06-0.11,0.14-0.19,0.23-0.26c0.09-0.07,0.19-0.12,0.31-0.15
		C321.81,61.23,321.93,61.21,322.04,61.21z"/>
	<path class="st1" d="M333.31,66.68c0,0.54-0.08,1.01-0.24,1.43c-0.16,0.41-0.39,0.76-0.68,1.04c-0.29,0.28-0.63,0.49-1.02,0.64
		c-0.39,0.15-0.82,0.22-1.28,0.22c-0.46,0-0.89-0.07-1.28-0.22c-0.39-0.15-0.73-0.36-1.02-0.64c-0.29-0.28-0.51-0.63-0.67-1.04
		c-0.16-0.41-0.24-0.89-0.24-1.43s0.08-1.01,0.25-1.42c0.17-0.41,0.39-0.75,0.68-1.03c0.29-0.28,0.63-0.49,1.02-0.64
		c0.39-0.14,0.81-0.22,1.27-0.22c0.45,0,0.88,0.07,1.27,0.22c0.39,0.15,0.73,0.36,1.02,0.64c0.29,0.28,0.52,0.62,0.68,1.03
		C333.23,65.66,333.31,66.14,333.31,66.68z M331.64,66.68c0-0.66-0.14-1.16-0.42-1.5c-0.28-0.33-0.66-0.5-1.13-0.5
		c-0.47,0-0.84,0.17-1.13,0.5c-0.28,0.34-0.43,0.83-0.43,1.5c0,0.67,0.14,1.17,0.42,1.5c0.28,0.34,0.66,0.5,1.13,0.5
		s0.85-0.17,1.13-0.5C331.5,67.85,331.64,67.34,331.64,66.68z"/>
	<path class="st1" d="M336.31,68.67c0.37,0,0.63-0.06,0.78-0.19c0.15-0.13,0.23-0.28,0.23-0.46c0-0.17-0.06-0.3-0.18-0.4
		c-0.12-0.1-0.3-0.19-0.54-0.26l-0.53-0.17c-0.29-0.09-0.55-0.19-0.78-0.29c-0.24-0.11-0.44-0.23-0.6-0.38
		c-0.16-0.15-0.29-0.32-0.39-0.53c-0.09-0.2-0.14-0.45-0.14-0.74c0-0.58,0.22-1.04,0.66-1.38c0.44-0.34,1.05-0.51,1.83-0.51
		c0.29,0,0.57,0.02,0.82,0.06s0.47,0.1,0.65,0.19c0.18,0.09,0.32,0.19,0.42,0.32c0.1,0.12,0.15,0.27,0.15,0.44
		c0,0.16-0.04,0.3-0.12,0.42c-0.08,0.12-0.17,0.22-0.27,0.3c-0.16-0.11-0.37-0.2-0.63-0.28c-0.26-0.08-0.55-0.11-0.86-0.11
		c-0.33,0-0.58,0.05-0.73,0.15c-0.16,0.1-0.24,0.23-0.24,0.39c0,0.14,0.05,0.24,0.16,0.32c0.1,0.07,0.26,0.15,0.49,0.22l0.56,0.19
		c0.32,0.11,0.61,0.23,0.85,0.36c0.24,0.13,0.45,0.27,0.62,0.44c0.17,0.16,0.29,0.35,0.37,0.56c0.08,0.21,0.12,0.45,0.12,0.72
		c0,0.29-0.06,0.55-0.17,0.79c-0.11,0.24-0.28,0.44-0.51,0.62s-0.5,0.31-0.83,0.4c-0.33,0.1-0.71,0.15-1.13,0.15
		c-0.32,0-0.61-0.03-0.88-0.08c-0.27-0.05-0.5-0.13-0.7-0.22c-0.2-0.1-0.35-0.22-0.47-0.36c-0.11-0.14-0.17-0.3-0.17-0.48
		c0-0.19,0.05-0.34,0.16-0.47c0.11-0.12,0.23-0.22,0.36-0.3c0.19,0.15,0.42,0.29,0.7,0.4C335.64,68.61,335.96,68.67,336.31,68.67z"
		/>
</g>
<g>
	<path class="st1" d="M309.18,76.99c-0.35,0.34-0.84,0.51-1.49,0.51c-0.37,0-0.68-0.06-0.92-0.19c-0.24-0.12-0.36-0.34-0.36-0.65
		c0-0.13,0.02-0.24,0.06-0.34c0.04-0.1,0.08-0.17,0.13-0.23c0.12,0.03,0.24,0.05,0.35,0.07c0.11,0.02,0.22,0.02,0.34,0.02
		c0.53,0,0.8-0.28,0.8-0.83v-4.29c0.08-0.01,0.19-0.03,0.33-0.05c0.14-0.02,0.28-0.03,0.42-0.03c0.31,0,0.53,0.05,0.67,0.16
		c0.14,0.1,0.21,0.31,0.21,0.61v3.81C309.7,76.18,309.52,76.65,309.18,76.99z"/>
	<path class="st1" d="M313.81,77.53c-0.43,0-0.81-0.06-1.14-0.18c-0.34-0.12-0.62-0.28-0.85-0.5c-0.24-0.21-0.42-0.47-0.54-0.77
		c-0.12-0.3-0.19-0.64-0.19-1.01v-4.01c0.08-0.01,0.18-0.03,0.33-0.05c0.14-0.02,0.29-0.03,0.43-0.03c0.31,0,0.53,0.05,0.67,0.16
		c0.14,0.1,0.2,0.31,0.2,0.61v3.3c0,0.37,0.1,0.66,0.31,0.86c0.2,0.2,0.47,0.31,0.79,0.31c0.33,0,0.6-0.1,0.8-0.31
		c0.2-0.2,0.3-0.49,0.3-0.86v-3.98c0.08-0.01,0.19-0.03,0.33-0.05c0.14-0.02,0.29-0.03,0.43-0.03c0.31,0,0.53,0.05,0.67,0.16
		c0.13,0.1,0.2,0.31,0.2,0.61v3.33c0,0.37-0.06,0.71-0.19,1.01c-0.12,0.3-0.3,0.56-0.54,0.77c-0.24,0.21-0.52,0.38-0.86,0.5
		C314.62,77.47,314.23,77.53,313.81,77.53z"/>
	<path class="st1" d="M323.11,77.36c-0.17,0.05-0.36,0.08-0.59,0.08c-0.24,0-0.46-0.04-0.66-0.11s-0.38-0.25-0.52-0.52l-1.2-2.32
		c-0.12-0.22-0.23-0.44-0.33-0.66s-0.2-0.45-0.29-0.69l-0.07,0.02c0.04,0.41,0.05,0.81,0.06,1.19c0.01,0.38,0.01,0.74,0.01,1.09
		v1.92c-0.07,0.01-0.17,0.03-0.31,0.05c-0.13,0.02-0.27,0.03-0.42,0.03c-0.31,0-0.53-0.05-0.65-0.16s-0.19-0.3-0.19-0.57v-5.33
		c0.08-0.12,0.22-0.21,0.4-0.27c0.18-0.07,0.38-0.1,0.58-0.1c0.24,0,0.46,0.04,0.67,0.11c0.2,0.07,0.37,0.24,0.51,0.51l1.21,2.33
		c0.12,0.22,0.23,0.44,0.33,0.66c0.1,0.22,0.2,0.45,0.29,0.69l0.04-0.01c-0.04-0.46-0.05-0.9-0.06-1.31c0-0.41,0-0.81,0-1.19v-1.72
		c0.07-0.01,0.17-0.03,0.3-0.05c0.14-0.02,0.28-0.03,0.43-0.03c0.31,0,0.53,0.05,0.65,0.16s0.19,0.3,0.19,0.57v5.44
		C323.41,77.24,323.27,77.31,323.11,77.36z"/>
	<path class="st1" d="M327.85,72.39v4.96c-0.08,0.02-0.18,0.04-0.32,0.06c-0.14,0.02-0.28,0.03-0.43,0.03
		c-0.33,0-0.55-0.06-0.68-0.17c-0.13-0.11-0.19-0.31-0.19-0.6v-4.27h-1.63c-0.04-0.07-0.08-0.16-0.12-0.27
		c-0.04-0.11-0.06-0.23-0.06-0.36c0-0.23,0.05-0.41,0.16-0.51c0.1-0.11,0.24-0.16,0.42-0.16h4.52c0.05,0.07,0.09,0.16,0.12,0.27
		c0.04,0.11,0.05,0.23,0.05,0.36c0,0.23-0.05,0.4-0.15,0.51c-0.1,0.11-0.24,0.17-0.43,0.17H327.85z"/>
	<path class="st1" d="M337.27,76.12c0.04,0.01,0.09,0.03,0.15,0.05c0.06,0.02,0.12,0.03,0.18,0.03c0.34,0,0.6-0.16,0.79-0.47
		c0.19-0.31,0.29-0.72,0.29-1.22c0-0.41-0.08-0.79-0.24-1.13c-0.16-0.34-0.38-0.64-0.67-0.88c-0.29-0.25-0.63-0.44-1.03-0.57
		c-0.4-0.13-0.84-0.2-1.31-0.2c-0.55,0-1.05,0.09-1.5,0.26c-0.45,0.18-0.84,0.42-1.16,0.73s-0.58,0.69-0.76,1.12
		c-0.18,0.43-0.27,0.9-0.27,1.41c0,0.49,0.08,0.93,0.24,1.33c0.16,0.4,0.38,0.73,0.66,1.01c0.28,0.28,0.62,0.49,1.01,0.64
		c0.39,0.15,0.82,0.22,1.29,0.22c0.3,0,0.55-0.01,0.75-0.04c0.2-0.03,0.37-0.06,0.51-0.08c0.05,0.08,0.09,0.16,0.12,0.26
		c0.04,0.1,0.05,0.19,0.05,0.28c0,0.13-0.02,0.25-0.07,0.35c-0.05,0.1-0.13,0.19-0.25,0.26c-0.12,0.07-0.28,0.13-0.48,0.17
		s-0.45,0.06-0.76,0.06c-0.56,0-1.11-0.09-1.66-0.26c-0.55-0.17-1.04-0.44-1.47-0.8c-0.44-0.36-0.79-0.82-1.06-1.38
		c-0.27-0.56-0.4-1.23-0.4-2.01c0-0.72,0.13-1.38,0.39-1.97c0.26-0.59,0.63-1.08,1.09-1.49c0.47-0.41,1.02-0.72,1.65-0.94
		c0.63-0.22,1.32-0.33,2.06-0.33c0.7,0,1.35,0.1,1.93,0.29c0.58,0.19,1.08,0.46,1.5,0.81c0.42,0.35,0.74,0.77,0.97,1.26
		c0.23,0.49,0.34,1.04,0.34,1.65c0,0.92-0.22,1.64-0.66,2.14c-0.44,0.5-1.08,0.75-1.9,0.75c-0.21,0-0.43-0.03-0.67-0.09
		c-0.24-0.06-0.46-0.15-0.66-0.28c-0.16,0.1-0.35,0.17-0.56,0.23c-0.21,0.06-0.45,0.09-0.72,0.09c-0.31,0-0.59-0.05-0.85-0.13
		c-0.25-0.09-0.48-0.22-0.66-0.4c-0.19-0.18-0.33-0.39-0.43-0.65c-0.1-0.26-0.15-0.55-0.15-0.87c0-0.37,0.06-0.71,0.19-1.02
		c0.13-0.31,0.3-0.57,0.52-0.79c0.22-0.22,0.49-0.39,0.81-0.51c0.31-0.12,0.66-0.18,1.05-0.18c0.37,0,0.69,0.05,0.96,0.14
		c0.27,0.09,0.49,0.2,0.68,0.32c0.13,0.08,0.23,0.18,0.3,0.29c0.07,0.11,0.11,0.23,0.11,0.36c0,0.04,0,0.08,0,0.12
		c0,0.04-0.01,0.07-0.02,0.11L337.27,76.12z M334.47,75.31c0,0.31,0.08,0.53,0.23,0.66c0.15,0.13,0.34,0.19,0.55,0.19
		c0.23,0,0.42-0.06,0.59-0.19l0.18-1.8c-0.07-0.03-0.15-0.06-0.23-0.08c-0.09-0.02-0.2-0.03-0.34-0.03c-0.28,0-0.51,0.11-0.69,0.32
		C334.56,74.59,334.47,74.9,334.47,75.31z"/>
	<path class="st1" d="M343.19,76.21c0.36,0,0.63-0.06,0.78-0.19c0.15-0.13,0.23-0.28,0.23-0.46c0-0.17-0.06-0.3-0.18-0.4
		c-0.12-0.1-0.3-0.19-0.54-0.26l-0.53-0.17c-0.29-0.09-0.55-0.19-0.78-0.29c-0.24-0.11-0.44-0.23-0.6-0.38
		c-0.16-0.15-0.29-0.32-0.39-0.53c-0.09-0.2-0.14-0.45-0.14-0.74c0-0.58,0.22-1.04,0.66-1.38c0.44-0.34,1.05-0.51,1.83-0.51
		c0.29,0,0.57,0.02,0.82,0.06c0.25,0.04,0.47,0.1,0.65,0.19c0.18,0.09,0.32,0.19,0.42,0.32c0.1,0.12,0.16,0.27,0.16,0.44
		c0,0.16-0.04,0.3-0.12,0.42c-0.08,0.12-0.17,0.22-0.27,0.31c-0.16-0.11-0.37-0.2-0.63-0.28c-0.26-0.08-0.55-0.11-0.86-0.11
		c-0.33,0-0.58,0.05-0.73,0.16c-0.16,0.1-0.24,0.23-0.24,0.39c0,0.14,0.05,0.24,0.16,0.32c0.1,0.07,0.26,0.15,0.49,0.22l0.56,0.19
		c0.33,0.11,0.61,0.23,0.85,0.36c0.24,0.13,0.45,0.27,0.62,0.44c0.17,0.16,0.29,0.35,0.37,0.56c0.08,0.21,0.12,0.45,0.12,0.72
		c0,0.29-0.06,0.55-0.17,0.79c-0.11,0.24-0.28,0.44-0.51,0.62c-0.22,0.17-0.5,0.31-0.83,0.4c-0.33,0.1-0.71,0.15-1.13,0.15
		c-0.32,0-0.61-0.03-0.88-0.08c-0.27-0.05-0.5-0.13-0.7-0.22c-0.2-0.1-0.35-0.22-0.47-0.36c-0.11-0.14-0.17-0.3-0.17-0.48
		c0-0.19,0.05-0.34,0.16-0.46c0.11-0.12,0.23-0.22,0.36-0.3c0.19,0.15,0.42,0.29,0.7,0.4C342.53,76.15,342.84,76.21,343.19,76.21z"
		/>
</g>
</svg>
