<svg width="70" height="70" xmlns="http://www.w3.org/2000/svg">
  <g transform="translate(6 6)" fill="none" fill-rule="evenodd">
    <path d="M46.094 18.594a13.09 13.09 0 0 1-3.909 1.134 7.19 7.19 0 0 0 2.987-3.992 13.11 13.11 0 0 1-4.333 1.752 6.61 6.61 0 0 0-4.969-2.277 7.025 7.025 0 0 0-6.803 7.218 7.375 7.375 0 0 0 .175 1.641 18.981 18.981 0 0 1-14.031-7.54 7.486 7.486 0 0 0-.922 3.631 7.375 7.375 0 0 0 3.024 6.002 6.453 6.453 0 0 1-3.08-.922v.092a7.117 7.117 0 0 0 5.458 7.07 6.103 6.103 0 0 1-1.797.259 6.453 6.453 0 0 1-1.3-.11 6.859 6.859 0 0 0 6.351 5.005 13.155 13.155 0 0 1-8.453 3.088 13.57 13.57 0 0 1-1.586-.083 18.567 18.567 0 0 0 10.436 3.227c12.528 0 19.36-10.989 19.36-20.53v-.922a14.29 14.29 0 0 0 3.392-3.743z" fill="#444" fill-rule="nonzero"/>
    <rect stroke="#444" stroke-width="2" stroke-linecap="round" stroke-linejoin="round" width="59" height="59" rx="6"/>
  </g>
</svg>
