<svg id="Layer_1" data-name="Layer 1" xmlns="http://www.w3.org/2000/svg" xmlns:xlink="http://www.w3.org/1999/xlink" viewBox="0 0 699 300"><defs><style>.cls-1{fill:url(#linear-gradient);}.cls-2{fill:url(#linear-gradient-2);}.cls-3{fill:url(#linear-gradient-3);}.cls-4{fill:url(#linear-gradient-4);}.cls-5{fill:#dbe3e2;}.cls-6{fill:#c1cdce;}.cls-7{fill:#d5dedd;}.cls-8{fill:url(#linear-gradient-5);}.cls-9{fill:#b0b9b9;}.cls-10{fill:url(#linear-gradient-6);}.cls-11{font-size:98.13px;fill:#fff;font-family:BalooDa2-Bold, "Baloo Da 2";font-weight:700;letter-spacing:-0.06em;}.cls-12{letter-spacing:-0.06em;}.cls-13{letter-spacing:-0.06em;}.cls-14{font-size:55.33px;fill:#f0e846;font-family:DIN-Regular, DIN;letter-spacing:-0.04em;}.cls-15{letter-spacing:-0.05em;}.cls-16{fill:url(#linear-gradient-7);}.cls-17{fill:url(#linear-gradient-8);}.cls-18{fill:#f9ed48;}.cls-19{fill:url(#linear-gradient-9);}.cls-20{fill:#191c17;}.cls-21{fill:#66a276;}</style><linearGradient id="linear-gradient" x1="-239.45" y1="525.85" x2="459.55" y2="525.85" gradientTransform="translate(240.68 -375.85)" gradientUnits="userSpaceOnUse"><stop offset="0.4" stop-color="#fff"/><stop offset="0.75" stop-color="#9cc299" stop-opacity="0.75"/></linearGradient><linearGradient id="linear-gradient-2" x1="-244.35" y1="525.85" x2="464.46" y2="525.85" gradientTransform="translate(239.45 -375.85)" xlink:href="#linear-gradient"/><linearGradient id="linear-gradient-3" x1="-1068.34" y1="1585.14" x2="-775.54" y2="1585.14" gradientTransform="translate(-1235.64 -771.94) rotate(-90)" xlink:href="#linear-gradient"/><linearGradient id="linear-gradient-4" x1="302.43" y1="373.19" x2="498.87" y2="91.97" gradientUnits="userSpaceOnUse"><stop offset="0" stop-color="#97be90"/><stop offset="1" stop-color="#6eaa70"/></linearGradient><linearGradient id="linear-gradient-5" x1="280.21" y1="291.38" x2="109.02" y2="14.56" gradientTransform="matrix(1, 0, 0, 1, 0, 0)" xlink:href="#linear-gradient"/><linearGradient id="linear-gradient-6" x1="39.37" y1="11.03" x2="68.34" y2="109.08" gradientUnits="userSpaceOnUse"><stop offset="0.19" stop-color="#f4db5b"/><stop offset="1" stop-color="#e7b84a"/></linearGradient><linearGradient id="linear-gradient-7" x1="126.49" y1="82.38" x2="287.75" y2="82.38" xlink:href="#linear-gradient-4"/><linearGradient id="linear-gradient-8" x1="217.76" y1="102.55" x2="270.99" y2="102.55" xlink:href="#linear-gradient-4"/><linearGradient id="linear-gradient-9" x1="147.82" y1="102.57" x2="232.53" y2="102.57" xlink:href="#linear-gradient-4"/></defs><title>CMM DIGITAL - BOTON-02</title><path class="cls-1" d="M630.58,0H70.89A69.86,69.86,0,0,0,1.23,69.65v160.7A69.86,69.86,0,0,0,70.89,300H630.58a69.85,69.85,0,0,0,69.65-69.65V69.65A69.85,69.85,0,0,0,630.58,0Zm66.06,226.75A69.86,69.86,0,0,1,627,296.4H74.49A69.86,69.86,0,0,1,4.83,226.75V73.25A69.86,69.86,0,0,1,74.49,3.6H627a69.86,69.86,0,0,1,69.66,69.65Z" transform="translate(-1.23)"/><rect class="cls-2" x="3.6" y="3.6" width="691.8" height="292.8" rx="69.65"/><rect class="cls-3" x="3.6" y="3.6" width="691.8" height="292.8" rx="69.65"/><g id="Layer0_0_FILL" data-name="Layer0 0 FILL"><path class="cls-4" d="M676.22,227.83,682.3,12.55,242.2,69.67,270.27,233.2Z" transform="translate(-1.23)"/></g><g id="Layer0_16_MEMBER_0_FILL" data-name="Layer0 16 MEMBER 0 FILL"><path class="cls-5" d="M234,289.86l254-34.65L339.67,212l-254,34.65Z" transform="translate(-1.23)"/><path class="cls-6" d="M234,289.86,233.71,300l254-34.65.34-10.14Z" transform="translate(-1.23)"/><path class="cls-7" d="M30.7,63.35,85.63,246.63l254-34.65L284.62,28.69,30.7,63.35M90.75,238.83,40.06,69.36,279.61,36.61l50.81,169.46Z" transform="translate(-1.23)"/><path class="cls-8" d="M40.06,69.36,90.75,238.83l239.67-32.76L279.61,36.61Z" transform="translate(-1.23)"/><path class="cls-9" d="M30.7,63.35l-7.35,6.79,55,183.29L233.71,300l.33-10.14L85.63,246.63Z" transform="translate(-1.23)"/></g><g id="Layer0_16_MEMBER_2_FILL" data-name="Layer0 16 MEMBER 2 FILL"><path d="M648.47,198.26l22.35-7.72-52.05-16,12.5,52.87,9-21.58,31,35.88,10.94-10.21Z" transform="translate(-1.23)"/></g><g id="Layer0_16_MEMBER_3_FILL" data-name="Layer0 16 MEMBER 3 FILL"><path class="cls-10" d="M56.86,88.9l-2.63,13.64,9.39.72,2.76-11.48L56.86,88.9M14.51,76.62,10.58,99.25,47,101.9l1.9-15.25-34.38-10M32.05,18.16q-3.28,4.2-8.4,10.3a106.27,106.27,0,0,0-7.22,10Q23.69,44,38.2,55.66,60.94,73.35,73.92,83.8q4.11-5.35,6.79-9-8.49-9.7-20.56-23.68-18.87-21.85-28.1-33m42.58,11.5c.48,1.32.9,2.58,1.25,3.77Q82.44,53.68,87,68.36q4.35-1,12.29-3.5-1.25-9.06-2.63-20.3-1.4-10.65-2.46-19.32L74.63,29.66M86,17.89c2.52-1,4.83-1.73,6.95-2.31Q91.93,6.72,91.15.6,86,1.59,78.7,3.11A104.85,104.85,0,0,0,67,6q2,6.15,5.31,16.47Q77.9,20.74,86,17.89Z" transform="translate(-1.23)"/></g><text class="cls-11" transform="translate(315.53 140.71) rotate(-3.16)">INGR<tspan class="cls-12" x="195.87" y="0">E</tspan><tspan class="cls-13" x="243.75" y="0">S</tspan><tspan x="291.84" y="0">A</tspan></text><text class="cls-14" transform="translate(377.8 199.17) rotate(-3.16)">POR <tspan class="cls-15" x="112.05" y="0">A</tspan><tspan x="143.09" y="0">QUI</tspan></text><polygon class="cls-16" points="207.12 19.26 126.49 145.5 287.75 145.5 207.12 19.26"/><path class="cls-17" d="M218.52,54.27c1.92-1.83,3.25-.61,5.62,1.17,2.15,1.6,3,5.23,5.16,7.84,3.62,4.4,8.46,7.81,11.66,7.59,2.91-.15,3.25-.3,4.12-.75.47-.24-2.17-.59-3.66-1.23-4.74-2-7.69-8.62-5.4-13.83,2.78-6.33,9.14-8.48,15.46-5.77,3.78,1.62,6.07,6,5.81,10.52s-2.29,7.43-6.48,9c-.58.22-.5.45.06.6,6.44,1.78,10.95,6.07,14.43,11.43,4.51,7,5.86,14.8,5.67,23-.05,2.18-.12,4.36-.36,6.52s-1.5,3.22-3.09,3.19a3.49,3.49,0,0,1-3.08-3.4c-.19-3.46-.21-6.93-.46-10.39a25.06,25.06,0,0,0-1-4.48c-.09-.34-2.56-5.33-2.85-5.62a36.53,36.53,0,0,0-.83,4.82c-.51,3.84-.67,6.28,0,9.45.82,4,4.67,18.54,4,25.81-.19,2-4-.12-5.67,1.53-1.22,1.23-2.45,6.41-3,9.19a3.93,3.93,0,0,1-1,2.09,3,3,0,0,1-2.26.79,3.16,3.16,0,0,1-1.52-2.07c-.08-2-.17-4.57-.24-7.84a5.89,5.89,0,0,0-.24-2.16,5.69,5.69,0,0,0-.64,2.11c-.18,5.59-.13,3.29-.28,8.87-.11,3.62-.3,7.23-.52,10.83a3.5,3.5,0,0,1-1.7,3.26c-3.13,1.68-5.92,0-6.1-3.77-.1-2.08-.1-4.16-.17-6.24-.28-7.44.26-13.07-.43-14.22s-3.31,0-5.32-1.22.16-18,3-24c2.63-5.56,2.77-5.3,2.81-10.25,0-1.33.24-6,.08-7.31-.08-.59.71-8.15-1.57-8.92-2.79-.93-8.56-5-12.77-9.76a49.84,49.84,0,0,1-7.26-10.78A5.56,5.56,0,0,1,218.52,54.27Z" transform="translate(-1.23)"/><path class="cls-18" d="M217.61,54.27c1.92-1.83,3.25-.61,5.62,1.17,2.14,1.6,3,5.23,5.16,7.84,3.61,4.4,8.46,7.81,11.65,7.59,2.92-.15,3.26-.3,4.13-.75.47-.24-2.17-.59-3.66-1.23-4.74-2-7.7-8.62-5.4-13.83,2.78-6.33,9.14-8.48,15.46-5.77,3.77,1.62,6.07,6,5.81,10.52s-2.3,7.43-6.48,9c-.58.22-.5.45.06.6,6.43,1.78,11,6.07,14.43,11.43,4.5,7,5.86,14.8,5.67,23-.05,2.18-.13,4.36-.36,6.52s-1.5,3.22-3.09,3.19a3.49,3.49,0,0,1-3.08-3.4c-.2-3.46-.21-6.93-.46-10.39a25.06,25.06,0,0,0-1-4.48c-.1-.34-2.56-5.33-2.85-5.62a33.52,33.52,0,0,0-.83,4.82c-.51,3.84-.68,6.28,0,9.45.82,4,4.67,18.54,4,25.81-.19,2-4-.12-5.66,1.53-1.22,1.23-2.45,6.41-3.05,9.19a3.93,3.93,0,0,1-1,2.09,3,3,0,0,1-2.27.79,3.15,3.15,0,0,1-1.51-2.07c-.08-2-.18-4.57-.24-7.84a5.89,5.89,0,0,0-.24-2.16,5.51,5.51,0,0,0-.64,2.11c-.19,5.59-.13,3.29-.29,8.87-.1,3.62-.29,7.23-.51,10.83a3.52,3.52,0,0,1-1.7,3.26c-3.13,1.68-5.92,0-6.1-3.77-.1-2.08-.1-4.16-.18-6.24-.27-7.44.27-13.07-.43-14.22s-3.3,0-5.31-1.22.16-18,3-24c2.63-5.56,2.77-5.3,2.81-10.25,0-1.33.24-6,.07-7.31-.07-.59.72-8.15-1.56-8.92-2.79-.93-8.56-5-12.78-9.76a50.09,50.09,0,0,1-7.25-10.78A5.56,5.56,0,0,1,217.61,54.27Z" transform="translate(-1.23)"/><path class="cls-19" d="M230.71,93.33a3.89,3.89,0,0,0-4.2,2.54c-1.69,7.17-9.58,8.27-9.77,8.29-1,.16-1.53-.42-2.16-.75a7.94,7.94,0,1,0-1.46,0,4.69,4.69,0,0,1-2.14.76c-.2,0-5.9-1.54-9.78-8.3-.11-.2-.24-.39-.36-.57a7.56,7.56,0,0,0-1.08-2c-1.15-1.58-2.56-2.1-4-3.39-8.16-7.07-14.28-12.26-22.51-19.3,6.87-4.34,9-8.27,7.49-14s-5.64-8.39-10.9-8.43c-5.42,0-9.19,3.35-10.85,8.64-1.59,5.1.93,9.54,8.27,14.5-14.49,8.21-20.15,22.45-19.31,37.9.42,7.64,1.84,9.81,5.13,7.09,3-2.45-.63-19.86,9.23-25.74-1,4-8.26,33.72-9.25,37.14-1.31,4.55-.1,7,5,6.58,4-.38,4.93-.34,5.35,3.62a12.93,12.93,0,0,0,1.37,4.85c.68.91,3.2.85,3.79.47.33-.21,1.76-8.91,1.84-8.68.76,2.06.31,17,1.12,19.39a4,4,0,0,0,4.37,3.08c2.57,0,3.47-1.31,3.69-3.18.55-4.71,0-10.6.45-15.33.16-1.61,1.89-4,3.35-4.39,7.46-2,7.52-1.84,5.29-9.44-.67-2.29-1.51-4.53-2.09-6.83-2.15-8.69-6.42-17.06-4.21-27.44,2.36,1.43,4.21,2.41,5.9,3.6,3.55,2.49,2.24,1.14,5.8,3.57a6.63,6.63,0,0,0,2,.91,24.53,24.53,0,0,0,9.94,10.8l1.15,8.93a4.71,4.71,0,0,1,0,.65L205.94,140a3.42,3.42,0,1,0,6.83,0h.06l.59-15.17.29-.29.88,15.46c1.89,0,3.7-2.12,4.45-4.45l1-10.7.45-6.12,1-9.41c3.42-1.21,8.24-5.06,10.83-12.12C232.88,95.69,232.32,93.71,230.71,93.33Z" transform="translate(-1.23)"/><path class="cls-18" d="M231.73,93.33a3.91,3.91,0,0,0-4.21,2.54c-1.68,7.17-9.58,8.27-9.76,8.29-1,.16-1.54-.42-2.16-.75a7.95,7.95,0,1,0-1.47,0,4.66,4.66,0,0,1-2.13.76c-.2,0-5.91-1.54-9.78-8.3-.12-.2-.24-.39-.37-.57a7.69,7.69,0,0,0-1.07-2c-1.16-1.58-2.57-2.1-4.06-3.39-8.16-7.07-14.28-12.26-22.5-19.3,6.86-4.34,8.95-8.27,7.49-14s-5.65-8.39-10.9-8.43c-5.42,0-9.2,3.35-10.86,8.64-1.59,5.1.93,9.54,8.27,14.5-14.49,8.21-20.15,22.45-19.3,37.9.41,7.64,1.83,9.81,5.12,7.09,3-2.45-.63-19.86,9.24-25.74-1,4-8.26,33.72-9.25,37.14-1.32,4.55-.1,7,5,6.58,4-.38,4.93-.34,5.35,3.62a13.09,13.09,0,0,0,1.38,4.85c.67.91,3.2.85,3.79.47.33-.21,1.76-8.91,1.84-8.68.75,2.06.31,17,1.11,19.39a4,4,0,0,0,4.38,3.08c2.56,0,3.47-1.31,3.69-3.18.55-4.71,0-10.6.44-15.33.16-1.61,1.9-4,3.36-4.39,7.46-2,7.52-1.84,5.29-9.44-.67-2.29-1.52-4.53-2.09-6.83-2.16-8.69-6.43-17.06-4.21-27.44,2.36,1.43,4.2,2.41,5.89,3.6,3.56,2.49,2.24,1.14,5.8,3.57a6.69,6.69,0,0,0,2,.91,24.52,24.52,0,0,0,9.93,10.8l1.15,8.93a2.83,2.83,0,0,1,0,.65L207,140a3.42,3.42,0,0,0,6.84,0h.05l.59-15.17.29-.29L215.6,140c1.89,0,3.7-2.12,4.46-4.45l1-10.7.45-6.12,1-9.41c3.41-1.21,8.24-5.06,10.83-12.12C233.9,95.69,233.33,93.71,231.73,93.33Z" transform="translate(-1.23)"/><rect class="cls-18" x="298.99" y="243.73" width="5.61" height="15.59" transform="translate(602.36 503.04) rotate(180)"/><path class="cls-20" d="M285.05,199.06a.81.81,0,0,1-.45-.13,3.42,3.42,0,0,1-.45-.39L283,197.35a5.34,5.34,0,0,1-1.83,1.26,6.3,6.3,0,0,1-2.57.48,6.42,6.42,0,0,1-2.12-.33,4.91,4.91,0,0,1-1.62-.91,4.09,4.09,0,0,1-1.05-1.44,4.57,4.57,0,0,1-.38-1.88,4.08,4.08,0,0,1,.84-2.63,4.7,4.7,0,0,1,2.12-1.52,5.24,5.24,0,0,1-.81-1.24,3.26,3.26,0,0,1-.27-1.33,2.86,2.86,0,0,1,.93-2.24,3.9,3.9,0,0,1,2.65-.83,3.82,3.82,0,0,1,1.82.34,1,1,0,0,1,.62.85.84.84,0,0,1-.15.49,1.12,1.12,0,0,1-.32.33,3.68,3.68,0,0,0-.85-.34,3.72,3.72,0,0,0-1-.14,2,2,0,0,0-1.36.42,1.41,1.41,0,0,0-.49,1.14,2.18,2.18,0,0,0,.36,1.24,8.84,8.84,0,0,0,1,1.24l4.24,4.42a7.26,7.26,0,0,0,.48-1.71,12.68,12.68,0,0,0,.17-2.24,2.3,2.3,0,0,1,.42-.14,1.52,1.52,0,0,1,.42-.06q.9,0,.9,1a9.83,9.83,0,0,1-.29,2.32,8.53,8.53,0,0,1-.84,2.12l2,2.05C286,198.74,285.63,199.06,285.05,199.06Zm-6.43-1.51a4.75,4.75,0,0,0,1.65-.31,4.47,4.47,0,0,0,1.6-1.06l-4.37-4.58a3.91,3.91,0,0,0-.84.37,2.59,2.59,0,0,0-.71.61,3.35,3.35,0,0,0-.5.87,3.21,3.21,0,0,0-.19,1.1,2.85,2.85,0,0,0,.89,2.18A3.51,3.51,0,0,0,278.62,197.55Z" transform="translate(-1.23)"/><path class="cls-20" d="M208.48,170.09a17.16,17.16,0,0,0-7.68-1.91H188.39V187a3.7,3.7,0,0,0,3.71,3.7h2.47V174.36h6.23a10.31,10.31,0,0,1,4.59,1.15q4.68,2.34,4.67,8.08t-4.67,8.17a10.1,10.1,0,0,1-4.59,1.18h-8.68a3.73,3.73,0,0,0-3.73,3.73v2.42H200.8a17.16,17.16,0,0,0,7.68-1.91q7.76-3.92,7.76-13.59T208.48,170.09Z" transform="translate(-1.23)"/><path class="cls-20" d="M264.16,174.36a3.71,3.71,0,0,0,3.71-3.71v-2.47H246.2v30.91h21.67v-2.44a3.71,3.71,0,0,0-3.71-3.71H252.37v-6.26h13V180.5h-13v-6.14Z" transform="translate(-1.23)"/><path class="cls-20" d="M243.72,180.5q0-7.73-6.17-10.82a13.52,13.52,0,0,0-6.17-1.59H219v12.67a3.69,3.69,0,0,0,3.7,3.7h2.47V174.27h6.24a6.59,6.59,0,0,1,3.08.84,5.47,5.47,0,0,1,3.09,5.39,5.61,5.61,0,0,1-3.09,5.43,7.21,7.21,0,0,1-3.08.75H219v12.41h6.17v-6.24h6.24c.34,0,.81,0,1.41-.08l2.33,6.32h6.59l-3.07-8.4Q243.73,187.44,243.72,180.5Z" transform="translate(-1.23)"/><path class="cls-20" d="M166.94,168l-9.48,31.06h3.43a3.72,3.72,0,0,0,3.55-2.63l1-3.26v.15h4.65a3.71,3.71,0,0,0,3.71-3.7v-2.47h-6.52l3.88-12.72,9,22.3a3.71,3.71,0,0,0,3.44,2.33h3.86L174.92,168Z" transform="translate(-1.23)"/><path class="cls-20" d="M142.06,181.46,132.68,168h-4.87v31.06h2.45a3.72,3.72,0,0,0,3.72-3.72V180.23h0l2.58,3.74,5.5,8h0l8-11.73v18.87h6.26V168h-4.88Z" transform="translate(-1.23)"/><path class="cls-20" d="M172.7,234.13h21.67V231.7a3.72,3.72,0,0,0-3.72-3.72H178.87v-6.26h13v-6.17h-13V209.4h11.79a3.71,3.71,0,0,0,3.71-3.71v-2.47H172.7Z" transform="translate(-1.23)"/><path class="cls-20" d="M272.38,215.55q0-7.74-6.17-10.83a13.5,13.5,0,0,0-6.17-1.58H247.63V215.8a3.71,3.71,0,0,0,3.7,3.71h2.47v-10.2H260a6.63,6.63,0,0,1,3.09.84q3.08,1.5,3.08,5.4a5.61,5.61,0,0,1-3.08,5.42,7.25,7.25,0,0,1-3.09.75H247.63v12.41h6.17v-6.24H260c.34,0,.81,0,1.41-.08l2.34,6.32h6.58l-3.06-8.4Q272.38,222.48,272.38,215.55Z" transform="translate(-1.23)"/><path class="cls-20" d="M207.76,215.55q-3.78,0-5.19-1.59a1.93,1.93,0,0,1-.52-1.33v-.4q.34-2.83,5.71-2.83a14.73,14.73,0,0,1,4.45.64,8.64,8.64,0,0,1,.89.38,3.73,3.73,0,0,0,4.27-.82l2.31-2.45a13,13,0,0,0-3.26-2.11,20.29,20.29,0,0,0-8.66-1.82,13.92,13.92,0,0,0-8.19,2.26,8.63,8.63,0,0,0-3.67,6,7.43,7.43,0,0,0-.09,1.15,7.77,7.77,0,0,0,2.17,5.43q3.15,3.66,9.78,3.66,3.78,0,5.19,1.59a2.46,2.46,0,0,1,.61,1.58V225q-.44,2.94-5.8,2.94a14.82,14.82,0,0,1-4.36-.62c-.18-.06-.55-.22-1-.42a3.7,3.7,0,0,0-4.3.83l-2.28,2.46a13.32,13.32,0,0,0,3.26,2.08,20.29,20.29,0,0,0,8.66,1.82,13.64,13.64,0,0,0,8.2-2.34,8,8,0,0,0,3.66-5.91,8.2,8.2,0,0,0-2-6.67C215.45,216.77,212.17,215.55,207.76,215.55Z" transform="translate(-1.23)"/><path class="cls-20" d="M221.1,209.37h9.23v24.76h6.24V209.37h5.35a3.88,3.88,0,0,0,3.88-3.88v-2.27H221.1Z" transform="translate(-1.23)"/><path class="cls-20" d="M151.25,203.07l-9.48,31.06h3.42a3.72,3.72,0,0,0,3.55-2.63l6.72-22,5.23,13h-5.9v2.46a3.71,3.71,0,0,0,3.7,3.71h4.65v-.09l1.31,3.25a3.72,3.72,0,0,0,3.44,2.32h3.86l-12.53-31.06Z" transform="translate(-1.23)"/><path class="cls-20" d="M289.22,203.07h-8l-9.48,31.06h3.42a3.72,3.72,0,0,0,3.55-2.63l.87-2.85h4.46a3.71,3.71,0,0,0,3.71-3.71v-2.46h-6.28l4-13,9,22.31a3.72,3.72,0,0,0,3.44,2.32h3.86Z" transform="translate(-1.23)"/><path class="cls-20" d="M126.36,216.5,117,203.07h-4.87v31.06h2.46a3.72,3.72,0,0,0,3.71-3.72V215.27h0l2.58,3.74,5.5,8h0l8-11.73v18.87h6.26V203.07h-4.88Z" transform="translate(-1.23)"/><path class="cls-21" d="M221.33,251.5a13.35,13.35,0,0,1-.73,4.65,8.76,8.76,0,0,1-2.09,3.28,8.35,8.35,0,0,1-3.28,1.93,13.44,13.44,0,0,1-4.3.64c-.69,0-1.48,0-2.35-.08a11.09,11.09,0,0,1-2.48-.44c-.91-.28-1.36-.78-1.36-1.5V243.22a1.09,1.09,0,0,1,.26-.8,1.72,1.72,0,0,1,.81-.44,9.54,9.54,0,0,1,2.28-.42c.85-.07,1.7-.1,2.55-.1a14.29,14.29,0,0,1,4.35.63,9.19,9.19,0,0,1,3.37,1.9,8.34,8.34,0,0,1,2.19,3.13A11.34,11.34,0,0,1,221.33,251.5Zm-2.7,0a9.11,9.11,0,0,0-.64-3.57,6.51,6.51,0,0,0-1.73-2.43,7,7,0,0,0-2.54-1.39,10.84,10.84,0,0,0-3.12-.44c-.69,0-1.3,0-1.8.07a11,11,0,0,0-1.42.2v15.52a9.56,9.56,0,0,0,1.67.26c.6,0,1.22.06,1.85.06q3.84,0,5.79-2.08T218.63,251.5Z" transform="translate(-1.23)"/><path class="cls-21" d="M225.31,241.82a1.58,1.58,0,0,1,.47-1.16,1.67,1.67,0,0,1,1.23-.48,1.63,1.63,0,1,1,0,3.26,1.66,1.66,0,0,1-1.23-.47A1.58,1.58,0,0,1,225.31,241.82Zm3,19.76a4.1,4.1,0,0,1-.49.14,2.68,2.68,0,0,1-.72.09c-.93,0-1.4-.4-1.4-1.18v-14l.51-.15a3.35,3.35,0,0,1,.73-.07c.91,0,1.37.4,1.37,1.2Z" transform="translate(-1.23)"/><path class="cls-21" d="M243.47,260.08a4.94,4.94,0,0,1-1.51.78,7.12,7.12,0,0,1-2.3.33,8.89,8.89,0,0,1-2.71-.41,5.9,5.9,0,0,1-2.23-1.31,6.23,6.23,0,0,1-1.53-2.33,9.43,9.43,0,0,1-.58-3.49,8.83,8.83,0,0,1,.56-3.26,6.3,6.3,0,0,1,3.91-3.77,9.44,9.44,0,0,1,3-.47,9.59,9.59,0,0,1,2.76.38,7.89,7.89,0,0,1,2.1.93,3.16,3.16,0,0,1,.8.73,1.57,1.57,0,0,1,.31,1v13.1a6.35,6.35,0,0,1-.54,2.76,4.54,4.54,0,0,1-1.5,1.82,6.42,6.42,0,0,1-2.26,1,11.45,11.45,0,0,1-2.81.33,10,10,0,0,1-2.82-.34,7.06,7.06,0,0,1-1.58-.61,1.61,1.61,0,0,1-1-1.4,1.36,1.36,0,0,1,.21-.77,1.61,1.61,0,0,1,.54-.47,7.05,7.05,0,0,0,1.93,1,7.85,7.85,0,0,0,2.7.45,5.18,5.18,0,0,0,3.35-.94,3.6,3.6,0,0,0,1.15-3ZM240,259a4.92,4.92,0,0,0,2.14-.4,6.15,6.15,0,0,0,1.38-.93v-8.48a6.36,6.36,0,0,0-1.38-.64,6.43,6.43,0,0,0-2-.28,4.75,4.75,0,0,0-3.53,1.34,5.45,5.45,0,0,0-1.32,4,7.53,7.53,0,0,0,.36,2.49,4.33,4.33,0,0,0,1,1.68,3.7,3.7,0,0,0,1.5.95A5.86,5.86,0,0,0,240,259Z" transform="translate(-1.23)"/><path class="cls-21" d="M250.68,241.82a1.58,1.58,0,0,1,.47-1.16,1.64,1.64,0,0,1,1.22-.48,1.59,1.59,0,0,1,1.21.48,1.68,1.68,0,0,1,0,2.31,1.58,1.58,0,0,1-1.21.47,1.64,1.64,0,0,1-1.22-.47A1.58,1.58,0,0,1,250.68,241.82Zm3,19.76a4.1,4.1,0,0,1-.49.14,2.73,2.73,0,0,1-.72.09c-.93,0-1.4-.4-1.4-1.18v-14l.51-.15a3.35,3.35,0,0,1,.73-.07c.91,0,1.37.4,1.37,1.2Z" transform="translate(-1.23)"/><path class="cls-21" d="M263.92,262.06a6.18,6.18,0,0,1-3.7-1,3.81,3.81,0,0,1-1.42-3.35V242.21a3.78,3.78,0,0,1,.51-.15A3.33,3.33,0,0,1,260,242c.91,0,1.37.39,1.37,1.17v3.75h5.35a2.74,2.74,0,0,1,.19.44,1.72,1.72,0,0,1,.1.6c0,.75-.33,1.11-1,1.11h-4.66v8.48a2.15,2.15,0,0,0,.73,1.85,3.45,3.45,0,0,0,2.07.53,4.57,4.57,0,0,0,1.24-.19,4.73,4.73,0,0,0,1.14-.46,2.15,2.15,0,0,1,.36.49,1.32,1.32,0,0,1-.68,1.86A5.09,5.09,0,0,1,263.92,262.06Z" transform="translate(-1.23)"/><path class="cls-21" d="M276.44,246.15a7.16,7.16,0,0,1,4.5,1.28,4.7,4.7,0,0,1,1.66,4v7.73a1.85,1.85,0,0,1-.27,1.09,2.74,2.74,0,0,1-.84.7,8.26,8.26,0,0,1-2.07.81,11.9,11.9,0,0,1-2.95.34,8,8,0,0,1-4.74-1.21,4,4,0,0,1-1.68-3.49,3.87,3.87,0,0,1,1.4-3.24,7.66,7.66,0,0,1,3.95-1.36l4.63-.45v-.92a2.82,2.82,0,0,0-1-2.38,4.22,4.22,0,0,0-2.64-.75,8.7,8.7,0,0,0-2.58.39,15,15,0,0,0-2.15.89,3.42,3.42,0,0,1-.47-.53,1,1,0,0,1-.22-.65,1.22,1.22,0,0,1,.23-.75,2.3,2.3,0,0,1,.72-.55,7.74,7.74,0,0,1,2-.7A11.39,11.39,0,0,1,276.44,246.15Zm0,13.79a8,8,0,0,0,2.27-.27,5.21,5.21,0,0,0,1.29-.54V254.4l-4,.43a5.14,5.14,0,0,0-2.51.76,2.09,2.09,0,0,0-.81,1.78,2.2,2.2,0,0,0,.94,1.91A5.05,5.05,0,0,0,276.47,259.94Z" transform="translate(-1.23)"/><path class="cls-21" d="M289.75,261.72a2.73,2.73,0,0,1-.72.09c-.94,0-1.4-.4-1.4-1.18V240.51l.5-.15a3.27,3.27,0,0,1,.7-.08c.94,0,1.41.39,1.41,1.18v20.12Z" transform="translate(-1.23)"/></svg>