<?xml version="1.0" encoding="utf-8"?>
<!-- Generator: Adobe Illustrator 24.3.0, SVG Export Plug-In . SVG Version: 6.00 Build 0)  -->
<svg version="1.1" id="Layer_1" xmlns="http://www.w3.org/2000/svg" xmlns:xlink="http://www.w3.org/1999/xlink" x="0px" y="0px"
	 viewBox="0 0 566.93 283.46" style="enable-background:new 0 0 566.93 283.46;" xml:space="preserve">
<style type="text/css">
	.st0{fill:#F7EA0D;}
	.st1{fill:none;}
	.st2{fill:url(#SVGID_1_);}
	.st3{fill:url(#SVGID_2_);}
	.st4{fill:url(#SVGID_3_);}
	.st5{fill:url(#SVGID_4_);}
	.st6{fill:url(#SVGID_5_);}
	.st7{fill:url(#SVGID_6_);}
	.st8{fill:url(#SVGID_7_);}
	.st9{fill:url(#SVGID_8_);}
	.st10{fill:url(#SVGID_9_);}
	.st11{fill:url(#SVGID_10_);}
	.st12{fill:url(#SVGID_11_);}
	.st13{fill:url(#SVGID_12_);}
	.st14{fill:url(#SVGID_13_);}
	.st15{fill:url(#SVGID_14_);}
	.st16{fill:url(#SVGID_15_);}
	.st17{fill:url(#SVGID_16_);}
	.st18{fill:url(#SVGID_17_);}
	.st19{fill:url(#SVGID_18_);}
	.st20{fill:url(#SVGID_19_);}
	.st21{fill:url(#SVGID_20_);}
	.st22{fill:#FFFFFF;}
	.st23{fill:url(#SVGID_21_);}
	.st24{fill:url(#SVGID_22_);}
	.st25{fill:url(#SVGID_23_);}
	.st26{fill:url(#SVGID_24_);}
	.st27{fill:url(#SVGID_25_);}
	.st28{fill:url(#SVGID_26_);}
	.st29{fill:url(#SVGID_27_);}
	.st30{fill:url(#SVGID_28_);}
	.st31{fill:url(#SVGID_29_);}
	.st32{fill:url(#SVGID_30_);}
	.st33{fill:url(#SVGID_31_);}
	.st34{fill:url(#SVGID_32_);}
	.st35{fill:url(#SVGID_33_);}
	.st36{fill:url(#SVGID_34_);}
	.st37{fill:url(#SVGID_35_);}
	.st38{fill:url(#SVGID_36_);}
	.st39{fill:url(#SVGID_37_);}
	.st40{fill:url(#SVGID_38_);}
	.st41{fill:url(#SVGID_39_);}
	.st42{fill:url(#SVGID_40_);}
	.st43{fill:url(#SVGID_41_);}
	.st44{fill:url(#SVGID_42_);}
	.st45{fill:url(#SVGID_43_);}
	.st46{fill:url(#SVGID_44_);}
	.st47{fill:url(#SVGID_45_);}
	.st48{fill:url(#SVGID_46_);}
</style>
<g>
	<g>
		<g>
			
				<rect x="511.95" y="175.96" transform="matrix(-1 -1.224647e-16 1.224647e-16 -1 1031.0187 371.6873)" class="st0" width="7.11" height="19.76"/>
			<g>
				<path class="st1" d="M333.52,181.48c-1.16,0-2.13,0.41-2.89,1.21c-0.76,0.81-1.16,1.97-1.2,3.48l7.86-1.09
					c-0.1-1.05-0.46-1.91-1.1-2.59C335.56,181.82,334.67,181.48,333.52,181.48z"/>
				<path class="st1" d="M401.37,187.9c-0.48,0.35-0.71,0.87-0.71,1.56c0,0.72,0.28,1.28,0.83,1.67c0.55,0.39,1.39,0.59,2.52,0.59
					c0.8,0,1.46-0.08,1.99-0.24c0.52-0.16,0.9-0.32,1.13-0.47v-4.15l-3.55,0.37C402.59,187.33,401.85,187.55,401.37,187.9z"/>
				<path class="st1" d="M355.65,187.9c-0.48,0.35-0.71,0.87-0.71,1.56c0,0.72,0.28,1.28,0.83,1.67c0.55,0.39,1.39,0.59,2.52,0.59
					c0.8,0,1.46-0.08,1.99-0.24c0.52-0.16,0.9-0.32,1.13-0.47v-4.15l-3.55,0.37C356.86,187.33,356.13,187.55,355.65,187.9z"/>
				<path class="st1" d="M427.01,181.57c-0.28-0.8-0.53-1.54-0.77-2.22c-0.24-0.68-0.43-1.25-0.59-1.73h-0.11
					c-0.21,0.57-0.45,1.22-0.71,1.96c-0.27,0.73-0.54,1.5-0.83,2.3c-0.29,0.8-0.57,1.61-0.86,2.43c-0.29,0.82-0.55,1.6-0.8,2.35
					h6.43c-0.29-0.86-0.58-1.72-0.89-2.59C427.58,183.2,427.29,182.37,427.01,181.57z"/>
				<path class="st1" d="M286.48,181.51c-1.3,0-2.32,0.45-3.06,1.34c-0.74,0.9-1.11,2.14-1.11,3.75c0,1.62,0.37,2.87,1.1,3.76
					c0.73,0.89,1.76,1.33,3.07,1.33c1.32,0,2.33-0.45,3.06-1.34c0.72-0.9,1.09-2.15,1.09-3.75c0-1.6-0.37-2.85-1.1-3.75
					C288.8,181.96,287.78,181.51,286.48,181.51z"/>
				<path class="st1" d="M320.75,182.63c-0.41-0.4-0.88-0.69-1.42-0.86c-0.53-0.17-1.1-0.26-1.69-0.26c-0.69,0-1.27,0.09-1.74,0.26
					c-0.48,0.17-0.9,0.36-1.29,0.57v8.44c0.36,0.27,0.79,0.49,1.29,0.66c0.5,0.17,1.08,0.26,1.74,0.26c1.33,0,2.41-0.41,3.22-1.21
					c0.81-0.81,1.22-2.11,1.22-3.9c0-0.93-0.12-1.73-0.36-2.37C321.49,183.55,321.16,183.03,320.75,182.63z"/>
				<path class="st1" d="M444.81,182.73c-0.38-0.41-0.84-0.71-1.36-0.92c-0.52-0.2-1.09-0.3-1.7-0.3c-0.67,0-1.27,0.12-1.82,0.36
					c-0.54,0.24-1.01,0.52-1.39,0.84v8.09c0.29,0.21,0.7,0.41,1.24,0.6c0.54,0.19,1.18,0.29,1.9,0.29c0.65,0,1.23-0.1,1.76-0.3
					c0.52-0.2,0.98-0.51,1.36-0.93c0.38-0.42,0.68-0.95,0.89-1.59c0.21-0.64,0.31-1.4,0.31-2.27c0-0.88-0.1-1.64-0.31-2.29
					C445.49,183.67,445.19,183.14,444.81,182.73z"/>
				<path class="st1" d="M302.3,181.51c-1.3,0-2.32,0.45-3.06,1.34c-0.74,0.9-1.12,2.14-1.12,3.75c0,1.62,0.37,2.87,1.1,3.76
					s1.76,1.33,3.07,1.33c1.32,0,2.33-0.45,3.06-1.34c0.72-0.9,1.09-2.15,1.09-3.75c0-1.6-0.37-2.85-1.1-3.75
					C304.61,181.96,303.59,181.51,302.3,181.51z"/>
				<path class="st1" d="M497.45,187.9c-0.48,0.35-0.71,0.87-0.71,1.56c0,0.72,0.28,1.28,0.83,1.67c0.55,0.39,1.39,0.59,2.52,0.59
					c0.8,0,1.46-0.08,1.99-0.24c0.52-0.16,0.9-0.32,1.13-0.47v-4.15l-3.55,0.37C498.66,187.33,497.93,187.55,497.45,187.9z"/>
				<path class="st1" d="M464.37,181.48c-1.16,0-2.13,0.41-2.89,1.21c-0.76,0.81-1.16,1.97-1.2,3.48l7.86-1.09
					c-0.1-1.05-0.46-1.91-1.1-2.59C466.4,181.82,465.51,181.48,464.37,181.48z"/>
				<linearGradient id="SVGID_1_" gradientUnits="userSpaceOnUse" x1="264.0086" y1="184.5136" x2="277.8765" y2="184.5136">
					<stop  offset="0" style="stop-color:#74C474"/>
					<stop  offset="1" style="stop-color:#41AA54"/>
				</linearGradient>
				<path class="st2" d="M277.08,190.2c-0.5,0.38-1.11,0.71-1.84,0.99c-0.73,0.28-1.6,0.41-2.59,0.41c-0.93,0-1.78-0.15-2.54-0.44
					c-0.76-0.3-1.42-0.74-1.96-1.33c-0.54-0.59-0.97-1.32-1.27-2.2c-0.31-0.88-0.46-1.91-0.46-3.09c0-1.16,0.16-2.19,0.47-3.09
					c0.32-0.9,0.75-1.64,1.3-2.23c0.55-0.59,1.2-1.04,1.94-1.34c0.74-0.3,1.55-0.46,2.43-0.46c1.07,0,1.94,0.15,2.6,0.46
					c0.67,0.31,1.25,0.63,1.74,0.97c0.21-0.1,0.39-0.24,0.56-0.43c0.16-0.19,0.24-0.42,0.24-0.69c0-0.27-0.13-0.54-0.39-0.82
					c-0.26-0.28-0.62-0.52-1.09-0.74c-0.47-0.22-1.03-0.4-1.69-0.53c-0.66-0.13-1.38-0.2-2.16-0.2c-1.13,0-2.2,0.19-3.22,0.57
					c-1.02,0.38-1.91,0.95-2.67,1.72c-0.76,0.76-1.37,1.71-1.82,2.85c-0.45,1.13-0.67,2.45-0.67,3.96c0,1.51,0.22,2.82,0.66,3.95
					c0.44,1.13,1.03,2.06,1.79,2.82c0.75,0.75,1.64,1.32,2.67,1.7c1.03,0.38,2.14,0.57,3.34,0.57c1.18,0,2.15-0.12,2.92-0.36
					c0.76-0.24,1.36-0.51,1.8-0.81c0.46-0.32,0.69-0.69,0.69-1.09c0-0.27-0.09-0.5-0.26-0.7
					C277.45,190.42,277.27,190.28,277.08,190.2z"/>
				<linearGradient id="SVGID_2_" gradientUnits="userSpaceOnUse" x1="279.9654" y1="186.601" x2="292.9744" y2="186.601">
					<stop  offset="0" style="stop-color:#74C474"/>
					<stop  offset="1" style="stop-color:#41AA54"/>
				</linearGradient>
				<path class="st3" d="M291.19,181.51c-0.56-0.61-1.24-1.08-2.04-1.4c-0.8-0.32-1.69-0.49-2.66-0.49c-0.97,0-1.86,0.16-2.66,0.49
					c-0.8,0.32-1.49,0.79-2.06,1.4c-0.57,0.61-1.02,1.34-1.33,2.2c-0.31,0.86-0.47,1.82-0.47,2.89c0,1.07,0.15,2.03,0.46,2.89
					c0.3,0.86,0.74,1.59,1.31,2.2c0.57,0.61,1.26,1.08,2.06,1.4c0.8,0.32,1.7,0.49,2.69,0.49c0.99,0,1.89-0.16,2.69-0.49
					c0.8-0.32,1.48-0.79,2.04-1.4c0.56-0.61,1-1.34,1.3-2.2c0.3-0.86,0.46-1.82,0.46-2.89c0-1.07-0.16-2.03-0.47-2.89
					C292.19,182.86,291.75,182.12,291.19,181.51z M289.54,190.35c-0.72,0.9-1.74,1.34-3.06,1.34c-1.31,0-2.34-0.44-3.07-1.33
					c-0.73-0.89-1.1-2.14-1.1-3.76c0-1.6,0.37-2.85,1.11-3.75c0.74-0.9,1.76-1.34,3.06-1.34c1.3,0,2.31,0.45,3.05,1.34
					c0.73,0.9,1.1,2.14,1.1,3.75C290.63,188.2,290.27,189.45,289.54,190.35z"/>
				<linearGradient id="SVGID_3_" gradientUnits="userSpaceOnUse" x1="295.7768" y1="186.601" x2="308.7865" y2="186.601">
					<stop  offset="0" style="stop-color:#74C474"/>
					<stop  offset="1" style="stop-color:#41AA54"/>
				</linearGradient>
				<path class="st4" d="M307,181.51c-0.56-0.61-1.24-1.08-2.04-1.4c-0.8-0.32-1.69-0.49-2.66-0.49c-0.97,0-1.86,0.16-2.66,0.49
					c-0.8,0.32-1.49,0.79-2.06,1.4s-1.02,1.34-1.33,2.2c-0.31,0.86-0.47,1.82-0.47,2.89c0,1.07,0.15,2.03,0.46,2.89
					c0.3,0.86,0.74,1.59,1.31,2.2c0.57,0.61,1.26,1.08,2.06,1.4c0.8,0.32,1.7,0.49,2.69,0.49c0.99,0,1.89-0.16,2.69-0.49
					c0.8-0.32,1.48-0.79,2.04-1.4c0.56-0.61,1-1.34,1.3-2.2c0.3-0.86,0.46-1.82,0.46-2.89c0-1.07-0.16-2.03-0.47-2.89
					C308,182.86,307.56,182.12,307,181.51z M305.36,190.35c-0.72,0.9-1.74,1.34-3.06,1.34c-1.31,0-2.34-0.44-3.07-1.33
					s-1.1-2.14-1.1-3.76c0-1.6,0.37-2.85,1.12-3.75c0.74-0.9,1.76-1.34,3.06-1.34c1.3,0,2.31,0.45,3.05,1.34
					c0.73,0.9,1.1,2.14,1.1,3.75C306.44,188.2,306.08,189.45,305.36,190.35z"/>
				<linearGradient id="SVGID_4_" gradientUnits="userSpaceOnUse" x1="312.3325" y1="189.0887" x2="324.3995" y2="189.0887">
					<stop  offset="0" style="stop-color:#74C474"/>
					<stop  offset="1" style="stop-color:#41AA54"/>
				</linearGradient>
				<path class="st5" d="M322.44,181.27c-0.6-0.56-1.32-0.98-2.14-1.24c-0.83-0.27-1.71-0.4-2.65-0.4c-0.92,0-1.73,0.12-2.45,0.36
					c-0.71,0.24-1.33,0.5-1.84,0.79c-0.42,0.25-0.7,0.49-0.83,0.71c-0.13,0.23-0.2,0.53-0.2,0.92v15.1c0,0.7,0.41,1.06,1.23,1.06
					c0.23,0,0.44-0.02,0.63-0.07c0.19-0.05,0.33-0.09,0.43-0.13v-5.55c0.38,0.21,0.87,0.39,1.46,0.54c0.59,0.15,1.22,0.23,1.89,0.23
					c0.94,0,1.8-0.14,2.59-0.43c0.79-0.29,1.47-0.72,2.04-1.3c0.57-0.58,1.02-1.31,1.33-2.19c0.31-0.88,0.47-1.91,0.47-3.09
					c0-1.22-0.18-2.27-0.53-3.15C323.52,182.55,323.04,181.83,322.44,181.27z M320.87,190.48c-0.81,0.81-1.88,1.21-3.22,1.21
					c-0.67,0-1.25-0.09-1.74-0.26c-0.5-0.17-0.93-0.39-1.29-0.66v-8.44c0.38-0.21,0.81-0.4,1.29-0.57c0.48-0.17,1.06-0.26,1.74-0.26
					c0.59,0,1.15,0.09,1.69,0.26c0.53,0.17,1,0.46,1.42,0.86c0.41,0.4,0.73,0.92,0.97,1.57c0.24,0.65,0.36,1.44,0.36,2.37
					C322.08,188.37,321.68,189.67,320.87,190.48z"/>
				<linearGradient id="SVGID_5_" gradientUnits="userSpaceOnUse" x1="327.2025" y1="186.601" x2="339.4701" y2="186.601">
					<stop  offset="0" style="stop-color:#74C474"/>
					<stop  offset="1" style="stop-color:#41AA54"/>
				</linearGradient>
				<path class="st6" d="M337.8,181.27c-0.52-0.52-1.15-0.93-1.87-1.21c-0.73-0.29-1.52-0.43-2.37-0.43c-0.91,0-1.76,0.16-2.54,0.47
					c-0.78,0.31-1.45,0.77-2.02,1.36c-0.56,0.59-1,1.31-1.32,2.16c-0.31,0.85-0.47,1.82-0.47,2.9c0,2.31,0.64,4.06,1.93,5.26
					c1.29,1.2,3.04,1.8,5.25,1.8c0.63,0,1.21-0.06,1.76-0.17c0.54-0.11,1.02-0.27,1.43-0.46c0.41-0.19,0.73-0.41,0.97-0.66
					c0.24-0.25,0.36-0.5,0.36-0.77c0-0.46-0.23-0.82-0.69-1.09c-0.38,0.3-0.9,0.59-1.54,0.86c-0.65,0.27-1.37,0.4-2.17,0.4
					c-2.76,0-4.4-1.25-4.92-3.75l8.81-1.23c0.34-0.04,0.61-0.15,0.8-0.33c0.19-0.18,0.29-0.48,0.29-0.9c0-0.86-0.15-1.64-0.44-2.36
					C338.73,182.41,338.32,181.79,337.8,181.27z M329.43,186.17c0.04-1.51,0.44-2.66,1.2-3.48c0.76-0.81,1.72-1.21,2.89-1.21
					c1.14,0,2.03,0.34,2.67,1.02c0.64,0.68,1,1.54,1.1,2.59L329.43,186.17z"/>
				<linearGradient id="SVGID_6_" gradientUnits="userSpaceOnUse" x1="342.7861" y1="186.4867" x2="351.0221" y2="186.4867">
					<stop  offset="0" style="stop-color:#74C474"/>
					<stop  offset="1" style="stop-color:#41AA54"/>
				</linearGradient>
				<path class="st7" d="M348.73,179.62c-1.07,0-2.03,0.12-2.87,0.36c-0.85,0.24-1.52,0.52-2.02,0.84c-0.38,0.25-0.65,0.5-0.81,0.76
					c-0.16,0.26-0.24,0.61-0.24,1.04v9.69c0,0.69,0.41,1.03,1.23,1.03c0.23,0,0.44-0.02,0.63-0.07c0.19-0.05,0.33-0.09,0.43-0.13
					v-10.69c0.44-0.25,0.99-0.46,1.66-0.64c0.67-0.18,1.44-0.27,2.32-0.27c0.31,0,0.61,0.02,0.92,0.06c0.3,0.04,0.55,0.08,0.74,0.11
					c0.09-0.11,0.17-0.25,0.23-0.41c0.06-0.16,0.09-0.34,0.09-0.53C351.02,180.01,350.26,179.62,348.73,179.62z"/>
				<linearGradient id="SVGID_7_" gradientUnits="userSpaceOnUse" x1="352.6511" y1="186.6155" x2="363.66" y2="186.6155">
					<stop  offset="0" style="stop-color:#74C474"/>
					<stop  offset="1" style="stop-color:#41AA54"/>
				</linearGradient>
				<path class="st8" d="M358.26,179.62c-0.78,0-1.51,0.07-2.17,0.21c-0.67,0.14-1.26,0.35-1.77,0.61c-0.29,0.15-0.5,0.31-0.63,0.49
					c-0.13,0.17-0.2,0.39-0.2,0.66c0,0.21,0.06,0.4,0.19,0.57c0.12,0.17,0.26,0.32,0.41,0.46c0.55-0.29,1.18-0.54,1.89-0.77
					c0.71-0.23,1.46-0.34,2.26-0.34c0.97,0,1.74,0.22,2.32,0.66c0.57,0.44,0.86,1.13,0.86,2.09v0.8l-4.06,0.4
					c-1.49,0.15-2.64,0.55-3.46,1.19c-0.82,0.64-1.23,1.59-1.23,2.85c0,1.33,0.49,2.36,1.47,3.06c0.98,0.71,2.37,1.06,4.16,1.06
					c0.97,0,1.83-0.1,2.59-0.3c0.75-0.2,1.36-0.43,1.82-0.7c0.32-0.19,0.57-0.4,0.73-0.61c0.16-0.22,0.24-0.54,0.24-0.96v-6.78
					c0-1.6-0.49-2.77-1.46-3.52C361.23,180,359.91,179.62,358.26,179.62z M361.4,191c-0.23,0.15-0.61,0.31-1.13,0.47
					c-0.52,0.16-1.19,0.24-1.99,0.24c-1.13,0-1.96-0.2-2.52-0.59c-0.55-0.39-0.83-0.95-0.83-1.67c0-0.69,0.24-1.21,0.71-1.56
					c0.48-0.35,1.21-0.58,2.2-0.67l3.55-0.37V191z"/>
				<linearGradient id="SVGID_8_" gradientUnits="userSpaceOnUse" x1="367.8629" y1="184.7712" x2="375.154" y2="184.7712">
					<stop  offset="0" style="stop-color:#74C474"/>
					<stop  offset="1" style="stop-color:#41AA54"/>
				</linearGradient>
				<path class="st9" d="M374.7,191.12c-0.27,0.15-0.6,0.29-1,0.4c-0.4,0.11-0.76,0.17-1.09,0.17c-0.78,0-1.39-0.16-1.82-0.47
					c-0.43-0.31-0.64-0.85-0.64-1.62v-7.43h4.09c0.57,0,0.86-0.32,0.86-0.97c0-0.19-0.03-0.37-0.09-0.53
					c-0.06-0.16-0.12-0.29-0.17-0.39h-4.69v-3.29c0-0.69-0.4-1.03-1.2-1.03c-0.23,0-0.44,0.02-0.64,0.07
					c-0.2,0.05-0.35,0.09-0.44,0.13v13.58c0,1.37,0.41,2.36,1.24,2.94c0.83,0.59,1.91,0.89,3.25,0.89c0.88,0,1.56-0.13,2.06-0.4
					c0.5-0.27,0.74-0.61,0.74-1.03c0-0.23-0.05-0.43-0.14-0.6C374.91,191.38,374.81,191.23,374.7,191.12z"/>
				<linearGradient id="SVGID_9_" gradientUnits="userSpaceOnUse" x1="378.2718" y1="186.601" x2="381.2166" y2="186.601">
					<stop  offset="0" style="stop-color:#74C474"/>
					<stop  offset="1" style="stop-color:#41AA54"/>
				</linearGradient>
				<path class="st10" d="M379.7,179.85c-0.23,0-0.44,0.02-0.64,0.07c-0.2,0.05-0.35,0.09-0.44,0.13v12.27
					c0,0.69,0.41,1.03,1.23,1.03c0.23,0,0.44-0.02,0.63-0.07c0.19-0.05,0.33-0.09,0.43-0.13v-12.24
					C380.9,180.21,380.5,179.85,379.7,179.85z"/>
				<linearGradient id="SVGID_10_" gradientUnits="userSpaceOnUse" x1="378.2715" y1="175.8211" x2="381.2165" y2="175.8211">
					<stop  offset="0" style="stop-color:#74C474"/>
					<stop  offset="1" style="stop-color:#41AA54"/>
				</linearGradient>
				<path class="st11" d="M379.76,174.39c-0.44,0-0.8,0.14-1.07,0.42c-0.28,0.28-0.41,0.61-0.41,1.02c0,0.4,0.14,0.74,0.41,1.01
					c0.28,0.28,0.63,0.42,1.07,0.42s0.79-0.14,1.06-0.42c0.27-0.28,0.4-0.61,0.4-1.01c0-0.4-0.13-0.74-0.4-1.02
					C380.55,174.53,380.2,174.39,379.76,174.39z"/>
				<linearGradient id="SVGID_11_" gradientUnits="userSpaceOnUse" x1="384.0754" y1="186.5587" x2="396.3423" y2="186.5587">
					<stop  offset="0" style="stop-color:#74C474"/>
					<stop  offset="1" style="stop-color:#41AA54"/>
				</linearGradient>
				<path class="st12" d="M395.26,179.74c-0.4,0-0.72,0.08-0.97,0.23c-0.5,1.81-1.07,3.65-1.73,5.52c-0.66,1.87-1.37,3.77-2.13,5.69
					h-0.11c-0.11-0.32-0.26-0.71-0.44-1.17c-0.18-0.46-0.36-0.93-0.54-1.42c-0.18-0.49-0.36-0.96-0.53-1.43
					c-0.17-0.47-0.32-0.86-0.43-1.19l-1.77-5.12c-0.15-0.4-0.32-0.69-0.5-0.86c-0.18-0.17-0.44-0.26-0.79-0.26
					c-0.23,0-0.46,0.06-0.69,0.17c-0.23,0.11-0.41,0.27-0.54,0.46c0.17,0.59,0.39,1.26,0.66,2.02c0.27,0.75,0.55,1.54,0.86,2.34
					c0.31,0.81,0.62,1.63,0.94,2.44c0.32,0.82,0.64,1.59,0.94,2.32c0.3,0.72,0.59,1.37,0.86,1.94c0.27,0.57,0.49,1.02,0.66,1.34
					c0.21,0.4,0.67,0.6,1.37,0.6c0.27,0,0.52-0.03,0.76-0.09c0.24-0.06,0.41-0.12,0.5-0.2c0.31-0.57,0.63-1.25,0.99-2.03
					c0.35-0.78,0.71-1.6,1.06-2.44c0.35-0.85,0.69-1.7,1-2.56c0.31-0.86,0.59-1.64,0.84-2.36c0.25-0.71,0.45-1.33,0.6-1.86
					c0.15-0.52,0.23-0.89,0.23-1.1c0-0.32-0.1-0.57-0.3-0.74C395.84,179.82,395.58,179.74,395.26,179.74z"/>
				<linearGradient id="SVGID_12_" gradientUnits="userSpaceOnUse" x1="398.3731" y1="186.6155" x2="409.3821" y2="186.6155">
					<stop  offset="0" style="stop-color:#74C474"/>
					<stop  offset="1" style="stop-color:#41AA54"/>
				</linearGradient>
				<path class="st13" d="M403.98,179.62c-0.78,0-1.51,0.07-2.17,0.21c-0.67,0.14-1.26,0.35-1.77,0.61
					c-0.29,0.15-0.5,0.31-0.63,0.49c-0.13,0.17-0.2,0.39-0.2,0.66c0,0.21,0.06,0.4,0.19,0.57c0.12,0.17,0.26,0.32,0.41,0.46
					c0.55-0.29,1.18-0.54,1.89-0.77c0.71-0.23,1.46-0.34,2.26-0.34c0.97,0,1.74,0.22,2.32,0.66c0.57,0.44,0.86,1.13,0.86,2.09v0.8
					l-4.06,0.4c-1.49,0.15-2.64,0.55-3.46,1.19c-0.82,0.64-1.23,1.59-1.23,2.85c0,1.33,0.49,2.36,1.47,3.06
					c0.98,0.71,2.37,1.06,4.16,1.06c0.97,0,1.83-0.1,2.59-0.3c0.75-0.2,1.36-0.43,1.82-0.7c0.32-0.19,0.57-0.4,0.73-0.61
					c0.16-0.22,0.24-0.54,0.24-0.96v-6.78c0-1.6-0.49-2.77-1.46-3.52C406.95,180,405.64,179.62,403.98,179.62z M407.12,191
					c-0.23,0.15-0.61,0.31-1.13,0.47c-0.52,0.16-1.19,0.24-1.99,0.24c-1.13,0-1.96-0.2-2.52-0.59c-0.55-0.39-0.83-0.95-0.83-1.67
					c0-0.69,0.24-1.21,0.71-1.56c0.48-0.35,1.21-0.58,2.2-0.67l3.55-0.37V191z"/>
				<linearGradient id="SVGID_13_" gradientUnits="userSpaceOnUse" x1="417.9884" y1="184.5565" x2="433.2289" y2="184.5565">
					<stop  offset="0" style="stop-color:#74C474"/>
					<stop  offset="1" style="stop-color:#41AA54"/>
				</linearGradient>
				<path class="st14" d="M430.4,184.57c-0.53-1.49-1.06-2.94-1.59-4.36c-0.52-1.42-1.02-2.68-1.47-3.79
					c-0.1-0.27-0.32-0.46-0.67-0.57c-0.35-0.11-0.72-0.17-1.1-0.17c-0.32,0-0.64,0.04-0.94,0.11c-0.31,0.08-0.53,0.15-0.69,0.23
					c-0.46,1.14-0.96,2.44-1.5,3.87c-0.54,1.44-1.08,2.87-1.6,4.29c-0.52,1.42-1.01,2.76-1.46,4.02c-0.45,1.26-0.82,2.29-1.1,3.09
					c-0.08,0.21-0.14,0.41-0.2,0.59c-0.06,0.18-0.09,0.36-0.09,0.53c0,0.36,0.12,0.63,0.36,0.79c0.24,0.16,0.51,0.24,0.82,0.24
					c0.36,0,0.68-0.06,0.94-0.17c0.08-0.25,0.18-0.56,0.31-0.93c0.13-0.37,0.27-0.77,0.41-1.2c0.14-0.43,0.29-0.87,0.44-1.31
					s0.3-0.86,0.43-1.24h7.66l1.29,3.8c0.13,0.38,0.29,0.65,0.48,0.82c0.19,0.16,0.47,0.24,0.83,0.24c0.27,0,0.51-0.05,0.71-0.16
					c0.21-0.1,0.39-0.24,0.54-0.42c-0.38-1.16-0.81-2.46-1.3-3.9C431.44,187.52,430.93,186.06,430.4,184.57z M422.33,186.66
					c0.25-0.74,0.52-1.53,0.8-2.35c0.29-0.82,0.57-1.63,0.86-2.43c0.29-0.8,0.56-1.57,0.83-2.3c0.27-0.73,0.51-1.39,0.71-1.96h0.11
					c0.15,0.48,0.35,1.05,0.59,1.73c0.24,0.68,0.5,1.42,0.77,2.22c0.28,0.8,0.57,1.64,0.87,2.5c0.3,0.87,0.6,1.73,0.89,2.59H422.33z
					"/>
				<linearGradient id="SVGID_14_" gradientUnits="userSpaceOnUse" x1="436.2605" y1="184.0274" x2="448.3268" y2="184.0274">
					<stop  offset="0" style="stop-color:#74C474"/>
					<stop  offset="1" style="stop-color:#41AA54"/>
				</linearGradient>
				<path class="st15" d="M446.54,181.34c-0.56-0.57-1.23-1-1.99-1.29c-0.76-0.29-1.58-0.43-2.46-0.43c-0.78,0-1.46,0.1-2.04,0.3
					c-0.58,0.2-1.08,0.43-1.5,0.7v-5.12c0-0.69-0.4-1.03-1.2-1.03c-0.23,0-0.44,0.02-0.64,0.07c-0.2,0.05-0.35,0.09-0.44,0.13v16.13
					c0,0.4,0.08,0.72,0.23,0.96c0.15,0.24,0.43,0.48,0.83,0.73c0.48,0.29,1.09,0.54,1.84,0.76c0.75,0.22,1.6,0.33,2.53,0.33
					c0.97,0,1.87-0.14,2.69-0.41c0.82-0.28,1.52-0.7,2.1-1.27c0.58-0.57,1.03-1.3,1.36-2.17c0.32-0.88,0.49-1.92,0.49-3.12
					c0-1.18-0.16-2.21-0.47-3.09C447.54,182.64,447.1,181.91,446.54,181.34z M445.7,188.87c-0.21,0.64-0.51,1.17-0.89,1.59
					c-0.38,0.42-0.84,0.73-1.36,0.93c-0.52,0.2-1.11,0.3-1.76,0.3c-0.72,0-1.36-0.09-1.9-0.29c-0.54-0.19-0.96-0.39-1.24-0.6v-8.09
					c0.38-0.32,0.84-0.6,1.39-0.84c0.54-0.24,1.15-0.36,1.82-0.36c0.61,0,1.18,0.1,1.7,0.3c0.52,0.2,0.98,0.51,1.36,0.92
					c0.38,0.41,0.68,0.94,0.89,1.59c0.21,0.65,0.31,1.41,0.31,2.29C446.01,187.48,445.91,188.24,445.7,188.87z"/>
				<linearGradient id="SVGID_15_" gradientUnits="userSpaceOnUse" x1="451.701" y1="186.601" x2="454.6458" y2="186.601">
					<stop  offset="0" style="stop-color:#74C474"/>
					<stop  offset="1" style="stop-color:#41AA54"/>
				</linearGradient>
				<path class="st16" d="M453.13,179.85c-0.23,0-0.44,0.02-0.64,0.07c-0.2,0.05-0.35,0.09-0.44,0.13v12.27
					c0,0.69,0.41,1.03,1.23,1.03c0.23,0,0.44-0.02,0.63-0.07c0.19-0.05,0.33-0.09,0.43-0.13v-12.24
					C454.33,180.21,453.93,179.85,453.13,179.85z"/>
				<linearGradient id="SVGID_16_" gradientUnits="userSpaceOnUse" x1="451.7008" y1="175.8211" x2="454.6457" y2="175.8211">
					<stop  offset="0" style="stop-color:#74C474"/>
					<stop  offset="1" style="stop-color:#41AA54"/>
				</linearGradient>
				<path class="st17" d="M453.19,174.39c-0.44,0-0.8,0.14-1.07,0.42s-0.41,0.61-0.41,1.02c0,0.4,0.14,0.74,0.41,1.01
					c0.28,0.28,0.63,0.42,1.07,0.42s0.79-0.14,1.06-0.42c0.27-0.28,0.4-0.61,0.4-1.01c0-0.4-0.13-0.74-0.4-1.02
					C453.98,174.53,453.63,174.39,453.19,174.39z"/>
				<linearGradient id="SVGID_17_" gradientUnits="userSpaceOnUse" x1="458.0491" y1="186.601" x2="470.316" y2="186.601">
					<stop  offset="0" style="stop-color:#74C474"/>
					<stop  offset="1" style="stop-color:#41AA54"/>
				</linearGradient>
				<path class="st18" d="M468.64,181.27c-0.52-0.52-1.15-0.93-1.87-1.21c-0.72-0.29-1.52-0.43-2.37-0.43
					c-0.91,0-1.76,0.16-2.54,0.47c-0.78,0.31-1.45,0.77-2.02,1.36c-0.56,0.59-1,1.31-1.32,2.16c-0.31,0.85-0.47,1.82-0.47,2.9
					c0,2.31,0.64,4.06,1.93,5.26c1.29,1.2,3.04,1.8,5.25,1.8c0.63,0,1.21-0.06,1.76-0.17c0.54-0.11,1.02-0.27,1.43-0.46
					c0.41-0.19,0.73-0.41,0.97-0.66c0.24-0.25,0.36-0.5,0.36-0.77c0-0.46-0.23-0.82-0.69-1.09c-0.38,0.3-0.9,0.59-1.54,0.86
					c-0.65,0.27-1.37,0.4-2.17,0.4c-2.76,0-4.4-1.25-4.92-3.75l8.81-1.23c0.34-0.04,0.61-0.15,0.8-0.33
					c0.19-0.18,0.29-0.48,0.29-0.9c0-0.86-0.15-1.64-0.44-2.36C469.58,182.41,469.17,181.79,468.64,181.27z M460.28,186.17
					c0.04-1.51,0.44-2.66,1.2-3.48c0.76-0.81,1.72-1.21,2.89-1.21c1.14,0,2.03,0.34,2.67,1.02c0.64,0.68,1.01,1.54,1.1,2.59
					L460.28,186.17z"/>
				<linearGradient id="SVGID_18_" gradientUnits="userSpaceOnUse" x1="473.632" y1="186.4867" x2="481.8679" y2="186.4867">
					<stop  offset="0" style="stop-color:#74C474"/>
					<stop  offset="1" style="stop-color:#41AA54"/>
				</linearGradient>
				<path class="st19" d="M479.58,179.62c-1.07,0-2.03,0.12-2.87,0.36c-0.85,0.24-1.52,0.52-2.02,0.84
					c-0.38,0.25-0.65,0.5-0.81,0.76c-0.16,0.26-0.24,0.61-0.24,1.04v9.69c0,0.69,0.41,1.03,1.23,1.03c0.23,0,0.44-0.02,0.63-0.07
					c0.19-0.05,0.33-0.09,0.43-0.13v-10.69c0.44-0.25,0.99-0.46,1.66-0.64c0.67-0.18,1.44-0.27,2.32-0.27
					c0.31,0,0.61,0.02,0.92,0.06c0.3,0.04,0.55,0.08,0.74,0.11c0.1-0.11,0.17-0.25,0.23-0.41c0.06-0.16,0.09-0.34,0.09-0.53
					C481.87,180.01,481.11,179.62,479.58,179.62z"/>
				<linearGradient id="SVGID_19_" gradientUnits="userSpaceOnUse" x1="484.5844" y1="184.7712" x2="491.8754" y2="184.7712">
					<stop  offset="0" style="stop-color:#74C474"/>
					<stop  offset="1" style="stop-color:#41AA54"/>
				</linearGradient>
				<path class="st20" d="M491.42,191.12c-0.27,0.15-0.6,0.29-1,0.4c-0.4,0.11-0.76,0.17-1.09,0.17c-0.78,0-1.39-0.16-1.82-0.47
					c-0.43-0.31-0.64-0.85-0.64-1.62v-7.43h4.09c0.57,0,0.86-0.32,0.86-0.97c0-0.19-0.03-0.37-0.09-0.53
					c-0.06-0.16-0.11-0.29-0.17-0.39h-4.69v-3.29c0-0.69-0.4-1.03-1.2-1.03c-0.23,0-0.44,0.02-0.64,0.07
					c-0.2,0.05-0.35,0.09-0.44,0.13v13.58c0,1.37,0.41,2.36,1.24,2.94c0.83,0.59,1.91,0.89,3.25,0.89c0.88,0,1.56-0.13,2.06-0.4
					c0.5-0.27,0.74-0.61,0.74-1.03c0-0.23-0.05-0.43-0.14-0.6C491.64,191.38,491.53,191.23,491.42,191.12z"/>
				<linearGradient id="SVGID_20_" gradientUnits="userSpaceOnUse" x1="494.4493" y1="186.6155" x2="505.4582" y2="186.6155">
					<stop  offset="0" style="stop-color:#74C474"/>
					<stop  offset="1" style="stop-color:#41AA54"/>
				</linearGradient>
				<path class="st21" d="M504,180.74c-0.97-0.74-2.29-1.12-3.95-1.12c-0.78,0-1.51,0.07-2.17,0.21c-0.67,0.14-1.26,0.35-1.77,0.61
					c-0.29,0.15-0.5,0.31-0.63,0.49c-0.13,0.17-0.2,0.39-0.2,0.66c0,0.21,0.06,0.4,0.19,0.57c0.12,0.17,0.26,0.32,0.41,0.46
					c0.55-0.29,1.18-0.54,1.89-0.77c0.71-0.23,1.46-0.34,2.26-0.34c0.97,0,1.74,0.22,2.32,0.66c0.57,0.44,0.86,1.13,0.86,2.09v0.8
					l-4.06,0.4c-1.49,0.15-2.64,0.55-3.46,1.19c-0.82,0.64-1.23,1.59-1.23,2.85c0,1.33,0.49,2.36,1.47,3.06
					c0.98,0.71,2.37,1.06,4.16,1.06c0.97,0,1.83-0.1,2.59-0.3c0.75-0.2,1.36-0.43,1.82-0.7c0.32-0.19,0.57-0.4,0.73-0.61
					c0.16-0.22,0.24-0.54,0.24-0.96v-6.78C505.46,182.65,504.97,181.48,504,180.74z M503.2,191c-0.23,0.15-0.61,0.31-1.13,0.47
					c-0.52,0.16-1.19,0.24-1.99,0.24c-1.13,0-1.96-0.2-2.52-0.59c-0.55-0.39-0.83-0.95-0.83-1.67c0-0.69,0.24-1.21,0.71-1.56
					c0.48-0.35,1.21-0.58,2.2-0.67l3.55-0.37V191z"/>
			</g>
		</g>
		<g>
			<g>
				<path d="M490.56,124.25c-0.21,0-0.4-0.06-0.57-0.17c-0.17-0.11-0.36-0.28-0.57-0.49l-1.46-1.52c-0.63,0.67-1.4,1.2-2.32,1.6
					s-2,0.6-3.26,0.6c-0.99,0-1.89-0.14-2.69-0.42c-0.8-0.28-1.49-0.66-2.06-1.16c-0.57-0.5-1.02-1.1-1.33-1.82
					c-0.31-0.71-0.47-1.51-0.47-2.39c0-1.33,0.35-2.44,1.06-3.33c0.7-0.89,1.6-1.53,2.69-1.93c-0.46-0.53-0.8-1.06-1.03-1.57
					c-0.23-0.52-0.34-1.08-0.34-1.69c0-1.18,0.4-2.13,1.19-2.83c0.79-0.7,1.91-1.06,3.36-1.06c1.01,0,1.78,0.14,2.3,0.43
					c0.52,0.29,0.79,0.65,0.79,1.09c0,0.23-0.06,0.43-0.19,0.61c-0.12,0.18-0.26,0.32-0.41,0.42c-0.31-0.17-0.66-0.32-1.07-0.43
					c-0.41-0.11-0.83-0.17-1.27-0.17c-0.72,0-1.3,0.18-1.71,0.53c-0.42,0.35-0.63,0.83-0.63,1.44c0,0.59,0.15,1.12,0.46,1.57
					c0.3,0.46,0.74,0.98,1.31,1.57l5.38,5.6c0.27-0.61,0.47-1.33,0.61-2.17c0.14-0.84,0.21-1.78,0.21-2.83
					c0.17-0.08,0.35-0.14,0.53-0.19c0.18-0.05,0.36-0.07,0.53-0.07c0.76,0,1.14,0.43,1.14,1.29c0,0.97-0.13,1.95-0.37,2.94
					c-0.25,0.99-0.6,1.89-1.06,2.69l2.52,2.6C491.7,123.84,491.28,124.25,490.56,124.25z M482.41,122.33c0.67,0,1.36-0.13,2.09-0.4
					c0.72-0.27,1.4-0.71,2.03-1.34l-5.55-5.81c-0.36,0.11-0.71,0.27-1.06,0.47c-0.34,0.2-0.64,0.46-0.9,0.77
					c-0.26,0.31-0.47,0.68-0.63,1.1c-0.16,0.42-0.24,0.89-0.24,1.4c0,1.14,0.38,2.06,1.13,2.76
					C480.03,121.98,481.07,122.33,482.41,122.33z"/>
			</g>
			<g>
				<path d="M393.5,87.52c-3.24-1.61-6.49-2.41-9.73-2.41h-15.73v23.88c0,2.59,2.1,4.69,4.69,4.69h3.13V92.93h7.9
					c1.9,0,3.84,0.49,5.82,1.46c3.95,1.97,5.92,5.39,5.92,10.24c0,4.93-1.97,8.38-5.92,10.35c-1.97,1-3.91,1.5-5.82,1.5h-4.11h-6.89
					c-2.61,0-4.73,2.12-4.73,4.73v3.06h15.73c3.24,0,6.49-0.8,9.73-2.41c6.56-3.32,9.84-9.06,9.84-17.23
					C403.34,96.47,400.06,90.76,393.5,87.52z"/>
				<path d="M464.08,92.93c2.6,0,4.7-2.1,4.7-4.7v-3.13h-27.47v39.17h27.47v-3.08c0-2.6-2.11-4.71-4.71-4.71h-14.93v-7.94h16.46
					v-7.83h-16.46v-7.79H464.08z"/>
				<path d="M438.17,100.72c0-6.54-2.61-11.11-7.82-13.72c-2.61-1.34-5.22-2.01-7.83-2.01H406.8v16.05c0,2.59,2.1,4.7,4.7,4.7h3.13
					V92.82h7.9c1.26,0,2.57,0.36,3.91,1.06c2.61,1.27,3.91,3.55,3.91,6.84c0,3.24-1.31,5.53-3.91,6.87
					c-1.34,0.64-2.65,0.95-3.91,0.95H406.8v15.72h7.83v-7.9h7.9c0.44,0,1.03-0.03,1.79-0.11l2.96,8.01h8.34l-3.88-10.65
					C436.03,110.88,438.17,106.58,438.17,100.72z"/>
				<path d="M340.86,84.91l-12.02,39.36h4.34c2.07,0,3.89-1.35,4.5-3.33l1.26-4.13l0,0.19h5.89c2.59,0,4.7-2.1,4.7-4.7v-3.13h-8.26
					l4.92-16.12l11.4,28.27c0.72,1.78,2.44,2.94,4.36,2.94h4.89l-15.88-39.36H340.86z"/>
				<path d="M309.32,101.93l-11.89-17.02h-6.17v3.9v0.23v35.24h3.11c2.6,0,4.71-2.11,4.71-4.71v-19.18v-0.02l3.27,4.75l6.97,10.14
					l0.01-0.02l10.12-14.87v23.92h7.93V84.92h-6.18L309.32,101.93z"/>
			</g>
		</g>
		<g>
			<path d="M348.15,168.69h27.47v-3.08c0-2.6-2.11-4.71-4.71-4.71h-14.93v-7.94h16.46v-7.83h-16.46v-7.79h14.94
				c2.59,0,4.7-2.1,4.7-4.7v-3.13h-27.47V168.69z"/>
			<path d="M474.5,145.14c0-6.54-2.61-11.11-7.82-13.72c-2.61-1.34-5.22-2.01-7.83-2.01h-15.73v16.05c0,2.59,2.1,4.7,4.7,4.7h3.13
				v-12.92h7.9c1.26,0,2.57,0.36,3.91,1.06c2.61,1.27,3.91,3.55,3.91,6.84c0,3.24-1.31,5.53-3.91,6.87
				c-1.34,0.64-2.65,0.95-3.91,0.95h-15.73v15.72h7.83v-7.9h7.9c0.44,0,1.03-0.03,1.79-0.11l2.96,8.01h8.34l-3.88-10.65
				C472.36,155.29,474.5,150.99,474.5,145.14z"/>
			<path d="M392.59,145.14c-3.19,0-5.39-0.67-6.58-2.01c-0.44-0.49-0.66-1.05-0.66-1.68v-0.51c0.29-2.39,2.71-3.58,7.24-3.58
				c2.03,0,3.91,0.27,5.64,0.81c0.2,0.06,0.62,0.25,1.13,0.48c1.84,0.85,4.01,0.43,5.4-1.04l2.93-3.11
				c-0.98-0.93-2.35-1.82-4.13-2.67c-3.29-1.54-6.95-2.3-10.97-2.3c-4.19,0-7.66,0.95-10.39,2.85c-2.68,1.97-4.23,4.51-4.64,7.61
				c-0.07,0.49-0.11,0.98-0.11,1.46c0,2.61,0.91,4.9,2.74,6.88c2.66,3.1,6.79,4.64,12.4,4.64c3.19,0,5.39,0.67,6.58,2.01
				c0.51,0.63,0.77,1.3,0.77,2.01v0.18c-0.37,2.49-2.82,3.73-7.35,3.73c-1.99,0-3.83-0.26-5.52-0.79c-0.23-0.07-0.7-0.27-1.25-0.53
				c-1.85-0.87-4.06-0.45-5.45,1.05l-2.89,3.12c0.97,0.9,2.35,1.78,4.13,2.63c3.29,1.54,6.95,2.3,10.97,2.3
				c4.19,0,7.66-0.99,10.39-2.96c2.75-1.9,4.3-4.4,4.64-7.5c0.07-0.49,0.11-1.01,0.11-1.57c0-2.54-0.88-4.83-2.63-6.88
				C402.35,146.69,398.18,145.14,392.59,145.14z"/>
			<path d="M409.5,137.31h11.7v31.38h7.9v-31.38h6.79c2.71,0,4.92-2.2,4.92-4.92v-2.87H409.5V137.31z"/>
			<path d="M320.97,129.32l-12.02,39.36h4.34c2.07,0,3.89-1.35,4.5-3.33l8.51-27.88l6.63,16.44h-7.48v3.13c0,2.6,2.1,4.7,4.7,4.7
				h5.89l0-0.12l1.66,4.12c0.72,1.78,2.44,2.94,4.36,2.94h4.89l-15.88-39.36H320.97z"/>
			<path d="M495.83,129.32h-10.11l-12.02,39.36h4.34c2.07,0,3.89-1.35,4.5-3.33l1.1-3.61h5.65c2.6,0,4.7-2.1,4.7-4.7v-3.13h-7.96
				l5.02-16.44l11.4,28.27c0.72,1.78,2.44,2.94,4.36,2.94h4.89L495.83,129.32z"/>
			<path d="M289.43,146.35l-11.89-17.02h-6.17v3.9v0.23v35.24h3.11c2.6,0,4.71-2.11,4.71-4.71v-19.18v-0.02l3.27,4.75l6.97,10.14
				l0.01-0.02l10.12-14.87v23.92h7.93v-39.36h-6.18L289.43,146.35z"/>
		</g>
	</g>
	<g>
		<g>
			<polygon class="st0" points="159.94,52.32 171.07,56.64 280.88,231.14 58.99,231.14 47.86,226.82 269.51,226.82 			"/>
			<polygon class="st22" points="159.94,52.32 47.86,226.82 269.51,226.82 			"/>
			<linearGradient id="SVGID_21_" gradientUnits="userSpaceOnUse" x1="88.4342" y1="152.4633" x2="230.2832" y2="152.4633">
				<stop  offset="0" style="stop-color:#74C474"/>
				<stop  offset="1" style="stop-color:#41AA54"/>
			</linearGradient>
			<polygon class="st23" points="159.36,96.94 88.43,207.99 230.28,207.99 			"/>
		</g>
		<g>
			<g>
				<g>
					<linearGradient id="SVGID_22_" gradientUnits="userSpaceOnUse" x1="167.6326" y1="170.2084" x2="214.4513" y2="170.2084">
						<stop  offset="0" style="stop-color:#74C474"/>
						<stop  offset="1" style="stop-color:#41AA54"/>
					</linearGradient>
					<path class="st24" d="M168.3,127.74c1.69-1.61,2.86-0.54,4.95,1.02c1.88,1.41,2.65,4.6,4.53,6.9
						c3.18,3.87,7.45,6.87,10.26,6.68c2.56-0.13,2.86-0.26,3.63-0.66c0.41-0.21-1.91-0.52-3.22-1.08
						c-4.17-1.77-6.77-7.58-4.75-12.17c2.45-5.57,8.04-7.45,13.6-5.07c3.32,1.42,5.34,5.3,5.11,9.26c-0.22,3.88-2.02,6.53-5.7,7.92
						c-0.51,0.19-0.44,0.39,0.05,0.53c5.66,1.56,9.63,5.34,12.69,10.06c3.96,6.11,5.15,13.01,4.99,20.19
						c-0.04,1.91-0.11,3.83-0.32,5.74c-0.2,1.78-1.32,2.83-2.72,2.81c-1.33-0.02-2.62-1.36-2.71-3c-0.17-3.04-0.18-6.1-0.4-9.14
						c-0.1-1.33-0.51-2.64-0.85-3.94c-0.08-0.3-2.25-4.69-2.5-4.94c-0.24,0.31-0.69,3.92-0.73,4.24c-0.45,3.38-0.59,5.52-0.02,8.31
						c0.72,3.53,4.11,16.31,3.51,22.7c-0.17,1.78-3.54-0.1-4.98,1.35c-1.08,1.08-2.15,5.64-2.68,8.08c-0.14,0.66-0.4,1.42-0.87,1.84
						c-0.51,0.45-1.42,0.86-1.99,0.7c-0.42-0.12-1.31-1.17-1.34-1.82c-0.07-1.73-0.15-4.03-0.21-6.9c-0.01-0.64,0.05-1.27-0.21-1.9
						c-0.29,0.62-0.55,1.23-0.57,1.86c-0.16,4.91-0.11,2.89-0.25,7.8c-0.09,3.18-0.26,6.35-0.46,9.53c-0.07,1.14-0.32,2.24-1.5,2.87
						c-2.75,1.47-5.21-0.02-5.36-3.32c-0.09-1.83-0.09-3.66-0.15-5.49c-0.24-6.54,0.23-11.5-0.38-12.51
						c-0.61-1.01-2.91,0.02-4.67-1.07c-1.77-1.09,0.14-15.86,2.63-21.11c2.31-4.9,2.43-4.67,2.47-9.01
						c0.01-1.18,0.21-5.27,0.07-6.43c-0.06-0.52,0.63-7.17-1.38-7.84c-2.45-0.82-7.52-4.38-11.23-8.59
						c-3.36-3.81-5.43-7.52-6.38-9.48C166.84,129.76,168.3,127.74,168.3,127.74z"/>
				</g>
			</g>
			<g>
				<g>
					<path class="st0" d="M167.5,127.74c1.69-1.61,2.86-0.54,4.95,1.02c1.88,1.41,2.65,4.6,4.53,6.9c3.18,3.87,7.45,6.87,10.26,6.68
						c2.56-0.13,2.86-0.26,3.63-0.66c0.41-0.21-1.91-0.52-3.22-1.08c-4.17-1.77-6.77-7.58-4.75-12.17c2.45-5.57,8.04-7.45,13.6-5.07
						c3.32,1.42,5.34,5.3,5.11,9.26c-0.22,3.88-2.02,6.53-5.7,7.92c-0.51,0.19-0.44,0.39,0.05,0.53c5.66,1.56,9.63,5.34,12.69,10.06
						c3.96,6.11,5.15,13.01,4.99,20.19c-0.04,1.91-0.11,3.83-0.32,5.74c-0.2,1.78-1.32,2.83-2.72,2.81c-1.33-0.02-2.62-1.36-2.71-3
						c-0.17-3.04-0.18-6.1-0.4-9.14c-0.1-1.33-0.51-2.64-0.85-3.94c-0.08-0.3-2.25-4.69-2.5-4.94c-0.24,0.31-0.69,3.92-0.73,4.24
						c-0.45,3.38-0.59,5.52-0.02,8.31c0.72,3.53,4.11,16.31,3.51,22.7c-0.17,1.78-3.54-0.1-4.98,1.35
						c-1.08,1.08-2.15,5.64-2.68,8.08c-0.14,0.66-0.4,1.42-0.87,1.84c-0.51,0.45-1.42,0.86-1.99,0.7c-0.42-0.12-1.31-1.17-1.34-1.82
						c-0.07-1.73-0.15-4.03-0.21-6.9c-0.01-0.64,0.05-1.27-0.21-1.9c-0.29,0.62-0.55,1.23-0.57,1.86c-0.16,4.91-0.11,2.89-0.25,7.8
						c-0.09,3.18-0.26,6.35-0.46,9.53c-0.07,1.14-0.32,2.24-1.5,2.87c-2.75,1.47-5.21-0.02-5.36-3.32
						c-0.09-1.83-0.09-3.66-0.15-5.49c-0.24-6.54,0.23-11.5-0.38-12.51c-0.61-1.01-2.91,0.02-4.67-1.07
						c-1.77-1.09,0.14-15.86,2.63-21.11c2.31-4.9,2.43-4.67,2.47-9.01c0.01-1.18,0.21-5.27,0.07-6.43
						c-0.06-0.52,0.63-7.17-1.38-7.84c-2.45-0.82-7.52-4.38-11.23-8.59c-3.36-3.81-5.43-7.52-6.38-9.48
						C166.04,129.76,167.5,127.74,167.5,127.74z"/>
				</g>
			</g>
			<linearGradient id="SVGID_23_" gradientUnits="userSpaceOnUse" x1="106.112" y1="170.2255" x2="180.6223" y2="170.2255">
				<stop  offset="0" style="stop-color:#74C474"/>
				<stop  offset="1" style="stop-color:#41AA54"/>
			</linearGradient>
			<path class="st25" d="M179.03,162.1c-1.41-0.33-3.37,0.82-3.7,2.23c-1.48,6.31-8.42,7.27-8.59,7.29c-0.9,0.14-1.35-0.37-1.9-0.67
				c3.56-0.33,6.35-3.29,6.35-6.93c0-3.86-3.13-6.99-6.99-6.99c-3.86,0-6.99,3.13-6.99,6.99c0,3.64,2.79,6.6,6.35,6.93
				c-0.57,0.27-1.27,0.73-1.88,0.67c-0.18-0.02-5.2-1.36-8.61-7.3c-0.1-0.17-0.21-0.34-0.32-0.51c-0.31-0.96-0.95-1.79-0.95-1.79
				c-1.01-1.39-2.26-1.85-3.57-2.98c-7.18-6.21-12.56-10.78-19.79-16.98c6.04-3.81,7.88-7.27,6.59-12.31
				c-1.27-4.96-4.97-7.38-9.59-7.42c-4.77-0.04-8.09,2.95-9.55,7.6c-1.4,4.48,0.81,8.39,7.27,12.75
				c-12.74,7.23-17.72,19.75-16.98,33.34c0.37,6.72,1.62,8.63,4.51,6.24c2.61-2.16-0.55-17.47,8.12-22.65
				c-0.87,3.51-7.27,29.67-8.14,32.68c-1.15,3.99-0.09,6.2,4.39,5.78c3.51-0.33,4.34-0.3,4.7,3.19c0.17,1.63,0.74,3.63,1.21,4.26
				c0.6,0.8,2.82,0.75,3.34,0.41c0.29-0.19,1.55-7.83,1.62-7.64c0.66,1.81,0.27,14.98,0.98,17.06c0.6,1.75,1.59,2.73,3.85,2.71
				c2.25-0.01,3.05-1.16,3.25-2.8c0.48-4.14-0.03-9.33,0.39-13.48c0.14-1.42,1.67-3.52,2.95-3.86c6.56-1.77,6.61-1.61,4.65-8.3
				c-0.59-2.01-1.33-3.98-1.84-6.01c-1.9-7.64-5.65-15-3.7-24.14c2.08,1.26,3.7,2.12,5.19,3.17c3.12,2.19,1.97,1.01,5.1,3.15
				c0.51,0.35,1.11,0.62,1.74,0.8c2.72,5.46,6.09,7.9,8.74,9.5l1.01,7.86c0.02,0.19,0.03,0.38,0.02,0.57l-1.03,18.65
				c0,1.66,1.35,3.01,3.01,3.01c1.66,0,3.01-1.35,3.01-3.01h0.05l0.52-13.34l0.25-0.26l0.78,13.6c1.66,0,3.25-1.87,3.92-3.92
				l0.9-9.41l0.4-5.38l0.85-8.28c3-1.06,7.25-4.45,9.53-10.67C180.93,164.17,180.44,162.43,179.03,162.1z"/>
			<path class="st0" d="M179.92,162.1c-1.41-0.33-3.37,0.82-3.7,2.23c-1.48,6.31-8.42,7.27-8.59,7.29c-0.9,0.14-1.35-0.37-1.9-0.67
				c3.56-0.33,6.35-3.29,6.35-6.93c0-3.86-3.13-6.99-6.99-6.99c-3.86,0-6.99,3.13-6.99,6.99c0,3.64,2.79,6.6,6.35,6.93
				c-0.57,0.27-1.27,0.73-1.88,0.67c-0.18-0.02-5.19-1.36-8.61-7.3c-0.1-0.17-0.21-0.34-0.32-0.51c-0.31-0.96-0.95-1.79-0.95-1.79
				c-1.01-1.39-2.26-1.85-3.57-2.98c-7.18-6.21-12.56-10.78-19.79-16.98c6.04-3.81,7.88-7.27,6.59-12.31
				c-1.27-4.96-4.97-7.38-9.59-7.42c-4.77-0.04-8.09,2.95-9.55,7.6c-1.4,4.48,0.81,8.39,7.27,12.75
				c-12.74,7.23-17.72,19.75-16.98,33.34c0.37,6.72,1.62,8.63,4.51,6.24c2.61-2.16-0.55-17.47,8.12-22.65
				c-0.87,3.51-7.27,29.67-8.14,32.68c-1.15,3.99-0.09,6.2,4.39,5.78c3.51-0.33,4.34-0.3,4.7,3.19c0.17,1.63,0.74,3.63,1.21,4.26
				c0.6,0.8,2.82,0.75,3.34,0.41c0.29-0.19,1.55-7.83,1.62-7.64c0.66,1.81,0.27,14.98,0.98,17.06c0.6,1.75,1.59,2.73,3.85,2.71
				c2.25-0.01,3.05-1.16,3.25-2.8c0.48-4.14-0.03-9.33,0.39-13.48c0.14-1.42,1.67-3.52,2.95-3.86c6.56-1.77,6.61-1.61,4.65-8.3
				c-0.59-2.01-1.33-3.98-1.84-6.01c-1.9-7.64-5.65-15-3.7-24.14c2.08,1.26,3.7,2.12,5.19,3.17c3.13,2.19,1.97,1.01,5.1,3.15
				c0.51,0.35,1.11,0.62,1.74,0.8c2.72,5.46,6.09,7.9,8.74,9.5l1.01,7.86c0.02,0.19,0.03,0.38,0.02,0.57l-1.03,18.65
				c0,1.66,1.35,3.01,3.01,3.01c1.66,0,3.01-1.35,3.01-3.01h0.05l0.52-13.34l0.25-0.26l0.78,13.6c1.66,0,3.25-1.87,3.92-3.92
				l0.9-9.41l0.4-5.38l0.85-8.28c3-1.06,7.25-4.45,9.53-10.67C181.82,164.17,181.33,162.43,179.92,162.1z"/>
		</g>
	</g>
</g>
<g>
	<g>
		<g>
			
				<rect x="-124.55" y="324.37" transform="matrix(-1 -1.224647e-16 1.224647e-16 -1 -239.1236 676.4318)" class="st0" width="9.97" height="27.69"/>
			<g>
				<path class="st1" d="M-374.61,332.1c-1.63,0-2.98,0.57-4.05,1.7c-1.07,1.14-1.63,2.76-1.68,4.87l11.02-1.52
					c-0.14-1.47-0.65-2.68-1.54-3.63S-373,332.1-374.61,332.1z"/>
				<path class="st1" d="M-279.51,341.1c-0.67,0.49-1,1.22-1,2.18c0,1.02,0.39,1.8,1.16,2.34c0.78,0.55,1.95,0.82,3.53,0.82
					c1.12,0,2.05-0.12,2.78-0.34c0.73-0.23,1.26-0.45,1.58-0.66v-5.81l-4.97,0.52C-277.82,340.29-278.85,340.61-279.51,341.1z"/>
				<path class="st1" d="M-343.59,341.1c-0.67,0.49-1,1.22-1,2.18c0,1.02,0.39,1.8,1.16,2.34c0.78,0.55,1.95,0.82,3.53,0.82
					c1.12,0,2.05-0.12,2.78-0.34c0.73-0.23,1.26-0.45,1.58-0.66v-5.81l-4.97,0.52C-341.89,340.29-342.92,340.61-343.59,341.1z"/>
				<path class="st1" d="M-243.59,332.22c-0.39-1.12-0.75-2.16-1.08-3.11c-0.33-0.95-0.61-1.76-0.82-2.42h-0.16
					c-0.29,0.8-0.63,1.72-1,2.74c-0.37,1.03-0.76,2.1-1.16,3.23c-0.4,1.12-0.8,2.26-1.2,3.41c-0.4,1.15-0.78,2.24-1.12,3.29h9.02
					c-0.4-1.2-0.82-2.41-1.24-3.63C-242.79,334.52-243.2,333.35-243.59,332.22z"/>
				<path class="st1" d="M-440.53,332.15c-1.82,0-3.25,0.63-4.29,1.88c-1.04,1.26-1.56,3.01-1.56,5.25c0,2.27,0.52,4.03,1.54,5.27
					c1.03,1.24,2.47,1.86,4.31,1.86c1.84,0,3.27-0.63,4.29-1.88c1.02-1.26,1.52-3.01,1.52-5.25s-0.52-3.99-1.54-5.25
					C-437.29,332.77-438.71,332.15-440.53,332.15z"/>
				<path class="st1" d="M-392.5,333.71c-0.57-0.56-1.24-0.96-1.98-1.2c-0.75-0.24-1.54-0.36-2.36-0.36c-0.96,0-1.78,0.12-2.44,0.36
					c-0.67,0.24-1.27,0.51-1.8,0.8v11.82c0.51,0.38,1.11,0.68,1.8,0.92c0.69,0.24,1.51,0.36,2.44,0.36c1.87,0,3.37-0.57,4.51-1.7
					c1.14-1.14,1.7-2.96,1.7-5.47c0-1.31-0.17-2.42-0.5-3.33C-391.47,335-391.93,334.27-392.5,333.71z"/>
				<path class="st1" d="M-218.64,333.85c-0.53-0.57-1.17-1-1.9-1.28c-0.73-0.28-1.53-0.42-2.38-0.42c-0.93,0-1.78,0.17-2.54,0.5
					c-0.76,0.33-1.41,0.73-1.94,1.18v11.34c0.4,0.29,0.98,0.58,1.74,0.84c0.76,0.27,1.65,0.4,2.66,0.4c0.91,0,1.73-0.14,2.46-0.42
					c0.73-0.28,1.37-0.71,1.9-1.3c0.53-0.59,0.95-1.33,1.24-2.22c0.29-0.89,0.44-1.96,0.44-3.19c0-1.23-0.15-2.3-0.44-3.21
					C-217.69,335.16-218.11,334.42-218.64,333.85z"/>
				<path class="st1" d="M-418.37,332.15c-1.82,0-3.25,0.63-4.29,1.88c-1.04,1.26-1.56,3.01-1.56,5.25c0,2.27,0.52,4.03,1.54,5.27
					s2.47,1.86,4.31,1.86c1.84,0,3.27-0.63,4.29-1.88c1.02-1.26,1.52-3.01,1.52-5.25s-0.52-3.99-1.54-5.25
					C-415.13,332.77-416.55,332.15-418.37,332.15z"/>
				<path class="st1" d="M-144.87,341.1c-0.67,0.49-1,1.22-1,2.18c0,1.02,0.39,1.8,1.16,2.34c0.77,0.55,1.95,0.82,3.53,0.82
					c1.12,0,2.05-0.12,2.78-0.34c0.73-0.23,1.26-0.45,1.58-0.66v-5.81l-4.97,0.52C-143.17,340.29-144.2,340.61-144.87,341.1z"/>
				<path class="st1" d="M-191.23,332.1c-1.63,0-2.98,0.57-4.05,1.7c-1.07,1.14-1.63,2.76-1.68,4.87l11.02-1.52
					c-0.13-1.47-0.65-2.68-1.54-3.63C-188.38,332.58-189.63,332.1-191.23,332.1z"/>
				<linearGradient id="SVGID_24_" gradientUnits="userSpaceOnUse" x1="-472.0248" y1="336.3518" x2="-452.5898" y2="336.3518">
					<stop  offset="0" style="stop-color:#74C474"/>
					<stop  offset="1" style="stop-color:#41AA54"/>
				</linearGradient>
				<path class="st26" d="M-453.71,344.33c-0.7,0.54-1.56,1-2.59,1.38c-1.03,0.39-2.24,0.58-3.63,0.58c-1.31,0-2.5-0.21-3.57-0.62
					c-1.07-0.41-1.98-1.04-2.75-1.86c-0.76-0.83-1.36-1.86-1.78-3.09c-0.43-1.23-0.64-2.67-0.64-4.33c0-1.63,0.22-3.07,0.66-4.33
					c0.44-1.25,1.05-2.3,1.82-3.13c0.77-0.83,1.68-1.45,2.73-1.88c1.04-0.43,2.18-0.64,3.4-0.64c1.5,0,2.71,0.21,3.65,0.64
					c0.93,0.43,1.75,0.88,2.44,1.36c0.29-0.13,0.55-0.33,0.78-0.6c0.23-0.27,0.34-0.59,0.34-0.96c0-0.38-0.18-0.76-0.54-1.14
					c-0.36-0.39-0.87-0.73-1.52-1.04c-0.66-0.31-1.44-0.55-2.36-0.74c-0.92-0.19-1.93-0.28-3.03-0.28c-1.58,0-3.08,0.27-4.51,0.8
					c-1.43,0.53-2.68,1.34-3.75,2.41c-1.07,1.07-1.92,2.4-2.55,3.99c-0.63,1.59-0.94,3.44-0.94,5.55c0,2.11,0.31,3.95,0.92,5.53
					c0.61,1.58,1.45,2.89,2.5,3.95c1.05,1.06,2.3,1.85,3.75,2.38c1.44,0.53,3,0.8,4.69,0.8c1.66,0,3.02-0.17,4.09-0.5
					c1.07-0.33,1.91-0.71,2.52-1.14c0.64-0.45,0.96-0.96,0.96-1.52c0-0.38-0.12-0.7-0.36-0.98
					C-453.19,344.63-453.44,344.43-453.71,344.33z"/>
				<linearGradient id="SVGID_25_" gradientUnits="userSpaceOnUse" x1="-449.6624" y1="339.2772" x2="-431.431" y2="339.2772">
					<stop  offset="0" style="stop-color:#74C474"/>
					<stop  offset="1" style="stop-color:#41AA54"/>
				</linearGradient>
				<path class="st27" d="M-433.93,332.15c-0.79-0.85-1.74-1.51-2.87-1.96c-1.12-0.45-2.36-0.68-3.73-0.68
					c-1.36,0-2.61,0.23-3.73,0.68c-1.12,0.45-2.08,1.11-2.88,1.96c-0.8,0.85-1.42,1.88-1.86,3.08c-0.44,1.2-0.66,2.55-0.66,4.05
					c0,1.5,0.21,2.85,0.64,4.05c0.43,1.2,1.04,2.23,1.84,3.09c0.8,0.85,1.76,1.51,2.89,1.96c1.12,0.45,2.38,0.68,3.77,0.68
					c1.39,0,2.65-0.23,3.77-0.68c1.12-0.45,2.08-1.11,2.86-1.96c0.79-0.85,1.4-1.88,1.82-3.09c0.43-1.2,0.64-2.55,0.64-4.05
					c0-1.5-0.22-2.84-0.66-4.05C-432.53,334.03-433.15,333-433.93,332.15z M-436.24,344.53c-1.02,1.25-2.44,1.88-4.29,1.88
					c-1.84,0-3.28-0.62-4.31-1.86c-1.03-1.24-1.54-3-1.54-5.27c0-2.24,0.52-3.99,1.56-5.25c1.04-1.25,2.47-1.88,4.29-1.88
					c1.82,0,3.24,0.63,4.27,1.88c1.03,1.26,1.54,3.01,1.54,5.25S-435.22,343.27-436.24,344.53z"/>
				<linearGradient id="SVGID_26_" gradientUnits="userSpaceOnUse" x1="-427.5036" y1="339.2772" x2="-409.2712" y2="339.2772">
					<stop  offset="0" style="stop-color:#74C474"/>
					<stop  offset="1" style="stop-color:#41AA54"/>
				</linearGradient>
				<path class="st28" d="M-411.78,332.15c-0.79-0.85-1.74-1.51-2.87-1.96c-1.12-0.45-2.36-0.68-3.73-0.68
					c-1.36,0-2.61,0.23-3.73,0.68c-1.12,0.45-2.08,1.11-2.88,1.96s-1.42,1.88-1.86,3.08c-0.44,1.2-0.66,2.55-0.66,4.05
					c0,1.5,0.21,2.85,0.64,4.05c0.43,1.2,1.04,2.23,1.84,3.09c0.8,0.85,1.76,1.51,2.89,1.96c1.12,0.45,2.38,0.68,3.77,0.68
					c1.39,0,2.65-0.23,3.77-0.68c1.12-0.45,2.08-1.11,2.86-1.96c0.79-0.85,1.4-1.88,1.82-3.09c0.43-1.2,0.64-2.55,0.64-4.05
					c0-1.5-0.22-2.84-0.66-4.05C-410.37,334.03-410.99,333-411.78,332.15z M-414.08,344.53c-1.02,1.25-2.44,1.88-4.29,1.88
					c-1.84,0-3.28-0.62-4.31-1.86s-1.54-3-1.54-5.27c0-2.24,0.52-3.99,1.56-5.25c1.04-1.25,2.47-1.88,4.29-1.88
					c1.82,0,3.24,0.63,4.27,1.88c1.03,1.26,1.54,3.01,1.54,5.25S-413.06,343.27-414.08,344.53z"/>
				<linearGradient id="SVGID_27_" gradientUnits="userSpaceOnUse" x1="-404.3018" y1="342.7636" x2="-387.3907" y2="342.7636">
					<stop  offset="0" style="stop-color:#74C474"/>
					<stop  offset="1" style="stop-color:#41AA54"/>
				</linearGradient>
				<path class="st29" d="M-390.14,331.8c-0.84-0.79-1.84-1.37-3-1.74c-1.16-0.37-2.4-0.56-3.71-0.56c-1.28,0-2.42,0.17-3.43,0.5
					c-1,0.33-1.86,0.7-2.59,1.1c-0.59,0.35-0.97,0.68-1.16,1c-0.19,0.32-0.28,0.75-0.28,1.28v21.16c0,0.99,0.57,1.48,1.72,1.48
					c0.32,0,0.61-0.03,0.88-0.1c0.27-0.07,0.47-0.13,0.6-0.18v-7.77c0.53,0.29,1.22,0.55,2.04,0.76c0.83,0.21,1.71,0.32,2.64,0.32
					c1.31,0,2.52-0.2,3.63-0.6c1.11-0.4,2.07-1.01,2.86-1.82c0.8-0.81,1.42-1.84,1.86-3.07c0.44-1.23,0.66-2.67,0.66-4.33
					c0-1.71-0.25-3.18-0.74-4.41C-388.63,333.6-389.29,332.59-390.14,331.8z M-392.34,344.71c-1.13,1.13-2.64,1.7-4.51,1.7
					c-0.94,0-1.75-0.12-2.44-0.36c-0.7-0.24-1.3-0.55-1.8-0.92v-11.82c0.53-0.29,1.13-0.56,1.8-0.8c0.67-0.24,1.48-0.36,2.44-0.36
					c0.83,0,1.62,0.12,2.36,0.36c0.75,0.24,1.41,0.64,1.98,1.2c0.57,0.56,1.03,1.3,1.36,2.2c0.33,0.91,0.5,2.02,0.5,3.33
					C-390.64,341.75-391.2,343.57-392.34,344.71z"/>
				<linearGradient id="SVGID_28_" gradientUnits="userSpaceOnUse" x1="-383.4623" y1="339.2772" x2="-366.2701" y2="339.2772">
					<stop  offset="0" style="stop-color:#74C474"/>
					<stop  offset="1" style="stop-color:#41AA54"/>
				</linearGradient>
				<path class="st30" d="M-368.62,331.8c-0.73-0.73-1.61-1.3-2.62-1.7c-1.02-0.4-2.12-0.6-3.33-0.6c-1.28,0-2.47,0.22-3.57,0.66
					c-1.09,0.44-2.04,1.08-2.82,1.9c-0.79,0.83-1.4,1.84-1.84,3.03c-0.44,1.19-0.66,2.54-0.66,4.07c0,3.23,0.9,5.69,2.71,7.37
					c1.8,1.68,4.25,2.52,7.35,2.52c0.88,0,1.7-0.08,2.47-0.24c0.76-0.16,1.43-0.38,2-0.64c0.57-0.27,1.03-0.57,1.36-0.92
					c0.33-0.35,0.5-0.71,0.5-1.08c0-0.64-0.32-1.15-0.96-1.52c-0.53,0.43-1.25,0.83-2.16,1.2c-0.91,0.37-1.92,0.56-3.05,0.56
					c-3.87,0-6.17-1.75-6.89-5.25l12.34-1.72c0.48-0.05,0.85-0.21,1.12-0.46c0.27-0.25,0.4-0.67,0.4-1.26c0-1.2-0.21-2.3-0.62-3.31
					C-367.31,333.41-367.88,332.54-368.62,331.8z M-380.34,338.68c0.05-2.11,0.61-3.73,1.68-4.87c1.07-1.13,2.42-1.7,4.05-1.7
					c1.6,0,2.85,0.47,3.75,1.42s1.41,2.16,1.54,3.63L-380.34,338.68z"/>
				<linearGradient id="SVGID_29_" gradientUnits="userSpaceOnUse" x1="-361.6229" y1="339.1171" x2="-350.0807" y2="339.1171">
					<stop  offset="0" style="stop-color:#74C474"/>
					<stop  offset="1" style="stop-color:#41AA54"/>
				</linearGradient>
				<path class="st31" d="M-353.29,329.5c-1.5,0-2.84,0.17-4.03,0.5c-1.19,0.33-2.13,0.73-2.82,1.18c-0.53,0.35-0.91,0.7-1.14,1.06
					c-0.23,0.36-0.34,0.85-0.34,1.46v13.58c0,0.96,0.57,1.44,1.72,1.44c0.32,0,0.61-0.03,0.88-0.1c0.27-0.07,0.47-0.13,0.6-0.18
					v-14.99c0.61-0.35,1.39-0.65,2.32-0.9c0.94-0.25,2.02-0.38,3.25-0.38c0.43,0,0.86,0.03,1.28,0.08c0.43,0.05,0.78,0.11,1.04,0.16
					c0.13-0.16,0.24-0.35,0.32-0.58c0.08-0.23,0.12-0.47,0.12-0.74C-350.08,330.03-351.15,329.5-353.29,329.5z"/>
				<linearGradient id="SVGID_30_" gradientUnits="userSpaceOnUse" x1="-347.7978" y1="339.2976" x2="-332.3694" y2="339.2976">
					<stop  offset="0" style="stop-color:#74C474"/>
					<stop  offset="1" style="stop-color:#41AA54"/>
				</linearGradient>
				<path class="st32" d="M-339.94,329.5c-1.09,0-2.11,0.1-3.05,0.3c-0.94,0.2-1.76,0.49-2.48,0.86c-0.4,0.21-0.7,0.44-0.88,0.68
					c-0.19,0.24-0.28,0.55-0.28,0.92c0,0.29,0.09,0.56,0.26,0.8c0.17,0.24,0.37,0.45,0.58,0.64c0.78-0.4,1.66-0.76,2.64-1.08
					c0.99-0.32,2.04-0.48,3.17-0.48c1.36,0,2.44,0.31,3.25,0.92c0.8,0.61,1.2,1.59,1.2,2.92v1.12l-5.69,0.56
					c-2.08,0.21-3.7,0.77-4.85,1.66c-1.15,0.9-1.72,2.22-1.72,3.99c0,1.87,0.69,3.3,2.06,4.29c1.38,0.99,3.32,1.48,5.83,1.48
					c1.36,0,2.57-0.14,3.63-0.42c1.05-0.28,1.9-0.61,2.54-0.98c0.45-0.27,0.8-0.55,1.02-0.86c0.23-0.31,0.34-0.76,0.34-1.34v-9.5
					c0-2.24-0.68-3.89-2.04-4.93C-335.78,330.02-337.62,329.5-339.94,329.5z M-335.54,345.45c-0.32,0.21-0.85,0.44-1.58,0.66
					c-0.73,0.23-1.66,0.34-2.78,0.34c-1.58,0-2.75-0.27-3.53-0.82c-0.77-0.55-1.16-1.33-1.16-2.34c0-0.96,0.33-1.69,1-2.18
					c0.67-0.5,1.7-0.81,3.09-0.94l4.97-0.52V345.45z"/>
				<linearGradient id="SVGID_31_" gradientUnits="userSpaceOnUse" x1="-326.4793" y1="336.7129" x2="-316.2613" y2="336.7129">
					<stop  offset="0" style="stop-color:#74C474"/>
					<stop  offset="1" style="stop-color:#41AA54"/>
				</linearGradient>
				<path class="st33" d="M-316.9,345.61c-0.38,0.21-0.84,0.4-1.4,0.56c-0.56,0.16-1.07,0.24-1.52,0.24c-1.1,0-1.94-0.22-2.54-0.66
					c-0.6-0.44-0.9-1.19-0.9-2.26v-10.42h5.73c0.8,0,1.2-0.45,1.2-1.36c0-0.27-0.04-0.52-0.12-0.74c-0.08-0.23-0.16-0.41-0.24-0.54
					h-6.57v-4.61c0-0.96-0.56-1.44-1.68-1.44c-0.32,0-0.62,0.03-0.9,0.1c-0.28,0.07-0.49,0.13-0.62,0.18v19.04
					c0,1.92,0.58,3.3,1.74,4.13c1.16,0.83,2.68,1.24,4.55,1.24c1.23,0,2.19-0.19,2.89-0.56c0.7-0.37,1.04-0.85,1.04-1.44
					c0-0.32-0.07-0.6-0.2-0.84C-316.6,345.97-316.74,345.77-316.9,345.61z"/>
				<linearGradient id="SVGID_32_" gradientUnits="userSpaceOnUse" x1="-311.8919" y1="339.2772" x2="-307.7649" y2="339.2772">
					<stop  offset="0" style="stop-color:#74C474"/>
					<stop  offset="1" style="stop-color:#41AA54"/>
				</linearGradient>
				<path class="st34" d="M-309.89,329.82c-0.32,0-0.62,0.03-0.9,0.1c-0.28,0.07-0.49,0.13-0.62,0.18v17.19
					c0,0.96,0.57,1.44,1.72,1.44c0.32,0,0.61-0.03,0.88-0.1c0.27-0.07,0.47-0.13,0.6-0.18V331.3
					C-308.21,330.32-308.77,329.82-309.89,329.82z"/>
				<linearGradient id="SVGID_33_" gradientUnits="userSpaceOnUse" x1="-311.8923" y1="324.1699" x2="-307.7651" y2="324.1699">
					<stop  offset="0" style="stop-color:#74C474"/>
					<stop  offset="1" style="stop-color:#41AA54"/>
				</linearGradient>
				<path class="st35" d="M-309.81,322.17c-0.61,0-1.11,0.19-1.5,0.58c-0.39,0.39-0.58,0.86-0.58,1.42c0,0.56,0.19,1.04,0.58,1.42
					c0.39,0.39,0.89,0.58,1.5,0.58s1.11-0.19,1.48-0.58c0.37-0.39,0.56-0.86,0.56-1.42c0-0.56-0.19-1.04-0.56-1.42
					C-308.7,322.36-309.2,322.17-309.81,322.17z"/>
				<linearGradient id="SVGID_34_" gradientUnits="userSpaceOnUse" x1="-303.7584" y1="339.2179" x2="-286.5672" y2="339.2179">
					<stop  offset="0" style="stop-color:#74C474"/>
					<stop  offset="1" style="stop-color:#41AA54"/>
				</linearGradient>
				<path class="st36" d="M-288.09,329.66c-0.56,0-1.02,0.11-1.36,0.32c-0.7,2.54-1.5,5.12-2.42,7.73
					c-0.92,2.62-1.92,5.28-2.99,7.97h-0.16c-0.16-0.45-0.37-1-0.62-1.64c-0.25-0.64-0.51-1.3-0.76-1.98c-0.25-0.68-0.5-1.35-0.74-2
					c-0.24-0.65-0.44-1.21-0.6-1.66l-2.49-7.17c-0.21-0.56-0.45-0.96-0.7-1.2c-0.25-0.24-0.62-0.36-1.1-0.36
					c-0.32,0-0.64,0.08-0.96,0.24c-0.32,0.16-0.57,0.37-0.76,0.64c0.24,0.83,0.55,1.77,0.92,2.82c0.37,1.06,0.77,2.15,1.2,3.29
					c0.43,1.14,0.87,2.28,1.32,3.43c0.45,1.15,0.89,2.23,1.32,3.25c0.43,1.02,0.83,1.92,1.2,2.73c0.37,0.8,0.68,1.43,0.92,1.88
					c0.29,0.56,0.94,0.84,1.92,0.84c0.37,0,0.73-0.04,1.06-0.12c0.33-0.08,0.57-0.17,0.7-0.28c0.43-0.8,0.89-1.75,1.38-2.84
					c0.5-1.1,0.99-2.24,1.48-3.43c0.49-1.19,0.96-2.39,1.4-3.59c0.44-1.2,0.83-2.3,1.18-3.31c0.35-1,0.63-1.87,0.84-2.61
					c0.21-0.73,0.32-1.25,0.32-1.54c0-0.45-0.14-0.8-0.42-1.04C-287.27,329.78-287.63,329.66-288.09,329.66z"/>
				<linearGradient id="SVGID_35_" gradientUnits="userSpaceOnUse" x1="-283.721" y1="339.2976" x2="-268.2927" y2="339.2976">
					<stop  offset="0" style="stop-color:#74C474"/>
					<stop  offset="1" style="stop-color:#41AA54"/>
				</linearGradient>
				<path class="st37" d="M-275.87,329.5c-1.09,0-2.11,0.1-3.05,0.3c-0.94,0.2-1.76,0.49-2.48,0.86c-0.4,0.21-0.7,0.44-0.88,0.68
					c-0.19,0.24-0.28,0.55-0.28,0.92c0,0.29,0.09,0.56,0.26,0.8c0.17,0.24,0.37,0.45,0.58,0.64c0.78-0.4,1.66-0.76,2.64-1.08
					c0.99-0.32,2.04-0.48,3.17-0.48c1.36,0,2.44,0.31,3.25,0.92c0.8,0.61,1.2,1.59,1.2,2.92v1.12l-5.69,0.56
					c-2.08,0.21-3.7,0.77-4.85,1.66c-1.15,0.9-1.72,2.22-1.72,3.99c0,1.87,0.69,3.3,2.06,4.29c1.38,0.99,3.32,1.48,5.83,1.48
					c1.36,0,2.57-0.14,3.63-0.42c1.05-0.28,1.9-0.61,2.55-0.98c0.45-0.27,0.79-0.55,1.02-0.86c0.23-0.31,0.34-0.76,0.34-1.34v-9.5
					c0-2.24-0.68-3.89-2.04-4.93C-271.7,330.02-273.54,329.5-275.87,329.5z M-271.46,345.45c-0.32,0.21-0.85,0.44-1.58,0.66
					c-0.73,0.23-1.66,0.34-2.78,0.34c-1.58,0-2.75-0.27-3.53-0.82c-0.77-0.55-1.16-1.33-1.16-2.34c0-0.96,0.33-1.69,1-2.18
					c0.67-0.5,1.7-0.81,3.09-0.94l4.97-0.52V345.45z"/>
				<linearGradient id="SVGID_36_" gradientUnits="userSpaceOnUse" x1="-256.2315" y1="336.412" x2="-234.8729" y2="336.412">
					<stop  offset="0" style="stop-color:#74C474"/>
					<stop  offset="1" style="stop-color:#41AA54"/>
				</linearGradient>
				<path class="st38" d="M-238.84,336.43c-0.75-2.08-1.49-4.12-2.22-6.11c-0.73-1.99-1.42-3.76-2.06-5.31
					c-0.13-0.37-0.45-0.64-0.94-0.8c-0.5-0.16-1.01-0.24-1.54-0.24c-0.45,0-0.9,0.05-1.32,0.16c-0.43,0.11-0.75,0.21-0.96,0.32
					c-0.64,1.6-1.34,3.41-2.1,5.43c-0.76,2.02-1.51,4.02-2.24,6.01c-0.73,1.99-1.42,3.87-2.04,5.63c-0.63,1.76-1.14,3.21-1.54,4.33
					c-0.11,0.29-0.2,0.57-0.28,0.82c-0.08,0.25-0.12,0.5-0.12,0.74c0,0.51,0.17,0.88,0.5,1.1c0.33,0.23,0.71,0.34,1.14,0.34
					c0.51,0,0.95-0.08,1.32-0.24c0.11-0.35,0.25-0.78,0.44-1.3c0.19-0.52,0.38-1.08,0.58-1.68c0.2-0.6,0.41-1.21,0.62-1.84
					c0.21-0.63,0.41-1.21,0.6-1.74h10.74l1.8,5.33c0.19,0.53,0.41,0.92,0.68,1.14c0.27,0.23,0.66,0.34,1.16,0.34
					c0.37,0,0.71-0.07,1-0.22c0.29-0.15,0.55-0.34,0.76-0.58c-0.53-1.63-1.14-3.45-1.82-5.47
					C-237.38,340.57-238.09,338.52-238.84,336.43z M-250.14,339.36c0.35-1.04,0.72-2.14,1.12-3.29c0.4-1.15,0.8-2.28,1.2-3.41
					c0.4-1.12,0.79-2.2,1.16-3.23c0.37-1.03,0.71-1.94,1-2.74h0.16c0.21,0.67,0.49,1.48,0.82,2.42c0.33,0.95,0.69,1.98,1.08,3.11
					c0.39,1.12,0.8,2.29,1.22,3.51c0.43,1.22,0.84,2.42,1.24,3.63H-250.14z"/>
				<linearGradient id="SVGID_37_" gradientUnits="userSpaceOnUse" x1="-230.6243" y1="335.6705" x2="-213.7141" y2="335.6705">
					<stop  offset="0" style="stop-color:#74C474"/>
					<stop  offset="1" style="stop-color:#41AA54"/>
				</linearGradient>
				<path class="st39" d="M-216.22,331.9c-0.79-0.8-1.72-1.4-2.79-1.8c-1.07-0.4-2.22-0.6-3.45-0.6c-1.1,0-2.05,0.14-2.87,0.42
					c-0.82,0.28-1.52,0.61-2.1,0.98v-7.17c0-0.96-0.56-1.44-1.68-1.44c-0.32,0-0.62,0.03-0.9,0.1c-0.28,0.07-0.49,0.13-0.62,0.18
					v22.6c0,0.56,0.11,1.01,0.32,1.34c0.21,0.33,0.6,0.68,1.16,1.02c0.67,0.4,1.53,0.76,2.59,1.06c1.05,0.31,2.24,0.46,3.55,0.46
					c1.36,0,2.62-0.19,3.77-0.58c1.15-0.39,2.13-0.98,2.95-1.78c0.81-0.8,1.45-1.82,1.9-3.05c0.46-1.23,0.68-2.68,0.68-4.37
					c0-1.66-0.22-3.1-0.66-4.33C-214.81,333.72-215.43,332.71-216.22,331.9z M-217.4,342.46c-0.29,0.9-0.71,1.64-1.24,2.22
					c-0.53,0.59-1.17,1.02-1.9,1.3c-0.73,0.28-1.56,0.42-2.46,0.42c-1.02,0-1.9-0.13-2.66-0.4c-0.76-0.27-1.34-0.55-1.74-0.84
					v-11.34c0.53-0.45,1.18-0.85,1.94-1.18c0.76-0.33,1.61-0.5,2.54-0.5c0.86,0,1.65,0.14,2.38,0.42c0.73,0.28,1.37,0.71,1.9,1.28
					c0.53,0.58,0.95,1.32,1.24,2.22c0.29,0.91,0.44,1.98,0.44,3.21C-216.96,340.51-217.11,341.57-217.4,342.46z"/>
				<linearGradient id="SVGID_38_" gradientUnits="userSpaceOnUse" x1="-208.9853" y1="339.2772" x2="-204.8583" y2="339.2772">
					<stop  offset="0" style="stop-color:#74C474"/>
					<stop  offset="1" style="stop-color:#41AA54"/>
				</linearGradient>
				<path class="st40" d="M-206.98,329.82c-0.32,0-0.62,0.03-0.9,0.1c-0.28,0.07-0.49,0.13-0.62,0.18v17.19
					c0,0.96,0.57,1.44,1.72,1.44c0.32,0,0.61-0.03,0.88-0.1c0.27-0.07,0.47-0.13,0.6-0.18V331.3
					C-205.3,330.32-205.86,329.82-206.98,329.82z"/>
				<linearGradient id="SVGID_39_" gradientUnits="userSpaceOnUse" x1="-208.9856" y1="324.1699" x2="-204.8584" y2="324.1699">
					<stop  offset="0" style="stop-color:#74C474"/>
					<stop  offset="1" style="stop-color:#41AA54"/>
				</linearGradient>
				<path class="st41" d="M-206.9,322.17c-0.61,0-1.11,0.19-1.5,0.58c-0.39,0.39-0.58,0.86-0.58,1.42c0,0.56,0.19,1.04,0.58,1.42
					c0.39,0.39,0.89,0.58,1.5,0.58c0.61,0,1.11-0.19,1.48-0.58c0.37-0.39,0.56-0.86,0.56-1.42c0-0.56-0.19-1.04-0.56-1.42
					C-205.79,322.36-206.29,322.17-206.9,322.17z"/>
				<linearGradient id="SVGID_40_" gradientUnits="userSpaceOnUse" x1="-200.0888" y1="339.2772" x2="-182.8976" y2="339.2772">
					<stop  offset="0" style="stop-color:#74C474"/>
					<stop  offset="1" style="stop-color:#41AA54"/>
				</linearGradient>
				<path class="st42" d="M-185.24,331.8c-0.73-0.73-1.61-1.3-2.62-1.7c-1.02-0.4-2.12-0.6-3.33-0.6c-1.28,0-2.47,0.22-3.57,0.66
					c-1.1,0.44-2.04,1.08-2.82,1.9c-0.79,0.83-1.4,1.84-1.84,3.03c-0.44,1.19-0.66,2.54-0.66,4.07c0,3.23,0.9,5.69,2.7,7.37
					c1.8,1.68,4.25,2.52,7.35,2.52c0.88,0,1.7-0.08,2.47-0.24c0.76-0.16,1.43-0.38,2-0.64c0.57-0.27,1.03-0.57,1.36-0.92
					c0.33-0.35,0.5-0.71,0.5-1.08c0-0.64-0.32-1.15-0.96-1.52c-0.53,0.43-1.25,0.83-2.16,1.2c-0.91,0.37-1.92,0.56-3.05,0.56
					c-3.87,0-6.17-1.75-6.89-5.25l12.34-1.72c0.48-0.05,0.86-0.21,1.12-0.46c0.27-0.25,0.4-0.67,0.4-1.26c0-1.2-0.21-2.3-0.62-3.31
					C-183.93,333.41-184.51,332.54-185.24,331.8z M-196.96,338.68c0.05-2.11,0.61-3.73,1.68-4.87c1.07-1.13,2.42-1.7,4.05-1.7
					c1.6,0,2.85,0.47,3.75,1.42c0.9,0.95,1.41,2.16,1.54,3.63L-196.96,338.68z"/>
				<linearGradient id="SVGID_41_" gradientUnits="userSpaceOnUse" x1="-178.2503" y1="339.1171" x2="-166.7082" y2="339.1171">
					<stop  offset="0" style="stop-color:#74C474"/>
					<stop  offset="1" style="stop-color:#41AA54"/>
				</linearGradient>
				<path class="st43" d="M-169.91,329.5c-1.5,0-2.84,0.17-4.03,0.5c-1.19,0.33-2.13,0.73-2.82,1.18c-0.53,0.35-0.91,0.7-1.14,1.06
					c-0.23,0.36-0.34,0.85-0.34,1.46v13.58c0,0.96,0.57,1.44,1.72,1.44c0.32,0,0.61-0.03,0.88-0.1c0.27-0.07,0.47-0.13,0.6-0.18
					v-14.99c0.61-0.35,1.39-0.65,2.32-0.9c0.93-0.25,2.02-0.38,3.25-0.38c0.43,0,0.86,0.03,1.28,0.08c0.43,0.05,0.77,0.11,1.04,0.16
					c0.13-0.16,0.24-0.35,0.32-0.58c0.08-0.23,0.12-0.47,0.12-0.74C-166.71,330.03-167.78,329.5-169.91,329.5z"/>
				<linearGradient id="SVGID_42_" gradientUnits="userSpaceOnUse" x1="-162.9013" y1="336.7129" x2="-152.6833" y2="336.7129">
					<stop  offset="0" style="stop-color:#74C474"/>
					<stop  offset="1" style="stop-color:#41AA54"/>
				</linearGradient>
				<path class="st44" d="M-153.32,345.61c-0.38,0.21-0.84,0.4-1.4,0.56c-0.56,0.16-1.07,0.24-1.52,0.24
					c-1.09,0-1.94-0.22-2.54-0.66c-0.6-0.44-0.9-1.19-0.9-2.26v-10.42h5.73c0.8,0,1.2-0.45,1.2-1.36c0-0.27-0.04-0.52-0.12-0.74
					c-0.08-0.23-0.16-0.41-0.24-0.54h-6.57v-4.61c0-0.96-0.56-1.44-1.68-1.44c-0.32,0-0.62,0.03-0.9,0.1
					c-0.28,0.07-0.49,0.13-0.62,0.18v19.04c0,1.92,0.58,3.3,1.74,4.13c1.16,0.83,2.68,1.24,4.55,1.24c1.23,0,2.19-0.19,2.88-0.56
					c0.7-0.37,1.04-0.85,1.04-1.44c0-0.32-0.07-0.6-0.2-0.84C-153.02,345.97-153.16,345.77-153.32,345.61z"/>
				<linearGradient id="SVGID_43_" gradientUnits="userSpaceOnUse" x1="-149.0762" y1="339.2976" x2="-133.6478" y2="339.2976">
					<stop  offset="0" style="stop-color:#74C474"/>
					<stop  offset="1" style="stop-color:#41AA54"/>
				</linearGradient>
				<path class="st45" d="M-135.69,331.06c-1.36-1.04-3.21-1.56-5.53-1.56c-1.09,0-2.11,0.1-3.04,0.3c-0.94,0.2-1.76,0.49-2.49,0.86
					c-0.4,0.21-0.7,0.44-0.88,0.68c-0.19,0.24-0.28,0.55-0.28,0.92c0,0.29,0.09,0.56,0.26,0.8c0.17,0.24,0.37,0.45,0.58,0.64
					c0.77-0.4,1.66-0.76,2.64-1.08c0.99-0.32,2.04-0.48,3.17-0.48c1.36,0,2.44,0.31,3.25,0.92c0.8,0.61,1.2,1.59,1.2,2.92v1.12
					l-5.69,0.56c-2.08,0.21-3.7,0.77-4.85,1.66c-1.15,0.9-1.72,2.22-1.72,3.99c0,1.87,0.69,3.3,2.06,4.29
					c1.38,0.99,3.32,1.48,5.83,1.48c1.36,0,2.57-0.14,3.63-0.42c1.05-0.28,1.9-0.61,2.55-0.98c0.45-0.27,0.79-0.55,1.02-0.86
					c0.23-0.31,0.34-0.76,0.34-1.34v-9.5C-133.65,333.75-134.33,332.1-135.69,331.06z M-136.81,345.45
					c-0.32,0.21-0.85,0.44-1.58,0.66c-0.73,0.23-1.66,0.34-2.78,0.34c-1.58,0-2.75-0.27-3.53-0.82c-0.78-0.55-1.16-1.33-1.16-2.34
					c0-0.96,0.33-1.69,1-2.18c0.67-0.5,1.7-0.81,3.09-0.94l4.97-0.52V345.45z"/>
			</g>
		</g>
		<g>
			<g>
				<path d="M-154.53,251.89c-0.3,0-0.56-0.08-0.8-0.24c-0.24-0.16-0.51-0.39-0.8-0.68l-2.04-2.12c-0.88,0.94-1.96,1.68-3.25,2.24
					c-1.28,0.56-2.81,0.84-4.57,0.84c-1.39,0-2.65-0.19-3.77-0.58c-1.12-0.39-2.08-0.93-2.88-1.62c-0.8-0.69-1.42-1.54-1.86-2.54
					c-0.44-1-0.66-2.12-0.66-3.34c0-1.87,0.49-3.43,1.48-4.67c0.99-1.24,2.24-2.14,3.77-2.71c-0.64-0.75-1.12-1.48-1.44-2.2
					c-0.32-0.72-0.48-1.51-0.48-2.36c0-1.66,0.55-2.98,1.66-3.97c1.11-0.99,2.68-1.48,4.71-1.48c1.42,0,2.49,0.2,3.23,0.6
					c0.73,0.4,1.1,0.91,1.1,1.52c0,0.32-0.09,0.61-0.26,0.86c-0.17,0.25-0.37,0.45-0.58,0.58c-0.43-0.24-0.93-0.44-1.5-0.6
					c-0.58-0.16-1.17-0.24-1.78-0.24c-1.02,0-1.82,0.25-2.4,0.74c-0.59,0.49-0.88,1.17-0.88,2.02c0,0.83,0.21,1.56,0.64,2.21
					c0.43,0.64,1.04,1.38,1.84,2.2l7.53,7.85c0.38-0.85,0.66-1.87,0.86-3.05c0.2-1.18,0.3-2.5,0.3-3.97
					c0.24-0.11,0.49-0.19,0.74-0.26c0.25-0.07,0.5-0.1,0.74-0.1c1.07,0,1.6,0.6,1.6,1.8c0,1.36-0.18,2.74-0.52,4.13
					c-0.35,1.39-0.84,2.65-1.48,3.77l3.53,3.65C-152.93,251.32-153.51,251.89-154.53,251.89z M-165.95,249.21
					c0.93,0,1.91-0.19,2.93-0.56c1.02-0.37,1.96-1,2.85-1.88l-7.77-8.14c-0.51,0.16-1,0.38-1.48,0.66c-0.48,0.28-0.9,0.64-1.26,1.08
					c-0.36,0.44-0.65,0.96-0.88,1.54c-0.23,0.59-0.34,1.24-0.34,1.96c0,1.6,0.53,2.89,1.58,3.87
					C-169.28,248.72-167.82,249.21-165.95,249.21z"/>
			</g>
			<g>
				<path d="M-290.55,200.42c-4.54-2.26-9.09-3.38-13.63-3.38h-22.04v33.46c0,3.63,2.94,6.58,6.58,6.58h4.39v-29.07h11.07
					c2.66,0,5.38,0.68,8.15,2.05c5.54,2.77,8.3,7.55,8.3,14.35c0,6.9-2.77,11.74-8.3,14.5c-2.77,1.4-5.48,2.1-8.15,2.1h-5.76h-9.65
					c-3.66,0-6.62,2.97-6.62,6.62v4.29h22.04c4.54,0,9.09-1.13,13.63-3.38c9.19-4.65,13.79-12.69,13.79-24.14
					C-276.76,212.96-281.36,204.97-290.55,200.42z"/>
				<path d="M-191.64,208.01c3.64,0,6.59-2.95,6.59-6.59v-4.38h-38.49v54.89h38.49v-4.32c0-3.64-2.95-6.6-6.6-6.6h-20.93v-11.12
					h23.06v-10.97h-23.06v-10.92H-191.64z"/>
				<path d="M-227.94,218.93c0-9.16-3.65-15.57-10.96-19.22c-3.66-1.88-7.32-2.82-10.97-2.82h-22.04v22.5
					c0,3.63,2.95,6.58,6.58,6.58h4.39v-18.11h11.07c1.77,0,3.6,0.5,5.48,1.49c3.65,1.78,5.48,4.97,5.48,9.58
					c0,4.54-1.83,7.75-5.48,9.63c-1.88,0.89-3.71,1.34-5.48,1.34h-22.04v22.04h10.97v-11.07h11.07c0.61,0,1.45-0.05,2.51-0.15
					l4.15,11.23h11.69l-5.44-14.92C-230.95,233.16-227.94,227.13-227.94,218.93z"/>
				<path d="M-364.32,196.77l-16.84,55.17h6.08c2.9,0,5.46-1.89,6.3-4.66l1.77-5.79l0,0.27h8.25c3.64,0,6.59-2.95,6.59-6.59v-4.38
					h-11.57l6.9-22.59l15.98,39.61c1.01,2.49,3.42,4.12,6.11,4.12h6.86l-22.25-55.17H-364.32z"/>
				<path d="M-408.52,220.62l-16.66-23.85h-8.65v5.46v0.32v49.38h4.36c3.65,0,6.61-2.96,6.61-6.61v-26.89v-0.03l4.58,6.65
					l9.77,14.21l0.02-0.03l14.18-20.84v33.52h11.12v-55.16h-8.66L-408.52,220.62z"/>
			</g>
		</g>
		<g>
			<path d="M-354.1,314.17h38.49v-4.32c0-3.64-2.95-6.6-6.6-6.6h-20.93v-11.12h23.06v-10.97h-23.06v-10.92h20.94
				c3.64,0,6.59-2.95,6.59-6.59v-4.38h-38.49V314.17z"/>
			<path d="M-177.03,281.17c0-9.16-3.65-15.57-10.96-19.22c-3.66-1.88-7.32-2.82-10.97-2.82h-22.04v22.5c0,3.63,2.95,6.58,6.58,6.58
				h4.39v-18.11h11.07c1.77,0,3.6,0.5,5.48,1.49c3.65,1.78,5.48,4.97,5.48,9.58c0,4.54-1.83,7.75-5.48,9.63
				c-1.88,0.89-3.71,1.34-5.48,1.34h-22.04v22.04h10.97V303.1h11.07c0.61,0,1.45-0.05,2.51-0.15l4.15,11.23h11.69l-5.44-14.92
				C-180.04,295.4-177.03,289.37-177.03,281.17z"/>
			<path d="M-291.82,281.17c-4.48,0-7.55-0.94-9.23-2.82c-0.62-0.68-0.92-1.47-0.92-2.36v-0.72c0.41-3.35,3.79-5.02,10.15-5.02
				c2.85,0,5.48,0.38,7.91,1.14c0.28,0.09,0.87,0.35,1.59,0.68c2.57,1.2,5.63,0.61,7.57-1.46l4.1-4.36c-1.37-1.3-3.3-2.54-5.79-3.74
				c-4.61-2.15-9.74-3.23-15.38-3.23c-5.88,0-10.73,1.33-14.56,4c-3.76,2.77-5.93,6.32-6.51,10.66c-0.1,0.68-0.15,1.37-0.15,2.05
				c0,3.66,1.28,6.87,3.84,9.64c3.72,4.34,9.52,6.51,17.38,6.51c4.48,0,7.55,0.94,9.23,2.82c0.72,0.89,1.08,1.83,1.08,2.82v0.26
				c-0.51,3.49-3.95,5.23-10.3,5.23c-2.78,0-5.36-0.37-7.74-1.11c-0.33-0.1-0.98-0.38-1.75-0.74c-2.6-1.22-5.68-0.63-7.63,1.47
				l-4.05,4.38c1.37,1.26,3.3,2.49,5.79,3.69c4.61,2.15,9.74,3.23,15.38,3.23c5.88,0,10.73-1.38,14.56-4.15
				c3.86-2.67,6.03-6.17,6.51-10.51c0.1-0.68,0.15-1.42,0.15-2.2c0-3.55-1.23-6.77-3.69-9.64
				C-278.15,283.34-284,281.17-291.82,281.17z"/>
			<path d="M-268.12,270.2h16.4v43.98h11.07V270.2h9.51c3.8,0,6.89-3.08,6.89-6.89v-4.03h-43.87V270.2z"/>
			<path d="M-392.2,259.01l-16.84,55.17h6.08c2.9,0,5.46-1.89,6.3-4.66l11.93-39.07l9.29,23.04h-10.48v4.38
				c0,3.64,2.95,6.59,6.59,6.59h8.25l0-0.17l2.33,5.77c1.01,2.49,3.42,4.12,6.11,4.12h6.86l-22.25-55.17H-392.2z"/>
			<path d="M-147.13,259.01h-14.17l-16.84,55.17h6.08c2.9,0,5.46-1.89,6.3-4.66l1.55-5.06h7.92c3.64,0,6.59-2.95,6.59-6.59v-4.38
				h-11.16l7.04-23.04l15.98,39.61c1.01,2.49,3.42,4.12,6.11,4.12h6.86L-147.13,259.01z"/>
			<path d="M-436.4,282.86l-16.66-23.85h-8.65v5.46v0.32v49.38h4.36c3.65,0,6.61-2.96,6.61-6.61v-26.89v-0.03l4.58,6.65l9.77,14.21
				l0.02-0.03l14.18-20.84v33.52h11.12v-55.16h-8.66L-436.4,282.86z"/>
		</g>
	</g>
	<g>
		<g>
			<polygon class="st0" points="-299.5,-72.56 -283.91,-66.51 -130.02,178.04 -440.99,178.04 -456.58,171.99 -145.96,171.98 			"/>
			<polygon class="st22" points="-299.5,-72.56 -456.58,171.98 -145.96,171.98 			"/>
			<linearGradient id="SVGID_44_" gradientUnits="userSpaceOnUse" x1="-399.7207" y1="67.7749" x2="-200.928" y2="67.7749">
				<stop  offset="0" style="stop-color:#74C474"/>
				<stop  offset="1" style="stop-color:#41AA54"/>
			</linearGradient>
			<polygon class="st46" points="-300.32,-10.04 -399.72,145.59 -200.93,145.59 			"/>
		</g>
		<g>
			<g>
				<g>
					<linearGradient id="SVGID_45_" gradientUnits="userSpaceOnUse" x1="-288.729" y1="92.6414" x2="-223.1154" y2="92.6414">
						<stop  offset="0" style="stop-color:#74C474"/>
						<stop  offset="1" style="stop-color:#41AA54"/>
					</linearGradient>
					<path class="st47" d="M-287.79,33.13c2.37-2.26,4.01-0.76,6.93,1.43c2.64,1.98,3.71,6.45,6.35,9.67
						c4.46,5.43,10.43,9.63,14.37,9.36c3.59-0.19,4.01-0.37,5.08-0.92c0.58-0.3-2.67-0.73-4.52-1.52
						c-5.84-2.48-9.48-10.63-6.66-17.05c3.43-7.8,11.27-10.45,19.06-7.11c4.66,2,7.48,7.43,7.17,12.97
						c-0.31,5.43-2.83,9.15-7.98,11.1c-0.72,0.27-0.62,0.55,0.07,0.74c7.93,2.19,13.5,7.48,17.79,14.09
						c5.55,8.56,7.22,18.24,6.99,28.3c-0.06,2.68-0.15,5.37-0.45,8.04c-0.27,2.5-1.85,3.97-3.81,3.94c-1.87-0.03-3.67-1.9-3.8-4.2
						c-0.24-4.27-0.26-8.54-0.57-12.8c-0.14-1.86-0.71-3.7-1.2-5.53c-0.11-0.42-3.15-6.57-3.51-6.93c-0.34,0.43-0.97,5.49-1.03,5.94
						c-0.63,4.73-0.83,7.73-0.03,11.65c1.01,4.95,5.76,22.86,4.92,31.81c-0.23,2.5-4.96-0.14-6.98,1.89
						c-1.51,1.52-3.02,7.9-3.76,11.33c-0.2,0.92-0.56,2-1.22,2.58c-0.72,0.63-1.99,1.2-2.79,0.98c-0.59-0.16-1.84-1.64-1.87-2.55
						c-0.1-2.43-0.21-5.64-0.3-9.67c-0.02-0.89,0.07-1.77-0.29-2.66c-0.4,0.87-0.77,1.72-0.79,2.6c-0.23,6.89-0.15,4.05-0.35,10.93
						c-0.13,4.45-0.36,8.9-0.64,13.35c-0.1,1.59-0.45,3.14-2.1,4.02c-3.85,2.06-7.3-0.03-7.52-4.66c-0.12-2.56-0.12-5.13-0.22-7.69
						c-0.34-9.17,0.32-16.11-0.53-17.53c-0.86-1.42-4.07,0.03-6.55-1.5c-2.47-1.53,0.19-22.22,3.68-29.59
						c3.24-6.86,3.41-6.54,3.46-12.63c0.01-1.65,0.29-7.39,0.09-9.01c-0.09-0.73,0.88-10.05-1.93-10.99
						c-3.44-1.15-10.54-6.13-15.74-12.04c-4.7-5.34-7.61-10.54-8.94-13.29C-289.84,35.95-287.79,33.13-287.79,33.13z"/>
				</g>
			</g>
			<g>
				<g>
					<path class="st0" d="M-288.92,33.13c2.37-2.26,4.01-0.76,6.93,1.43c2.64,1.98,3.71,6.45,6.35,9.67
						c4.46,5.43,10.43,9.63,14.37,9.36c3.59-0.19,4.01-0.37,5.08-0.92c0.58-0.3-2.67-0.73-4.52-1.52
						c-5.84-2.48-9.48-10.63-6.66-17.05c3.43-7.8,11.27-10.45,19.06-7.11c4.66,2,7.48,7.43,7.17,12.97
						c-0.31,5.43-2.83,9.15-7.98,11.1c-0.72,0.27-0.62,0.55,0.07,0.74c7.93,2.19,13.5,7.48,17.79,14.09
						c5.55,8.56,7.22,18.24,6.99,28.3c-0.06,2.68-0.15,5.37-0.45,8.04c-0.27,2.5-1.85,3.97-3.81,3.94c-1.87-0.03-3.67-1.9-3.8-4.2
						c-0.24-4.27-0.26-8.54-0.57-12.8c-0.14-1.86-0.71-3.7-1.2-5.53c-0.11-0.42-3.15-6.57-3.51-6.93c-0.34,0.43-0.97,5.49-1.03,5.94
						c-0.63,4.73-0.83,7.73-0.03,11.65c1.01,4.95,5.76,22.86,4.92,31.81c-0.23,2.5-4.96-0.14-6.98,1.89
						c-1.51,1.52-3.02,7.9-3.76,11.33c-0.2,0.92-0.56,2-1.22,2.58c-0.72,0.63-1.99,1.2-2.79,0.98c-0.59-0.16-1.84-1.64-1.87-2.55
						c-0.1-2.43-0.21-5.64-0.3-9.67c-0.02-0.89,0.07-1.77-0.29-2.66c-0.4,0.87-0.77,1.72-0.79,2.6c-0.23,6.89-0.15,4.05-0.35,10.93
						c-0.13,4.45-0.36,8.9-0.64,13.35c-0.1,1.59-0.45,3.14-2.1,4.02c-3.85,2.06-7.3-0.03-7.52-4.66c-0.12-2.56-0.12-5.13-0.22-7.69
						c-0.34-9.17,0.32-16.11-0.53-17.53c-0.86-1.42-4.07,0.03-6.55-1.5c-2.47-1.53,0.19-22.22,3.68-29.59
						c3.24-6.86,3.41-6.54,3.46-12.63c0.01-1.65,0.29-7.39,0.09-9.01c-0.09-0.73,0.88-10.05-1.93-10.99
						c-3.44-1.15-10.54-6.13-15.74-12.04c-4.7-5.34-7.61-10.54-8.94-13.29C-290.97,35.95-288.92,33.13-288.92,33.13z"/>
				</g>
			</g>
			<linearGradient id="SVGID_46_" gradientUnits="userSpaceOnUse" x1="-374.9463" y1="92.6653" x2="-270.5246" y2="92.6653">
				<stop  offset="0" style="stop-color:#74C474"/>
				<stop  offset="1" style="stop-color:#41AA54"/>
			</linearGradient>
			<path class="st48" d="M-272.76,81.28c-1.97-0.46-4.72,1.15-5.19,3.13c-2.07,8.84-11.81,10.19-12.03,10.22
				c-1.26,0.19-1.9-0.52-2.66-0.93c4.98-0.46,8.9-4.6,8.9-9.71c0-5.41-4.39-9.8-9.8-9.8c-5.41,0-9.8,4.39-9.8,9.8
				c0,5.1,3.91,9.24,8.89,9.71c-0.8,0.38-1.78,1.03-2.63,0.94c-0.25-0.03-7.28-1.9-12.06-10.22c-0.14-0.24-0.29-0.48-0.45-0.71
				c-0.43-1.34-1.32-2.5-1.32-2.5c-1.42-1.95-3.16-2.59-5-4.18c-10.06-8.7-17.6-15.11-27.74-23.79c8.46-5.34,11.04-10.19,9.23-17.25
				c-1.78-6.96-6.96-10.34-13.44-10.4c-6.68-0.06-11.34,4.13-13.38,10.65c-1.97,6.28,1.14,11.76,10.19,17.87
				c-17.86,10.13-24.84,27.68-23.8,46.72c0.51,9.42,2.26,12.09,6.32,8.75c3.66-3.02-0.77-24.49,11.39-31.74
				c-1.22,4.92-10.18,41.57-11.4,45.79c-1.62,5.6-0.12,8.68,6.15,8.1c4.92-0.46,6.08-0.41,6.59,4.47c0.24,2.29,1.03,5.08,1.7,5.97
				c0.83,1.12,3.95,1.05,4.68,0.58c0.4-0.26,2.17-10.97,2.27-10.7c0.93,2.54,0.38,21,1.38,23.9c0.84,2.46,2.23,3.82,5.39,3.8
				c3.16-0.02,4.28-1.62,4.55-3.93c0.68-5.81-0.04-13.07,0.55-18.9c0.2-1.99,2.34-4.93,4.14-5.42c9.2-2.48,9.27-2.26,6.52-11.63
				c-0.83-2.82-1.87-5.57-2.58-8.42c-2.66-10.7-7.92-21.02-5.19-33.83c2.91,1.76,5.18,2.97,7.27,4.44c4.38,3.08,2.76,1.41,7.15,4.41
				c0.71,0.49,1.56,0.86,2.44,1.12c3.81,7.66,8.54,11.08,12.25,13.31l1.42,11.02c0.03,0.26,0.04,0.53,0.03,0.8l-1.45,26.13
				c0,2.33,1.89,4.21,4.21,4.21c2.33,0,4.21-1.89,4.21-4.21h0.07l0.73-18.69l0.35-0.36l1.09,19.06c2.33,0,4.56-2.62,5.49-5.49
				l1.26-13.19l0.56-7.54l1.2-11.6c4.21-1.49,10.16-6.24,13.35-14.95C-270.09,84.18-270.78,81.74-272.76,81.28z"/>
			<path class="st0" d="M-271.51,81.28c-1.97-0.46-4.72,1.15-5.19,3.13c-2.07,8.84-11.81,10.19-12.03,10.22
				c-1.26,0.19-1.9-0.52-2.66-0.93c4.98-0.46,8.9-4.6,8.9-9.71c0-5.41-4.39-9.8-9.8-9.8c-5.41,0-9.8,4.39-9.8,9.8
				c0,5.1,3.91,9.24,8.89,9.71c-0.8,0.38-1.78,1.03-2.63,0.94c-0.25-0.03-7.28-1.9-12.06-10.22c-0.14-0.24-0.29-0.48-0.45-0.71
				c-0.43-1.34-1.32-2.5-1.32-2.5c-1.42-1.95-3.16-2.59-5-4.18c-10.06-8.7-17.6-15.11-27.74-23.79c8.46-5.34,11.04-10.19,9.23-17.25
				c-1.78-6.96-6.96-10.34-13.44-10.4c-6.68-0.06-11.34,4.13-13.38,10.65c-1.97,6.28,1.14,11.76,10.19,17.87
				c-17.86,10.13-24.84,27.68-23.8,46.72c0.51,9.42,2.26,12.09,6.32,8.75c3.66-3.02-0.77-24.49,11.39-31.74
				c-1.22,4.92-10.18,41.57-11.4,45.79c-1.62,5.6-0.12,8.68,6.15,8.1c4.92-0.46,6.08-0.41,6.59,4.47c0.24,2.29,1.03,5.08,1.7,5.97
				c0.83,1.12,3.95,1.05,4.68,0.58c0.4-0.26,2.17-10.97,2.27-10.7c0.93,2.54,0.38,21,1.38,23.9c0.84,2.46,2.23,3.82,5.39,3.8
				c3.16-0.02,4.28-1.62,4.55-3.93c0.68-5.81-0.04-13.07,0.55-18.9c0.2-1.99,2.34-4.93,4.14-5.42c9.2-2.48,9.27-2.26,6.52-11.63
				c-0.83-2.82-1.87-5.57-2.58-8.42c-2.66-10.7-7.92-21.02-5.19-33.83c2.91,1.76,5.18,2.97,7.27,4.44c4.38,3.08,2.76,1.41,7.15,4.41
				c0.71,0.49,1.56,0.86,2.44,1.12c3.81,7.66,8.54,11.08,12.25,13.31l1.42,11.02c0.03,0.26,0.04,0.53,0.03,0.8l-1.45,26.13
				c0,2.33,1.89,4.21,4.21,4.21c2.33,0,4.21-1.89,4.21-4.21h0.07l0.73-18.69l0.35-0.36l1.09,19.06c2.33,0,4.56-2.62,5.49-5.49
				l1.26-13.19l0.56-7.54l1.2-11.6c4.21-1.49,10.16-6.24,13.35-14.95C-268.84,84.18-269.53,81.74-271.51,81.28z"/>
		</g>
	</g>
</g>
</svg>
